<svg width="25" height="31" viewBox="0 0 25 31" fill="none" xmlns="http://www.w3.org/2000/svg">
<path fill-rule="evenodd" clip-rule="evenodd" d="M5.39231 1.21502L4.16731 1.72271C2.93438 2.23331 1.88046 3.09791 1.13873 4.20726C0.396991 5.31661 0.000725413 6.62093 0 7.95541V16.39C0.000468157 16.8783 0.128286 17.3581 0.370834 17.7819C0.613382 18.2057 0.962273 18.559 1.38306 18.8067C1.80385 19.0545 2.28198 19.1883 2.77026 19.1948C3.25853 19.2013 3.74006 19.0803 4.16731 18.8439L4.60385 18.6016C5.74539 17.9685 7.02927 17.6363 8.33461 17.6363C9.63996 17.6363 10.9238 17.9685 12.0654 18.6016L12.9365 19.0843C14.0781 19.7173 15.362 20.0495 16.6673 20.0495C17.9727 20.0495 19.2565 19.7173 20.3981 19.0843L21.8096 18.3016C22.7766 17.7656 23.5824 16.9805 24.1434 16.0279C24.7045 15.0753 25.0002 13.9898 25 12.8843V5.07271C24.9993 4.59125 24.8861 4.11662 24.6692 3.68675C24.4524 3.25688 24.138 2.88371 23.7512 2.59705C23.3644 2.31039 22.9158 2.11819 22.4415 2.03583C21.9671 1.95347 21.48 1.98322 21.0192 2.12271L19.3019 2.64579C17.5985 3.16367 15.7682 3.07464 14.1231 2.39387L11.2731 1.21502C9.39019 0.436139 7.27519 0.436139 5.39231 1.21502ZM14.8019 15.7208L13.9288 15.2381C12.399 14.3899 10.6963 13.9007 8.94952 13.8074C7.20276 13.7142 5.45766 14.0192 3.84615 14.6996V7.95348C3.84615 6.78041 4.55385 5.72271 5.63654 5.27464L6.86346 4.76887C7.8049 4.37943 8.8624 4.37943 9.80385 4.76887L12.6519 5.94579C15.12 6.96686 17.8658 7.10008 20.4212 6.32271L21.1538 6.10156V12.8843C21.1538 13.7381 20.6904 14.5246 19.9423 14.9381L18.5327 15.7208C17.9619 16.0373 17.32 16.2034 16.6673 16.2034C16.0146 16.2034 15.3727 16.0373 14.8019 15.7208Z" fill="white"/>
<path d="M3.84615 1.92308C3.84615 0.860991 2.98516 0 1.92308 0C0.860991 0 0 0.860991 0 1.92308V28.8462C0 29.9082 0.860991 30.7692 1.92308 30.7692C2.98516 30.7692 3.84615 29.9082 3.84615 28.8462V1.92308Z" fill="white"/>
</svg>
