<svg width="240" height="259" viewBox="0 0 240 259" fill="none" xmlns="http://www.w3.org/2000/svg">
<mask id="mask0_763_8106" style="mask-type:alpha" maskUnits="userSpaceOnUse" x="0" y="74" width="191" height="155">
<path d="M0 74.8457H190.983V228.827H0V74.8457Z" fill="black"/>
</mask>
<g mask="url(#mask0_763_8106)">
<mask id="mask1_763_8106" style="mask-type:alpha" maskUnits="userSpaceOnUse" x="-39" y="17" width="266" height="260">
<path d="M226.14 193.681L30.8024 276.483L-38.9102 100.288L156.432 17.4854L226.14 193.681Z" fill="black"/>
</mask>
<g mask="url(#mask1_763_8106)">
<mask id="mask2_763_8106" style="mask-type:alpha" maskUnits="userSpaceOnUse" x="-39" y="17" width="266" height="260">
<path d="M226.139 193.683L30.8004 276.485L-38.9121 100.29L156.43 17.4873L226.139 193.683Z" fill="black"/>
</mask>
<g mask="url(#mask2_763_8106)">
<mask id="mask3_763_8106" style="mask-type:alpha" maskUnits="userSpaceOnUse" x="-39" y="17" width="266" height="260">
<path d="M226.139 193.688L30.8004 276.491L-38.9121 100.296L156.43 17.4932L226.139 193.688Z" fill="black"/>
</mask>
<g mask="url(#mask3_763_8106)">
<path d="M71.7527 221.799C36.0141 208.388 -31.2679 119.253 19.8699 84.3426C54.4462 60.722 59.9574 98.5501 107.381 128.169C123.094 137.964 199.934 127.82 188.649 178.264C181.95 208.151 118.501 239.316 71.7527 221.799Z" fill="#7EB4EA" fill-opacity="0.5"/>
</g>
</g>
</g>
</g>
<mask id="mask4_763_8106" style="mask-type:alpha" maskUnits="userSpaceOnUse" x="7" y="16" width="233" height="243">
<path d="M7.32617 16.3086H239.997V258.115H7.32617V16.3086Z" fill="black"/>
</mask>
<g mask="url(#mask4_763_8106)">
<path d="M192.877 41.7669C192.563 41.5149 192.202 41.4096 191.81 41.4665C191.409 41.5234 191.088 41.7097 190.852 42.043C190.608 42.3763 190.519 42.7508 190.582 43.1572C190.645 43.5718 190.843 43.8967 191.172 44.1324C219.608 66.0216 236.146 99.6968 236.578 136.526C236.727 148.742 235.064 160.691 231.609 172.371C229.418 175.264 227.241 178.158 224.987 180.987C222.443 184.255 219.749 187.368 216.891 190.334C216.247 190.993 215.588 191.635 214.913 192.253C214.583 192.553 214.254 192.846 213.924 193.131L213.255 193.684C213.404 193.554 213.217 193.683 213.169 193.74C211.544 195.025 209.791 196.13 208.111 197.341C206.281 198.593 204.634 200.056 203.166 201.739C201.752 203.446 200.76 205.372 200.187 207.542C199.645 209.632 199.529 211.744 199.835 213.882C200.149 216.019 200.847 218.011 201.954 219.848C202.253 220.312 202.574 220.75 202.904 221.181C197.705 226.521 192.052 231.285 185.942 235.471C179.84 239.665 173.404 243.201 166.627 246.086C159.85 248.971 152.867 251.143 145.673 252.614C138.488 254.077 131.234 254.808 123.907 254.799H123.708C116.467 254.832 109.291 254.142 102.176 252.727C95.0613 251.321 88.1442 249.215 81.422 246.419C74.7001 243.623 68.2982 240.185 62.2201 236.113C56.1419 232.033 50.4959 227.391 45.2894 222.181C46.1454 220.636 46.8041 219.003 47.2596 217.287C47.723 215.573 47.975 213.825 48.0063 212.045C48.0455 210.265 47.8673 208.501 47.4746 206.77C47.0898 205.038 46.493 203.38 45.6998 201.795C44.1215 198.666 41.6212 196.316 39.2653 193.837C38.6764 193.228 38.1457 192.619 37.6274 192.017L37.2716 191.562L37.2325 191.522C37.1776 191.457 37.1311 191.383 37.084 191.31C36.8563 190.993 36.6353 190.668 36.439 190.327C36.2426 190.01 36.0723 189.684 35.9073 189.343L35.7901 189.067C35.7194 188.88 35.6457 188.685 35.5829 188.49C35.4729 188.14 35.3877 187.774 35.317 187.408C35.317 187.335 35.2858 187.238 35.278 187.148V187.075C35.278 186.88 35.2781 186.685 35.2467 186.474C35.2467 186.157 35.2465 185.864 35.2858 185.523C35.2858 185.544 35.2858 185.56 35.2858 185.571C35.3014 185.49 35.317 185.401 35.3249 185.319C35.3249 185.157 35.3872 184.986 35.4265 184.824C35.4972 184.523 35.5746 184.223 35.6767 183.93C35.7316 183.776 35.7899 183.621 35.8448 183.459L35.9308 183.255C36.4962 182.02 37.1782 180.865 37.9792 179.784C38.0342 179.711 38.0885 179.638 38.1356 179.565L38.4209 179.191L39.1011 178.329C39.5409 177.768 39.9827 177.232 40.4146 176.671C41.3334 175.533 42.1821 174.338 42.9517 173.079C44.4595 170.494 45.2192 167.397 44.2925 164.446C43.1853 160.975 40.2718 158.489 37.1935 156.936C33.5261 155.189 29.6859 154.213 25.6574 154.018C21.5661 153.757 17.5631 154.237 13.6367 155.464C13.1263 155.619 12.6225 155.798 12.1277 155.985C11.2875 150.279 10.8457 144.548 10.8064 138.777C10.6965 125.065 12.8589 111.751 17.2801 98.827C17.924 97.0226 18.9198 95.4705 20.294 94.1699C21.6604 92.8776 23.2376 91.9755 25.0281 91.4796C29.8105 90.0978 33.4096 90.0814 35.145 91.4796C36.1031 92.2271 36.5641 93.4546 36.5641 95.2267C36.5641 101.014 34.0038 106.557 31.271 112.442C28.5382 118.318 25.7122 124.472 25.7122 130.925C25.7122 134.437 26.0416 138.168 28.4838 139.217C31.837 140.656 36.5173 136.599 49.8201 122.83C57.5159 114.864 64.9613 113.084 70.9454 111.629C77.7773 109.987 83.6842 108.581 85.6869 98.7541C87.5087 89.8375 84.3817 81.262 81.6253 73.6863C78.9633 66.379 76.459 59.511 78.7207 53.5857C81.2102 47.0588 83.9566 44.3359 86.3124 42.5233C87.5373 41.613 88.5914 40.5154 89.4788 39.2556C90.3739 37.9876 91.048 36.6142 91.5116 35.1186C91.9747 33.6311 92.2037 32.1028 92.1957 30.5421C92.1881 28.9734 91.9438 27.4532 91.4647 25.9657C101.171 22.9907 111.083 21.3893 121.198 21.1618H121.237C122.415 21.1618 123.527 21.1292 124.673 21.1618C125.066 21.1618 125.407 21.0155 125.682 20.731C125.964 20.4384 126.104 20.0971 126.104 19.6907C126.104 19.2843 125.964 18.9352 125.682 18.6426C125.407 18.3582 125.066 18.2119 124.673 18.2119H123.418C115.495 18.22 107.659 19.0566 99.9085 20.731C92.1499 22.3973 84.6398 24.8682 77.376 28.1358C70.1121 31.4033 63.2415 35.4023 56.7707 40.1248C50.2998 44.8554 44.3633 50.2126 38.9526 56.2031C38.6778 56.4957 38.546 56.8535 38.5617 57.2599C38.5695 57.6744 38.7167 58.0158 39.0073 58.3002C39.2979 58.5766 39.6428 58.7064 40.0354 58.6901C40.4359 58.6738 40.7653 58.5115 41.0323 58.2108C47.5659 50.9684 54.8626 44.6852 62.9354 39.3693C71.0159 34.0535 79.5995 29.8678 88.7087 26.8116C89.0938 27.9983 89.299 29.2249 89.3146 30.4848C89.3222 31.7447 89.1403 32.9725 88.7713 34.1755C88.4022 35.3704 87.8518 36.4836 87.1372 37.4997C86.4227 38.5156 85.5741 39.3938 84.5845 40.1335C81.9069 42.1819 78.7994 45.2543 76.0429 52.4803C73.3809 59.4624 76.0733 66.8669 78.9318 74.7023C81.6803 82.2453 84.525 90.0403 82.8762 98.1115C81.2426 106.077 77.1086 107.077 70.2691 108.719C63.9395 110.255 56.0564 112.149 47.7873 120.709C41.3716 127.341 31.6909 137.363 29.5471 136.461C29.3743 136.388 28.5307 135.778 28.5307 130.893C28.5307 125.106 31.0909 119.563 33.8237 113.677C36.5565 107.801 39.3943 101.648 39.3943 95.1937C39.3943 92.4789 38.5378 90.4225 36.8494 89.0976C34.3129 87.1064 30.0652 86.9521 24.2384 88.6426C22.0082 89.2766 20.0435 90.4067 18.3394 92.0406C16.6432 93.6663 15.3954 95.608 14.6101 97.8596C13.8326 100.111 13.1235 102.379 12.4796 104.671C11.8356 106.972 11.2543 109.28 10.7439 111.613C10.2335 113.938 9.78775 116.279 9.41868 118.636C9.04174 120.993 8.73566 123.358 8.49221 125.74C8.25662 128.113 8.08218 130.495 7.9801 132.877C7.88587 135.266 7.84701 137.655 7.88628 140.037C7.92553 142.427 8.03014 144.817 8.21074 147.198C8.38352 149.58 8.62374 151.953 8.93785 154.319C9.25198 156.684 9.63172 159.041 10.0793 161.381C10.5348 163.723 11.0423 166.048 11.6313 168.364C12.2124 170.672 12.8673 172.964 13.582 175.232C14.2966 177.5 15.0794 179.752 15.9197 181.971C16.7678 184.198 17.6784 186.392 18.6522 188.554C19.626 190.717 20.6567 192.855 21.7561 194.952C22.8555 197.057 24.0102 199.122 25.2274 201.154C26.4446 203.186 27.7156 205.177 29.0428 207.127C30.3778 209.078 31.7612 210.981 33.2061 212.85C34.6432 214.711 36.1429 216.532 37.6899 218.304C39.2369 220.076 40.8296 221.799 42.4787 223.474C44.1199 225.148 45.8173 226.766 47.5606 228.334C49.2959 229.903 51.079 231.415 52.9084 232.878C54.7382 234.332 56.6059 235.731 58.5142 237.072C60.4224 238.421 62.3715 239.698 64.3506 240.925C66.3373 242.144 68.3525 243.298 70.402 244.395C72.4515 245.492 74.5328 246.525 76.6371 247.493C78.7495 248.46 80.8886 249.362 83.0482 250.2C85.2078 251.037 87.3971 251.8 89.6039 252.499C91.8028 253.198 94.0349 253.832 96.273 254.393C98.5187 254.954 100.77 255.441 103.048 255.864C105.317 256.286 107.596 256.637 109.889 256.922C112.182 257.198 114.484 257.409 116.784 257.547C119.085 257.685 121.391 257.75 123.7 257.75H123.907C127.723 257.742 131.529 257.539 135.322 257.14C139.123 256.742 142.886 256.157 146.631 255.377C150.369 254.589 154.062 253.622 157.714 252.459C161.357 251.297 164.946 249.956 168.464 248.427C171.982 246.899 175.42 245.201 178.772 243.315C182.126 241.437 185.385 239.389 188.549 237.178C191.706 234.967 194.752 232.593 197.689 230.074C200.626 227.546 203.431 224.879 206.109 222.067C208.787 219.255 211.333 216.312 213.728 213.24C216.131 210.168 218.375 206.982 220.464 203.682C222.561 200.373 224.494 196.975 226.261 193.472C228.028 189.977 229.629 186.393 231.05 182.735C232.479 179.069 233.727 175.338 234.795 171.55C235.863 167.754 236.75 163.918 237.457 160.041C238.156 156.155 238.675 152.245 239.005 148.311C239.335 144.377 239.474 140.436 239.427 136.486C238.987 98.7303 222.027 64.2091 192.877 41.7669ZM12.6047 158.976C14.1203 158.391 15.6625 157.928 17.241 157.587C17.7043 157.489 18.1732 157.399 18.6444 157.317L19.391 157.204H19.4301L19.95 157.139C20.9002 157.034 21.8496 156.968 22.8076 156.944C23.7657 156.92 24.8008 156.944 25.806 157.009C26.2771 157.042 26.7499 157.082 27.2289 157.139L27.7801 157.204L28.0147 157.244L28.3978 157.302C30.3217 157.611 32.1934 158.099 34.0309 158.765L34.6173 159L34.9027 159.122C35.2953 159.284 35.6711 159.472 36.0481 159.667C36.7548 160.033 37.4447 160.455 38.0965 160.919C38.2535 161.04 38.4203 161.146 38.5695 161.276L38.8197 161.48C39.1416 161.764 39.4556 162.056 39.7462 162.365C39.9896 162.609 40.2183 162.869 40.4303 163.154C40.391 163.105 40.3675 163.081 40.4303 163.202L40.6023 163.463C40.7201 163.634 40.8286 163.812 40.9306 163.991C41.0327 164.17 41.1296 164.349 41.216 164.544C41.2553 164.601 41.2784 164.666 41.3098 164.731C41.3098 164.747 41.3098 164.763 41.3098 164.779C41.4904 165.145 41.5989 165.543 41.6538 165.95C41.7009 166.105 41.7319 166.267 41.7477 166.429V166.511C41.7555 166.592 41.7555 166.673 41.7477 166.755C41.7712 167.08 41.7712 167.413 41.7477 167.747C41.7477 167.877 41.6377 168.445 41.7477 167.941C41.7162 168.079 41.7087 168.217 41.6773 168.355C41.638 168.681 41.5838 169.006 41.5131 169.332C41.4267 169.6 41.3337 169.851 41.2395 170.111L41.1456 170.315L40.9228 170.778C40.6166 171.372 40.2872 171.948 39.9182 172.501C39.7454 172.761 39.575 173.022 39.3865 173.274C39.2923 173.412 39.1954 173.542 39.1011 173.672C39.0383 173.737 38.992 173.818 38.937 173.892C38.1046 174.981 37.2323 176.037 36.3921 177.126C34.7115 179.305 33.001 181.711 32.522 184.523C32.2314 186.165 32.3243 187.766 32.8269 189.351C33.408 190.993 34.249 192.48 35.3483 193.805C36.3849 195.057 37.4699 196.252 38.6242 197.39C39.2132 197.992 39.7633 198.552 40.313 199.162C40.5643 199.438 40.8123 199.723 41.0479 200.007L41.4506 200.495L41.5913 200.666L41.6851 200.796C42.1798 201.479 42.6215 202.186 43.022 202.925C43.2027 203.266 43.3732 203.625 43.5381 203.974C43.6166 204.169 43.7058 204.348 43.7765 204.534L43.9407 204.957C44.2313 205.754 44.4676 206.567 44.6561 207.396C44.7425 207.778 44.8122 208.169 44.8828 208.558C44.8828 208.746 44.9531 208.949 44.9766 209.168C44.9766 209.323 45 209.469 45.0236 209.615C45.1021 210.444 45.1331 211.264 45.1174 212.094C45.1174 212.508 45.0863 212.924 45.047 213.314C45.047 213.541 45.008 213.768 44.9845 213.988C44.9845 214.096 44.9845 214.164 44.9845 214.191C44.9845 214.231 44.9846 214.321 44.9532 214.377C44.8275 215.207 44.6531 216.019 44.4333 216.816C44.3155 217.214 44.1993 217.605 44.058 217.995L43.8234 218.605L43.6632 218.979C43.5061 219.32 43.3434 219.653 43.1628 219.994C35.2078 211.655 28.62 202.291 23.4136 191.887C18.2071 181.475 14.5993 170.51 12.6047 158.976ZM203.447 216.45L203.486 216.556C203.463 216.524 203.455 216.483 203.447 216.443V216.45ZM204.933 219.101L204.741 218.832C204.6 218.637 204.476 218.434 204.35 218.223C204.099 217.809 203.87 217.386 203.666 216.955L203.51 216.597C203.416 216.353 203.33 216.109 203.244 215.865C203.095 215.41 202.959 214.947 202.857 214.476C202.81 214.256 202.763 214.037 202.724 213.817C202.724 213.687 202.685 213.565 202.669 213.435C202.646 213.313 202.669 213.338 202.669 213.322C202.614 212.842 202.583 212.354 202.576 211.866C202.56 211.379 202.575 210.899 202.622 210.419C202.622 210.289 202.622 210.151 202.661 210.03V209.972C202.732 209.72 202.771 209.468 202.787 209.2C202.881 208.729 203.001 208.257 203.135 207.794C203.197 207.591 203.267 207.38 203.346 207.185C203.424 206.998 203.439 206.941 203.479 206.819C203.505 206.738 203.492 206.77 203.439 206.916C203.463 206.843 203.486 206.778 203.525 206.713C203.722 206.274 203.935 205.843 204.178 205.429C204.296 205.218 204.42 205.014 204.554 204.819L204.749 204.527L204.894 204.323C205.522 203.502 206.212 202.754 206.973 202.064C207.358 201.714 207.75 201.381 208.15 201.056L208.236 200.983L208.568 200.731L209.186 200.259C210.866 199.04 212.626 197.902 214.291 196.65C215.713 195.561 217.057 194.383 218.337 193.115C221.141 190.294 223.78 187.311 226.253 184.165C227.117 183.093 227.962 182.003 228.81 180.922C223.29 195.284 215.338 208.005 204.933 219.084V219.101Z" fill="#336B87"/>
</g>
<path d="M121.888 114.246C122.728 116.961 124.356 119.017 126.751 120.424C128.054 121.139 129.441 121.57 130.91 121.7C132.378 121.838 133.816 121.675 135.222 121.212C137.97 120.342 140.42 118.928 142.571 116.953C143.05 117.481 143.554 118.009 144.072 118.505C146.248 120.724 148.833 122.179 151.816 122.87C155.083 123.544 158.404 123.187 161.703 122.951C164.679 122.683 167.647 122.813 170.6 123.333C176.294 124.463 181.603 127.227 185.404 131.812C187.234 133.974 188.59 136.42 189.47 139.151C190.357 141.874 190.702 144.678 190.506 147.548C190.388 148.856 190.14 150.14 189.763 151.4C189.409 152.627 188.929 153.798 188.34 154.919C187.115 157.285 185.561 159.382 183.676 161.211C181.776 163.121 179.671 164.746 177.363 166.088C174.905 167.535 172.32 168.681 169.611 169.527C163.219 171.575 156.536 172.33 149.909 173.135C143.713 173.883 137.484 174.704 131.493 176.598C125.776 178.427 120.28 181.214 115.946 185.547C111.415 190.049 108.476 195.975 103.843 200.373C101.817 202.405 99.4607 203.852 96.7829 204.729C95.4714 205.144 94.1345 205.274 92.7759 205.144C92.6582 205.136 92.5419 205.128 92.4241 205.104L91.9472 205.005C91.5938 204.924 91.2528 204.827 90.923 204.697C90.3969 204.469 89.9358 204.161 89.5196 203.762C89.3076 203.567 89.1332 203.348 88.9919 203.096C88.8505 202.86 88.7187 202.608 88.6088 202.348C88.491 202.015 88.3862 201.673 88.3156 201.324C88.2449 201.039 88.2062 200.755 88.1826 200.47C88.1198 199.755 88.1198 199.04 88.1826 198.333C88.1826 198.178 88.2138 198.024 88.2296 197.869C88.2296 197.828 88.2294 197.666 88.2765 197.617C88.3236 197.309 88.3817 197.008 88.4524 196.691C88.5859 196.073 88.7486 195.463 88.9449 194.862C89.047 194.569 89.1516 194.252 89.2694 193.992C89.2694 193.959 89.2694 193.935 89.2694 193.903L89.3085 193.813C89.3713 193.667 89.4333 193.504 89.504 193.35C90.0222 192.212 90.6268 191.123 91.31 190.074C91.6477 189.538 92.0081 189.017 92.385 188.505C92.6913 188.066 92.9734 187.685 93.4131 187.14C94.2219 186.108 95.063 185.108 95.9111 184.092C97.623 182.085 99.3833 180.101 100.985 178.004C104.605 173.533 106.803 168.405 107.58 162.626C108.467 156.733 108.203 150.766 107.983 144.833C107.865 141.874 107.767 138.915 107.822 135.949C107.862 134.494 107.927 133.046 108.061 131.6C108.179 130.242 108.372 128.901 108.647 127.576C109.142 124.91 109.983 122.366 111.184 119.952C111.373 119.602 111.419 119.229 111.317 118.839C111.215 118.449 111.006 118.148 110.676 117.936C110.338 117.733 109.974 117.684 109.597 117.79C109.212 117.887 108.93 118.115 108.725 118.464C105.961 123.91 105.114 130.039 104.996 136.127C104.878 142.224 105.446 148.311 105.375 154.399C105.383 157.342 105.155 160.26 104.676 163.153C104.181 165.99 103.286 168.681 101.998 171.233C99.5162 176.045 95.7778 179.735 92.3225 183.938C88.8672 188.148 85.7962 192.806 85.325 198.447C85.058 201.681 85.9848 205.193 88.8589 206.899C91.5917 208.525 95.1556 208.363 98.069 207.38C104.32 205.258 108.459 199.82 112.259 194.586C114.128 191.838 116.233 189.311 118.565 186.978C120.772 184.954 123.201 183.279 125.863 181.971C131.164 179.272 137.256 177.858 143.185 176.939C150.032 175.874 156.966 175.403 163.782 174.021C169.947 172.769 176.019 170.713 181.233 167.007C185.945 163.69 189.871 159.236 191.975 153.717C194.198 147.873 193.695 141.387 191.19 135.738C189.87 132.86 188.103 130.307 185.897 128.08C183.69 125.853 181.179 124.089 178.36 122.797C175.407 121.423 172.319 120.529 169.099 120.123C165.895 119.692 162.722 119.919 159.51 120.155C157.829 120.31 156.143 120.342 154.455 120.261C153.693 120.22 152.946 120.114 152.199 119.935C151.838 119.854 151.486 119.757 151.132 119.643L150.542 119.432L150.151 119.269C148.039 118.221 146.217 116.782 144.686 114.945C146.484 113.116 148.174 111.174 149.901 109.337C151.872 107.102 154.146 105.272 156.722 103.858C157.06 103.647 157.281 103.346 157.375 102.956C157.477 102.566 157.431 102.192 157.242 101.843C157.03 101.493 156.739 101.274 156.363 101.168C155.986 101.062 155.626 101.111 155.288 101.306C150.168 103.939 146.807 108.792 142.794 112.823C141.294 110.929 139.62 109.214 137.775 107.678C135.631 106.044 133.236 105.061 130.59 104.736C129.341 104.541 128.116 104.623 126.907 104.997C125.698 105.371 124.628 105.996 123.686 106.865C122.744 107.824 122.108 108.962 121.786 110.295C121.456 111.62 121.495 112.937 121.888 114.246ZM125.769 115.701C125.652 115.555 125.746 115.677 125.769 115.701V115.701ZM124.433 111.401C124.433 111.49 124.433 111.49 124.433 111.401V111.401ZM124.433 111.556C124.44 111.499 124.44 111.442 124.433 111.393C124.488 111.133 124.542 110.881 124.612 110.637C124.612 110.564 124.667 110.49 124.691 110.409C124.714 110.328 124.819 110.15 124.89 110.012L125.093 109.662L125.226 109.467C125.399 109.248 125.581 109.044 125.777 108.857C125.84 108.792 125.91 108.727 125.988 108.67L126.153 108.541C126.388 108.378 126.632 108.231 126.884 108.109C126.938 108.109 127.04 108.037 127.071 108.02L127.321 107.931C127.596 107.842 127.871 107.767 128.154 107.702L128.424 107.654H128.635C128.933 107.629 129.231 107.614 129.53 107.622C129.789 107.622 130.049 107.622 130.308 107.67H130.543L130.98 107.743C131.562 107.865 132.135 108.02 132.693 108.215C132.944 108.304 133.18 108.394 133.424 108.5L133.705 108.621L134.147 108.841C134.689 109.117 135.208 109.426 135.703 109.768C135.915 109.914 136.124 110.068 136.328 110.23L136.559 110.418L136.911 110.735C137.421 111.206 137.917 111.71 138.396 112.222C139.174 113.052 139.918 113.921 140.656 114.782C138.897 116.367 136.913 117.538 134.698 118.31C133.387 118.741 132.042 118.888 130.668 118.766H130.511L130.109 118.684C129.802 118.619 129.496 118.522 129.198 118.408L128.979 118.326L128.674 118.181C128.383 118.026 128.108 117.863 127.834 117.692C127.621 117.546 127.408 117.4 127.196 117.237C127.157 117.197 127.001 117.059 126.97 117.034C126.844 116.929 126.727 116.815 126.618 116.701C126.414 116.514 126.216 116.311 126.027 116.091C125.933 115.977 125.84 115.855 125.746 115.733L125.578 115.515C125.437 115.287 125.289 115.051 125.156 114.816C125.085 114.677 125.015 114.531 124.945 114.393C124.945 114.344 124.847 114.189 124.823 114.132C124.627 113.636 124.495 113.133 124.409 112.612C124.409 112.564 124.409 112.474 124.409 112.417C124.409 112.368 124.409 112.165 124.409 112.035C124.409 111.905 124.417 111.702 124.425 111.556H124.433Z" fill="#336B87"/>
<path d="M175.495 232.931C175.864 232.931 176.232 232.931 176.601 232.931C176.907 232.914 177.206 232.938 177.504 232.987H177.598L177.785 233.028C177.982 233.069 178.172 233.118 178.376 233.175C178.533 233.215 178.684 233.264 178.833 233.321H178.888L179.005 233.378C179.146 233.443 179.278 233.524 179.404 233.605L179.591 233.736C179.71 233.833 179.822 233.939 179.924 234.053L180.041 234.182C180.111 234.304 180.189 234.419 180.252 234.549C180.323 234.679 180.323 234.687 180.354 234.752C180.354 234.768 180.354 234.775 180.354 234.792C180.472 235.182 180.7 235.474 181.038 235.67C181.383 235.873 181.744 235.922 182.121 235.824C182.498 235.71 182.789 235.475 182.977 235.117C183.173 234.76 183.22 234.385 183.118 233.995C182.513 232.256 181.366 231.077 179.685 230.459C178.217 229.931 176.71 229.752 175.162 229.931C173.592 230.134 172.045 230.451 170.514 230.882C170.145 230.963 169.777 231.053 169.4 231.118C169.212 231.159 169.022 231.191 168.833 231.216L168.614 231.256H168.427C167.673 231.378 166.909 231.418 166.14 231.386H165.898C165.733 231.353 165.566 231.313 165.401 231.272C165.236 231.223 165.073 231.175 164.916 231.11L164.83 231.078H164.76L164.635 230.996C164.486 230.915 164.35 230.818 164.209 230.736L164.052 230.597C163.927 230.475 163.818 230.346 163.701 230.224L163.501 229.899C163.431 229.785 163.376 229.663 163.314 229.541V229.508C163.227 229.281 163.157 229.053 163.103 228.826C162.977 228.362 162.888 227.891 162.802 227.42C162.684 226.501 162.49 225.599 162.215 224.713C161.65 223.153 160.801 221.779 159.678 220.584C158.547 219.389 157.238 218.478 155.745 217.861C152.612 216.454 149.377 216.162 146.055 216.991C142.285 217.951 138.961 220.193 136.047 222.827C133.259 225.371 130.945 228.363 128.487 231.232C127.277 232.663 125.983 234.003 124.601 235.263L124.104 235.686L123.839 235.906L123.784 235.946C123.407 236.238 123.012 236.555 122.603 236.799C121.826 237.32 121.012 237.775 120.164 238.157H120.125L120.035 238.19L119.699 238.328L118.937 238.596C118.45 238.767 117.958 238.905 117.463 239.035C116.434 239.295 115.403 239.49 114.367 239.644C112.349 239.929 110.353 240.319 108.374 240.807C105.06 241.742 101.67 243.627 99.8793 246.781C99.4316 247.569 99.11 248.407 98.9137 249.293C98.8038 249.691 98.8503 250.064 99.0466 250.414C99.2429 250.772 99.5258 251 99.9027 251.105C100.288 251.219 100.648 251.17 100.986 250.967C101.331 250.772 101.552 250.472 101.662 250.081C101.74 249.732 101.841 249.39 101.959 249.057C101.959 249.097 102.084 248.748 102.123 248.675C102.225 248.471 102.345 248.268 102.463 248.065C102.557 247.902 102.666 247.74 102.768 247.586L102.956 247.35C103.215 247.033 103.49 246.741 103.788 246.472C103.93 246.334 104.081 246.203 104.222 246.082L104.34 245.984L104.488 245.871C104.826 245.627 105.171 245.399 105.524 245.188C105.878 244.969 106.214 244.789 106.568 244.61L107.064 244.383L107.158 244.334L107.549 244.189C111.169 242.782 115.128 242.75 118.843 241.685C120.751 241.148 122.534 240.319 124.19 239.189C125.745 238.1 127.175 236.857 128.487 235.459C131.031 232.809 133.198 229.826 135.734 227.152C136.378 226.461 137.045 225.786 137.736 225.144C138.05 224.851 138.372 224.567 138.686 224.29L139.198 223.852L139.456 223.64L139.518 223.583L139.589 223.543C141.026 222.396 142.568 221.437 144.217 220.665L144.374 220.6L144.593 220.511L145.183 220.275C145.607 220.12 146.045 219.982 146.485 219.861C146.925 219.739 147.245 219.665 147.661 219.592C147.74 219.592 148.308 219.446 147.915 219.551C148.127 219.511 148.34 219.486 148.553 219.486C149.275 219.429 149.988 219.429 150.703 219.486L151.242 219.535H151.293L151.504 219.568C151.897 219.641 152.28 219.722 152.673 219.828C153.073 219.925 153.363 220.023 153.701 220.144L154.205 220.332L154.401 220.413H154.44L154.502 220.437C155.154 220.746 155.782 221.104 156.387 221.518L156.719 221.77L157 221.998C157.283 222.258 157.566 222.526 157.817 222.803C157.935 222.933 158.051 223.063 158.161 223.201L158.286 223.356C158.483 223.648 158.68 223.932 158.853 224.233C159.003 224.517 159.138 224.803 159.264 225.095C159.264 225.177 159.373 225.372 159.397 225.436C159.459 225.64 159.521 225.851 159.576 226.046C159.82 226.973 159.915 227.94 160.112 228.874C160.426 230.858 161.406 232.369 163.056 233.418C165.914 235.084 169.524 234.288 172.531 233.459C173.23 233.231 173.948 233.077 174.67 232.996C174.262 233.028 174.826 232.996 174.92 232.996L175.495 232.931ZM163.196 229.314C163.173 229.265 163.196 229.281 163.196 229.314V229.314ZM164.752 231.005L164.885 231.061C164.833 231.045 164.789 231.026 164.752 231.005ZM165.968 231.354H166.085C166.054 231.378 166.015 231.386 165.968 231.386V231.354Z" fill="#336B87"/>
<path d="M40.3761 181.945L40.3294 182.003C40.2747 182.051 40.2042 182.222 40.3761 181.945Z" fill="#336B87"/>
<path d="M41.3338 176.039C41.0917 176.315 41.2714 176.112 41.3338 176.039V176.039Z" fill="#336B87"/>
<path d="M37.4941 187.862C37.5098 187.749 37.5801 187.529 37.4941 187.862V187.862Z" fill="#336B87"/>
<path d="M146.173 69.9601C150.438 77.1451 154.962 84.1682 159.211 91.3616C159.815 92.3938 160.42 93.4254 161.024 94.466C161.158 94.6854 161.328 94.8643 161.548 94.9861C161.768 95.1164 162.005 95.1816 162.256 95.1816C162.507 95.1816 162.743 95.1164 162.963 94.9861C163.175 94.8643 163.354 94.6854 163.479 94.466C167.689 88.0934 171.506 81.4859 174.922 74.6338C176.563 71.4475 178.167 68.2365 179.808 65.0502C181.497 61.75 183.16 58.4665 184.511 55.0038C187.291 48.0382 188.988 40.8035 189.601 33.2932C189.915 29.7249 189.915 26.1481 189.601 22.5798C189.349 19.5561 188.609 16.6715 187.368 13.916C186.112 11.2662 184.306 9.10348 181.95 7.42908C179.186 5.51893 176.148 4.40577 172.834 4.08061C169.457 3.69048 166.26 4.3165 163.253 5.95027C161.792 6.80374 160.451 7.81976 159.218 8.99831C158.072 10.055 157.01 11.2166 156.06 12.4683C152.063 17.7029 149.786 24.3444 150.579 31.0502C151.341 37.4715 154.631 44.1686 160.411 47.1761C163.128 48.5907 166.473 49.3058 169.386 48.1027C172.732 46.7208 174.499 43.4861 175.496 40.064C176.493 36.6502 176.846 32.6265 175.668 29.0989C175.134 27.4489 174.278 26.0026 173.1 24.7509C171.93 23.4992 170.558 22.5717 168.98 21.9702C167.472 21.4256 165.93 21.32 164.367 21.6533C163.982 21.7589 163.699 21.9947 163.503 22.3523C163.307 22.71 163.268 23.0839 163.37 23.4821C163.488 23.8723 163.709 24.1656 164.054 24.3688C164.4 24.5639 164.76 24.6203 165.137 24.5146C165.2 24.5146 165.508 24.4583 165.493 24.4583H165.907C166.221 24.4501 166.527 24.4656 166.834 24.4981L167.181 24.5555C167.354 24.5961 167.517 24.6282 167.682 24.677L168.108 24.8238L168.483 24.9697C169.08 25.246 169.646 25.588 170.172 25.9944L170.446 26.2219L170.786 26.5389C171.061 26.8071 171.316 27.0912 171.56 27.3838L171.704 27.5792L171.743 27.6201C171.83 27.7582 171.915 27.8876 172.001 28.0177C172.206 28.3347 172.396 28.6687 172.56 29.0182C172.702 29.2864 172.818 29.5708 172.904 29.8553C173.046 30.278 173.17 30.7088 173.272 31.1396C173.453 31.8793 173.549 32.6351 173.565 33.3992C173.597 34.2526 173.566 35.0973 173.463 35.9426C173.463 36.0239 173.463 36.1057 173.463 36.1789C173.463 36.2032 173.463 36.2274 173.463 36.2518C173.432 36.4631 173.397 36.6663 173.358 36.8614C173.287 37.276 173.202 37.691 173.1 38.1137C172.911 38.9184 172.675 39.706 172.4 40.4782C172.337 40.6734 172.268 40.8604 172.197 41.0392V41.08L172.033 41.3319C171.852 41.7138 171.654 42.0879 171.442 42.4539C171.12 43.0795 170.706 43.6406 170.203 44.1281C170.062 44.2663 169.926 44.3961 169.777 44.518H169.746L169.582 44.6405C169.291 44.8519 168.977 45.038 168.655 45.2005L168.53 45.2666H168.483L168.018 45.429C167.688 45.5265 167.359 45.6079 167.021 45.6565H166.826C166.661 45.6565 166.498 45.6565 166.325 45.6565C165.972 45.6728 165.615 45.6557 165.262 45.6234L164.973 45.5836L164.566 45.5097C164.228 45.4364 163.887 45.3476 163.558 45.2501C163.228 45.1525 162.891 45.0221 162.569 44.8923L162.498 44.9817L162.334 44.9088C162.169 44.8355 162.006 44.7544 161.849 44.6648C161.213 44.3398 160.605 43.9579 160.032 43.535L159.734 43.2988L159.39 43.0071C159.116 42.7713 158.856 42.5183 158.612 42.2662C158.094 41.7381 157.614 41.1776 157.166 40.5842L157.127 40.5356L156.963 40.3081L156.65 39.8443C156.438 39.5354 156.248 39.243 156.06 38.8934C155.675 38.2513 155.33 37.5853 155.024 36.8945L154.836 36.4472L154.711 36.138C154.57 35.7641 154.442 35.3903 154.316 35.0083C154.081 34.2848 153.883 33.5536 153.726 32.8139C153.655 32.4644 153.593 32.1143 153.531 31.7648C153.499 31.5778 153.476 31.3911 153.445 31.196C153.445 31.0741 153.445 30.9524 153.398 30.8305C153.319 30.0746 153.28 29.3106 153.273 28.5466C153.273 27.7907 153.303 27.0265 153.374 26.2705L153.429 25.7747V25.7339L153.46 25.4655C153.523 25.0835 153.585 24.7015 153.663 24.3357C153.813 23.5799 154.003 22.8321 154.222 22.1005C154.325 21.7591 154.441 21.4177 154.559 21.0845C154.621 20.9057 154.687 20.7266 154.758 20.5478C154.789 20.4584 154.82 20.3698 154.86 20.2804V20.1657C155.441 18.7514 156.146 17.4025 156.978 16.1182C157.167 15.8256 157.365 15.5088 157.561 15.2325C157.671 15.078 157.779 14.9231 157.889 14.7687L157.96 14.6792L158.147 14.444C158.611 13.8343 159.099 13.2567 159.617 12.6958C160.135 12.135 160.639 11.6393 161.173 11.1353C161.448 10.8833 161.762 10.6319 162.021 10.3799L162.451 10.0221L162.529 9.96571L162.721 9.8189C163.334 9.33934 163.969 8.91657 164.637 8.53454C164.959 8.35569 165.28 8.19375 165.61 8.04744C165.665 8.04744 165.86 7.94118 165.899 7.92494L166.49 7.7052C167.196 7.46136 167.917 7.27521 168.655 7.14518L169.034 7.08782C169.199 7.06345 169.362 7.0467 169.527 7.03045C169.896 6.99796 170.272 6.98215 170.649 6.97406C173.609 6.91715 176.4 7.60825 179.007 9.04693C179.604 9.37205 180.169 9.73758 180.719 10.1359L181.047 10.3964L181.227 10.55C181.494 10.7776 181.746 11.0134 181.989 11.2491C182.421 11.6799 182.832 12.1352 183.217 12.6229C183.264 12.6879 183.311 12.7368 183.35 12.8018C183.429 12.9156 183.513 13.0296 183.592 13.1353C183.78 13.4197 183.963 13.7044 184.128 13.9889C184.458 14.5416 184.756 15.1023 185.023 15.6875C185.086 15.8338 185.14 15.9884 185.211 16.1347C185.234 16.1835 185.257 16.2318 185.273 16.2806C185.399 16.6057 185.515 16.9312 185.625 17.2645C186.041 18.5487 186.355 19.8736 186.567 21.2148C186.567 21.3692 186.606 21.5154 186.63 21.6698C186.63 21.7267 186.63 21.7834 186.63 21.8322C186.63 21.8647 186.63 21.8979 186.63 21.9304C186.669 22.288 186.708 22.637 186.739 23.0028C186.81 23.7831 186.853 24.5795 186.884 25.3761C186.947 27.1399 186.947 28.9124 186.884 30.6681C186.75 34.1226 186.347 37.5527 185.672 40.942C184.989 44.413 184.063 47.8105 182.9 51.143C181.769 54.3862 180.429 57.5318 178.858 60.572C177.335 63.5548 175.796 66.546 174.273 69.5372C171.029 75.9425 167.722 82.3223 163.952 88.4185C163.411 89.2962 162.845 90.1741 162.287 91.0359C158.345 84.3383 154.205 77.7712 150.176 71.1385C148.355 68.131 146.564 65.0989 144.876 62.0022C144.098 60.539 143.339 59.052 142.624 57.5482C142.278 56.8246 141.941 56.0932 141.619 55.3616L141.193 54.3699L140.959 53.8254L140.912 53.7117C140.912 53.6794 140.802 53.4348 140.794 53.4025C139.624 50.4679 138.69 47.4609 137.984 44.3721C137.623 42.7871 137.316 41.1858 137.089 39.5682L137.018 39.0558C136.992 38.839 136.974 38.7069 136.963 38.6581C136.916 38.2111 136.866 37.7635 136.819 37.3164C136.732 36.463 136.663 35.5931 136.615 34.7234C136.498 32.9596 136.498 31.1878 136.615 29.4158C136.615 29.0013 136.686 28.5955 136.733 28.2054C136.733 28.1241 136.788 27.8313 136.733 28.1402L136.772 27.8796C136.803 27.6196 136.842 27.3678 136.889 27.1077C137.038 26.2461 137.22 25.4008 137.448 24.5555C137.668 23.7183 137.928 22.8813 138.21 22.0684C138.352 21.6539 138.515 21.2475 138.672 20.8492C138.687 20.8167 138.707 20.7836 138.715 20.751C138.746 20.6941 138.769 20.6213 138.801 20.5643C138.895 20.3368 138.988 20.1256 139.082 19.9061C139.805 18.313 140.646 16.8012 141.596 15.3462C141.839 14.9886 142.083 14.6305 142.335 14.2728L142.483 14.0696L142.616 13.8907C142.648 13.8528 142.686 13.8021 142.733 13.7371L142.968 13.4357C143.502 12.753 144.068 12.095 144.641 11.4611C145.23 10.8514 145.819 10.2418 146.471 9.63223C146.785 9.3396 147.106 9.06308 147.428 8.77858L147.878 8.41301L148.05 8.2662L148.238 8.12036C149.588 7.06371 151.018 6.13722 152.518 5.34066C152.887 5.14557 153.271 4.95011 153.656 4.76314L154.246 4.50354H154.316L154.606 4.38104C155.383 4.05592 156.185 3.77158 156.994 3.51962C157.795 3.2595 158.628 3.06444 159.461 2.91001C159.838 2.79621 160.128 2.56047 160.325 2.21095C160.513 1.85331 160.56 1.47946 160.45 1.08118C160.34 0.691027 160.111 0.39866 159.774 0.195451C159.428 0.000373544 159.068 -0.0488998 158.691 0.0486391C155.212 0.820815 151.953 2.17074 148.929 4.09714C145.898 6.0235 143.267 8.42101 141.029 11.2822C136.514 16.9963 133.695 24.1654 133.664 31.5947C133.664 38.5199 134.819 45.2416 137.135 51.736C139.428 58.1007 142.695 64.1319 146.173 69.9601Z" fill="#336B87"/>
</svg>
