<svg width="70" height="70" viewBox="0 0 70 70" fill="none" xmlns="http://www.w3.org/2000/svg">
<mask id="mask0_1282_5564" style="mask-type:luminance" maskUnits="userSpaceOnUse" x="0" y="0" width="70" height="70">
<path d="M0 0H70V70H0V0Z" fill="white"/>
</mask>
<g mask="url(#mask0_1282_5564)">
<path d="M3.73837 -0.0195312L0.185547 3.59419L65.5073 70.0182L69.0602 66.4045L63.2994 60.5466H69.7968V9.45208H13.052L3.73837 -0.0195312ZM18.0762 14.5619H64.7707V46.7151L49.6963 31.3875L42.1591 39.0513L18.0762 14.5619ZM4.47498 15.1607V60.5466H49.1085L44.0825 55.4368H33.1506L38.6175 49.8793L35.0646 46.2655L32.1108 49.2691L19.5475 36.4955L9.49916 46.7151V20.2706L4.47498 15.1607ZM55.978 19.6717C55.7306 19.6717 55.485 19.6963 55.2432 19.7454C54.9995 19.7945 54.7652 19.8663 54.5364 19.9627C54.3076 20.059 54.0899 20.1761 53.8835 20.3159C53.6789 20.4557 53.4873 20.6163 53.3124 20.7938C53.1376 20.9714 52.9813 21.1641 52.8437 21.3738C52.7079 21.5834 52.5907 21.8045 52.4958 22.0368C52.4009 22.2692 52.3303 22.5091 52.2819 22.7546C52.2335 23.0021 52.2094 23.2515 52.2094 23.5027C52.2094 23.7539 52.2335 24.0033 52.2819 24.2508C52.3303 24.4982 52.4009 24.7362 52.4958 24.9686C52.5907 25.2028 52.7079 25.422 52.8437 25.6316C52.9813 25.8413 53.1376 26.034 53.3124 26.2135C53.4873 26.391 53.6789 26.5497 53.8835 26.6895C54.0899 26.8293 54.3076 26.9464 54.5364 27.0428C54.7652 27.1391 54.9995 27.2128 55.2432 27.2619C55.485 27.311 55.7306 27.3356 55.978 27.3356C56.2254 27.3356 56.4709 27.311 56.7127 27.2619C56.9564 27.2128 57.1908 27.1391 57.4196 27.0428C57.6483 26.9464 57.866 26.8293 58.0725 26.6895C58.2771 26.5497 58.4687 26.391 58.6435 26.2135C58.8184 26.034 58.9746 25.8413 59.1123 25.6316C59.248 25.422 59.3652 25.2028 59.4601 24.9686C59.555 24.7362 59.6257 24.4982 59.674 24.2508C59.7224 24.0033 59.7466 23.7539 59.7466 23.5027C59.7466 23.2515 59.7224 23.0021 59.674 22.7546C59.6257 22.5091 59.555 22.2692 59.4601 22.0368C59.3652 21.8045 59.248 21.5834 59.1123 21.3738C58.9746 21.1641 58.8184 20.9714 58.6435 20.7938C58.4687 20.6163 58.2771 20.4557 58.0725 20.3159C57.866 20.1761 57.6483 20.059 57.4196 19.9627C57.1908 19.8663 56.9564 19.7945 56.7127 19.7454C56.4709 19.6963 56.2254 19.6717 55.978 19.6717ZM49.6963 38.6112L64.7707 53.9407V55.4368H58.2752L45.712 42.6632L49.6963 38.6112ZM19.5475 43.721L28.5579 52.8828L26.0449 55.4368H9.49916V53.9407L19.5475 43.721Z" fill="#182553"/>
</g>
</svg>
