<svg width="44" height="58" viewBox="0 0 44 58" fill="none" xmlns="http://www.w3.org/2000/svg">
<g filter="url(#filter0_d_893_3914)">
<path d="M40 17.7305C40 27.5232 22 50 22 50C22 50 4 27.8778 4 18.0851C4 8.29242 12.0585 0 22 0C31.9415 0 40 7.93781 40 17.7305Z" fill="white"/>
<path d="M39.25 17.7305C39.25 19.9967 38.1936 23.1059 36.5125 26.577C34.845 30.02 32.6145 33.7173 30.3733 37.1254C28.1339 40.531 25.8932 43.6339 24.2115 45.8863C23.371 47.0121 22.6708 47.9246 22.1811 48.555C22.1154 48.6397 22.0534 48.7192 21.9954 48.7936C21.9391 48.7224 21.879 48.6465 21.8154 48.5658C21.3259 47.9451 20.6257 47.0466 19.7853 45.9374C18.1038 43.7184 15.8633 40.66 13.6242 37.299C11.3833 33.9354 9.15329 30.2828 7.48626 26.8736C5.80572 23.4368 4.75 20.3502 4.75 18.0851C4.75 8.698 12.4813 0.75 22 0.75C31.538 0.75 39.25 8.36265 39.25 17.7305Z" stroke="#1B2636" stroke-width="1.5"/>
</g>
<defs>
<filter id="filter0_d_893_3914" x="0" y="0" width="44" height="58" filterUnits="userSpaceOnUse" color-interpolation-filters="sRGB">
<feFlood flood-opacity="0" result="BackgroundImageFix"/>
<feColorMatrix in="SourceAlpha" type="matrix" values="0 0 0 0 0 0 0 0 0 0 0 0 0 0 0 0 0 0 127 0" result="hardAlpha"/>
<feOffset dy="4"/>
<feGaussianBlur stdDeviation="2"/>
<feComposite in2="hardAlpha" operator="out"/>
<feColorMatrix type="matrix" values="0 0 0 0 0 0 0 0 0 0 0 0 0 0 0 0 0 0 0.25 0"/>
<feBlend mode="normal" in2="BackgroundImageFix" result="effect1_dropShadow_893_3914"/>
<feBlend mode="normal" in="SourceGraphic" in2="effect1_dropShadow_893_3914" result="shape"/>
</filter>
</defs>
</svg>
