<svg width="18" height="18" viewBox="0 0 18 18" fill="none" xmlns="http://www.w3.org/2000/svg">
<g clip-path="url(#clip0_1323_1854)">
<path d="M15.5 7.55566C15.5 12.6112 9 16.9446 9 16.9446C9 16.9446 2.5 12.6112 2.5 7.55566C2.5 5.83176 3.18482 4.17846 4.40381 2.95947C5.62279 1.74048 7.27609 1.05566 9 1.05566C10.7239 1.05566 12.3772 1.74048 13.5962 2.95947C14.8152 4.17846 15.5 5.83176 15.5 7.55566Z" stroke="#2862E8" stroke-linecap="round" stroke-linejoin="round"/>
<path d="M9 9.72233C10.1966 9.72233 11.1667 8.75228 11.1667 7.55566C11.1667 6.35905 10.1966 5.389 9 5.389C7.80338 5.389 6.83333 6.35905 6.83333 7.55566C6.83333 8.75228 7.80338 9.72233 9 9.72233Z" stroke="#2862E8" stroke-linecap="round" stroke-linejoin="round"/>
</g>
<defs>
<clipPath id="clip0_1323_1854">
<rect width="17.3333" height="17.3333" fill="white" transform="translate(0.333984 0.333008)"/>
</clipPath>
</defs>
</svg>
