<svg width="160" height="70" viewBox="0 0 160 70" fill="none" xmlns="http://www.w3.org/2000/svg">
<mask id="mask0_546_3110" style="mask-type:alpha" maskUnits="userSpaceOnUse" x="0" y="4" width="68" height="66">
<path d="M67.1388 4.16406H0V70H67.1388V4.16406Z" fill="black"/>
</mask>
<g mask="url(#mask0_546_3110)">
<mask id="mask1_546_3110" style="mask-type:alpha" maskUnits="userSpaceOnUse" x="10" y="18" width="49" height="40">
<path d="M10.0957 18.7939H58.0527V57.4595H10.0957V18.7939Z" fill="black"/>
</mask>
<g mask="url(#mask1_546_3110)">
<mask id="mask2_546_3110" style="mask-type:alpha" maskUnits="userSpaceOnUse" x="0" y="4" width="67" height="66">
<path d="M66.8819 48.6343L17.8314 69.4265L0.326172 25.1829L49.3777 4.39062L66.8819 48.6343Z" fill="black"/>
</mask>
<g mask="url(#mask2_546_3110)">
<mask id="mask3_546_3110" style="mask-type:alpha" maskUnits="userSpaceOnUse" x="0" y="4" width="67" height="66">
<path d="M66.8819 48.6343L17.8314 69.4265L0.326172 25.1829L49.3777 4.39062L66.8819 48.6343Z" fill="black"/>
</mask>
<g mask="url(#mask3_546_3110)">
<mask id="mask4_546_3110" style="mask-type:alpha" maskUnits="userSpaceOnUse" x="0" y="4" width="67" height="66">
<path d="M66.8819 48.6343L17.8314 69.4265L0.326172 25.1829L49.3777 4.39062L66.8819 48.6343Z" fill="black"/>
</mask>
<g mask="url(#mask4_546_3110)">
<path d="M28.1151 55.693C19.141 52.3253 2.24606 29.9431 15.0871 21.1768C23.7694 15.2456 25.1533 24.7444 37.0616 32.182C41.0073 34.6415 60.3021 32.0944 57.4685 44.7611C55.7864 52.266 39.8538 60.0915 28.1151 55.693Z" fill="#7EB4EA" fill-opacity="0.5"/>
</g>
</g>
</g>
</g>
</g>
<mask id="mask5_546_3110" style="mask-type:alpha" maskUnits="userSpaceOnUse" x="11" y="4" width="60" height="61">
<path d="M11.9375 4.09375H70.3625V64.8127H11.9375V4.09375Z" fill="black"/>
</mask>
<g mask="url(#mask5_546_3110)">
<path d="M58.5302 10.488C58.4514 10.4248 58.3608 10.3983 58.2622 10.4126C58.1617 10.4269 58.0809 10.4737 58.0217 10.5574C57.9606 10.6411 57.9382 10.7351 57.954 10.8372C57.9698 10.9413 58.0194 11.0228 58.1022 11.082C65.2425 16.5785 69.3953 25.0346 69.5037 34.2825C69.5412 37.3502 69.1238 40.3504 68.2561 43.2834C67.706 44.01 67.1591 44.7367 66.5932 45.447C65.9543 46.2675 65.2781 47.0492 64.5603 47.7942C64.3987 47.9595 64.2332 48.1208 64.0636 48.2759C63.9808 48.3514 63.8981 48.4249 63.8153 48.4963L63.6474 48.6353C63.6848 48.6027 63.6377 48.6351 63.6258 48.6494C63.2176 48.9719 62.7776 49.2496 62.3556 49.5537C61.8961 49.868 61.4826 50.2355 61.1138 50.658C60.7589 51.0866 60.5098 51.5703 60.3658 52.1152C60.2298 52.6398 60.2005 53.1702 60.2775 53.707C60.3563 54.2438 60.5315 54.744 60.8095 55.2053C60.8845 55.3216 60.9652 55.4318 61.0481 55.54C59.7426 56.8809 58.323 58.0771 56.7888 59.1282C55.2566 60.1814 53.6404 61.0692 51.9386 61.7937C50.237 62.5183 48.4835 63.0635 46.6772 63.4329C44.8729 63.8003 43.0513 63.9838 41.2115 63.9817H41.1614C39.3434 63.9899 37.5413 63.8165 35.7547 63.4614C33.9682 63.1083 32.2313 62.5795 30.5433 61.8774C28.8554 61.1753 27.2478 60.312 25.7216 59.2896C24.1953 58.2649 22.7775 57.0993 21.4702 55.791C21.6851 55.4032 21.8505 54.993 21.9649 54.5623C22.0812 54.1317 22.1445 53.6928 22.1524 53.2458C22.1622 52.799 22.1175 52.3559 22.0189 51.9211C21.9223 51.4864 21.7724 51.0701 21.5732 50.6721C21.1769 49.8863 20.5491 49.2963 19.9575 48.6738C19.8096 48.5207 19.6763 48.3679 19.5462 48.2168L19.4569 48.1025L19.447 48.0923C19.4332 48.076 19.4216 48.0575 19.4097 48.0391C19.3526 47.9595 19.2971 47.8779 19.2478 47.7922C19.1985 47.7126 19.1557 47.6309 19.1143 47.5452L19.0848 47.4758C19.0671 47.4289 19.0486 47.3801 19.0328 47.3311C19.0052 47.2433 18.9838 47.1512 18.9661 47.0593C18.9661 47.041 18.9582 47.0166 18.9562 46.9941V46.9758C18.9562 46.9268 18.9563 46.8778 18.9484 46.8247C18.9484 46.7451 18.9483 46.6717 18.9582 46.5859C18.9582 46.5914 18.9582 46.5954 18.9582 46.5981C18.9621 46.5777 18.966 46.5553 18.968 46.5349C18.968 46.4941 18.9837 46.4512 18.9935 46.4104C19.0113 46.3349 19.0307 46.2595 19.0564 46.186C19.0702 46.1472 19.0848 46.1084 19.0986 46.0676L19.1202 46.0166C19.2621 45.7063 19.4334 45.4164 19.6345 45.145C19.6483 45.1266 19.662 45.1082 19.6738 45.0898L19.7455 44.9961L19.9163 44.7795C20.0267 44.6387 20.1376 44.5042 20.2461 44.3633C20.4768 44.0776 20.6899 43.7775 20.8832 43.4612C21.2618 42.8121 21.4525 42.0344 21.2199 41.2935C20.9418 40.422 20.2102 39.7975 19.4372 39.4077C18.5163 38.9689 17.5521 38.7238 16.5405 38.6748C15.5131 38.6095 14.5079 38.7299 13.522 39.0381C13.3938 39.0769 13.2673 39.1219 13.1431 39.1689C12.9321 37.7361 12.8212 36.297 12.8113 34.8479C12.7837 31.4047 13.3267 28.0614 14.4369 24.8162C14.5986 24.3631 14.8486 23.9733 15.1937 23.6467C15.5368 23.3222 15.9328 23.0957 16.3824 22.9712C17.5833 22.6242 18.4871 22.6201 18.9229 22.9712C19.1634 23.1589 19.2792 23.4671 19.2792 23.9121C19.2792 25.3653 18.6363 26.7572 17.9501 28.2349C17.2639 29.7106 16.5542 31.2557 16.5542 32.8762C16.5542 33.758 16.6369 34.695 17.2502 34.9583C18.0922 35.3196 19.2674 34.301 22.6079 30.8435C24.5403 28.8432 26.4099 28.3961 27.9125 28.0308C29.6281 27.6185 31.1113 27.2655 31.6142 24.7979C32.0717 22.5589 31.2865 20.4055 30.5943 18.5032C29.9259 16.6683 29.297 14.9437 29.865 13.4558C30.4901 11.8169 31.1797 11.1331 31.7713 10.678C32.0789 10.4494 32.3435 10.1738 32.5664 9.85742C32.7911 9.53902 32.9604 9.19415 33.0768 8.8186C33.1931 8.44509 33.2506 8.06131 33.2486 7.66943C33.2467 7.27551 33.1854 6.89377 33.065 6.52026C35.5023 5.77323 37.9914 5.37111 40.5312 5.31396H40.5411C40.8368 5.31396 41.116 5.3058 41.4039 5.31396C41.5025 5.31396 41.5881 5.27725 41.6572 5.20581C41.7281 5.13233 41.7632 5.04663 41.7632 4.94458C41.7632 4.84253 41.7281 4.75487 41.6572 4.6814C41.5881 4.60996 41.5025 4.57324 41.4039 4.57324H41.0888C39.0992 4.57528 37.1316 4.78535 35.1853 5.20581C33.2371 5.62422 31.3513 6.24469 29.5273 7.06519C27.7033 7.88569 25.978 8.88984 24.3532 10.0757C22.7283 11.2636 21.2376 12.6088 19.879 14.113C19.81 14.1865 19.7769 14.2764 19.7808 14.3784C19.7828 14.4825 19.8197 14.5682 19.8927 14.6396C19.9657 14.709 20.0523 14.7416 20.1509 14.7375C20.2514 14.7334 20.3341 14.6927 20.4012 14.6172C22.0418 12.7986 23.8741 11.2208 25.9012 9.88599C27.9302 8.55115 30.0856 7.50011 32.373 6.73267C32.4697 7.03066 32.5212 7.33867 32.5252 7.65503C32.5271 7.9714 32.4814 8.27972 32.3887 8.58179C32.296 8.88183 32.1578 9.16136 31.9784 9.4165C31.799 9.67162 31.5859 9.89214 31.3374 10.0779C30.665 10.5922 29.8847 11.3637 29.1926 13.1782C28.5241 14.9315 29.2002 16.7908 29.918 18.7583C30.6081 20.6524 31.3225 22.6098 30.9084 24.6365C30.4982 26.6368 29.4602 26.8877 27.7427 27.3C26.1533 27.6858 24.1738 28.1615 22.0974 30.3108C20.4864 31.9762 18.0555 34.4929 17.5172 34.2664C17.4738 34.248 17.262 34.0948 17.262 32.8682C17.262 31.415 17.9049 30.023 18.5911 28.5452C19.2773 27.0696 19.9899 25.5244 19.9899 23.9038C19.9899 23.2221 19.7748 22.7057 19.3508 22.373C18.7139 21.873 17.6473 21.8343 16.1841 22.2588C15.6241 22.418 15.1308 22.7018 14.7029 23.1121C14.2769 23.5203 13.9636 24.0078 13.7664 24.5732C13.5712 25.1385 13.3931 25.7081 13.2314 26.2837C13.0697 26.8613 12.9238 27.4411 12.7956 28.0269C12.6674 28.6107 12.5555 29.1984 12.4628 29.7903C12.3682 30.3822 12.2913 30.9761 12.2302 31.5742C12.171 32.1701 12.1272 32.7682 12.1016 33.3662C12.0779 33.9663 12.0682 34.5662 12.078 35.1643C12.0879 35.7643 12.1142 36.3644 12.1595 36.9624C12.2029 37.5604 12.2632 38.1565 12.3421 38.7505C12.421 39.3444 12.5163 39.9361 12.6287 40.5239C12.7431 41.1118 12.8705 41.6956 13.0184 42.2773C13.1643 42.8569 13.3288 43.4325 13.5083 44.002C13.6877 44.5714 13.8843 45.1369 14.0953 45.6941C14.3082 46.2533 14.5369 46.8043 14.7814 47.3472C15.0259 47.8902 15.2848 48.427 15.5608 48.9536C15.8369 49.4823 16.1269 50.0007 16.4325 50.511C16.7381 51.0212 17.0573 51.5212 17.3906 52.011C17.7258 52.5009 18.0732 52.9786 18.436 53.448C18.7968 53.9154 19.1734 54.3726 19.5619 54.8176C19.9504 55.2625 20.3503 55.6952 20.7644 56.1157C21.1765 56.5361 21.6027 56.9423 22.0405 57.3362C22.4762 57.7301 22.924 58.1096 23.3833 58.4771C23.8428 58.8424 24.3118 59.1936 24.791 59.5303C25.2701 59.8691 25.7596 60.1896 26.2565 60.4978C26.7554 60.8039 27.2614 61.0936 27.7761 61.3691C28.2907 61.6446 28.8133 61.904 29.3418 62.147C29.8722 62.3898 30.4093 62.6165 30.9516 62.8267C31.4939 63.0369 32.0436 63.2286 32.5978 63.4041C33.1499 63.5797 33.7104 63.7388 34.2724 63.8796C34.8363 64.0204 35.4017 64.1429 35.9736 64.249C36.5434 64.3551 37.1157 64.4431 37.6914 64.5146C38.2673 64.584 38.8452 64.6369 39.423 64.6716C40.0008 64.7063 40.5798 64.7227 41.1595 64.7227H41.2115C42.1698 64.7207 43.1254 64.6696 44.0778 64.5696C45.0322 64.4695 45.9771 64.3227 46.9177 64.1267C47.8563 63.9288 48.7836 63.6859 49.7006 63.394C50.6155 63.1022 51.5166 62.7654 52.4 62.3816C53.2834 61.9979 54.1466 61.5714 54.9885 61.0979C55.8306 60.6264 56.6489 60.112 57.4436 59.5569C58.2362 59.0017 59.0011 58.4057 59.7386 57.7729C60.4761 57.1381 61.1805 56.4687 61.853 55.7625C62.5254 55.0563 63.1647 54.3174 63.7662 53.5459C64.3696 52.7744 64.933 51.9745 65.4575 51.1458C65.984 50.3151 66.4696 49.4617 66.9132 48.582C67.3569 47.7043 67.7588 46.8044 68.1157 45.886C68.4746 44.9654 68.7879 44.0285 69.0561 43.0774C69.3243 42.1242 69.5471 41.1608 69.7246 40.1873C69.9001 39.2116 70.0305 38.2298 70.1133 37.2419C70.1961 36.2541 70.2311 35.2645 70.2193 34.2725C70.1089 24.7919 65.8499 16.1234 58.5302 10.488ZM13.2628 39.9199C13.6434 39.7729 14.0307 39.6567 14.427 39.571C14.5434 39.5465 14.6611 39.5238 14.7794 39.5034L14.9669 39.4749H14.9768L15.1073 39.4587C15.3459 39.4322 15.5843 39.4158 15.8249 39.4097C16.0655 39.4036 16.3254 39.4097 16.5778 39.426C16.6961 39.4342 16.8148 39.4444 16.9351 39.4587L17.0735 39.4749L17.1324 39.4851L17.2286 39.4995C17.7117 39.5771 18.1817 39.6996 18.6431 39.8669L18.7903 39.926L18.862 39.9565C18.9606 39.9973 19.055 40.0445 19.1496 40.0935C19.3271 40.1853 19.5003 40.2914 19.664 40.4077C19.7034 40.4383 19.7453 40.4649 19.7828 40.4976L19.8456 40.5486C19.9264 40.6201 20.0053 40.6934 20.0782 40.771C20.1394 40.8322 20.1968 40.8975 20.25 40.969C20.2402 40.9567 20.2342 40.9506 20.25 40.9812L20.2932 41.0466C20.3228 41.0895 20.35 41.1343 20.3757 41.1792C20.4013 41.2241 20.4256 41.2691 20.4473 41.3181C20.4572 41.3324 20.463 41.3487 20.4709 41.365C20.4709 41.3691 20.4709 41.3731 20.4709 41.3772C20.5162 41.469 20.5435 41.569 20.5573 41.6711C20.5691 41.7099 20.5769 41.7507 20.5808 41.7915V41.812C20.5828 41.8324 20.5828 41.8528 20.5808 41.8733C20.5867 41.9549 20.5867 42.0386 20.5808 42.1223C20.5808 42.1549 20.5532 42.2976 20.5808 42.1711C20.5729 42.2058 20.571 42.2404 20.5631 42.2751C20.5533 42.3568 20.5397 42.4386 20.5219 42.5203C20.5002 42.5876 20.4769 42.6508 20.4532 42.7161L20.4296 42.7671L20.3737 42.8835C20.2968 43.0325 20.2141 43.1774 20.1214 43.3162C20.078 43.3815 20.0353 43.447 19.9879 43.5103C19.9643 43.545 19.9399 43.5774 19.9163 43.6101C19.9005 43.6264 19.8888 43.6469 19.875 43.6653C19.666 43.9388 19.447 44.204 19.236 44.4775C18.814 45.0245 18.3845 45.6288 18.2642 46.335C18.1912 46.7473 18.2146 47.1494 18.3408 47.5474C18.4867 47.9596 18.6979 48.3331 18.9739 48.6658C19.2342 48.9801 19.5066 49.2802 19.7965 49.5659C19.9444 49.717 20.0825 49.8576 20.2206 50.0107C20.2837 50.0801 20.346 50.1516 20.4051 50.2231L20.5062 50.3455L20.5416 50.3884L20.5651 50.4211C20.6893 50.5926 20.8003 50.7701 20.9008 50.9558C20.9462 51.0415 20.989 51.1314 21.0304 51.2192C21.0501 51.2682 21.0725 51.313 21.0903 51.3599L21.1315 51.4661C21.2045 51.6661 21.2638 51.8702 21.3111 52.0784C21.3328 52.1743 21.3503 52.2725 21.3681 52.3704C21.3681 52.4174 21.3857 52.4683 21.3916 52.5234C21.3916 52.5622 21.3975 52.5989 21.4034 52.6357C21.4231 52.8439 21.4309 53.0499 21.427 53.2581C21.427 53.3622 21.4192 53.4665 21.4093 53.5645C21.4093 53.6216 21.3995 53.6785 21.3936 53.7336C21.3936 53.7608 21.3936 53.7779 21.3936 53.7847C21.3936 53.7949 21.3936 53.8172 21.3857 53.8315C21.3542 54.0397 21.3104 54.2438 21.2552 54.4438C21.2256 54.5438 21.1964 54.642 21.161 54.74L21.1021 54.8931L21.0618 54.9871C21.0224 55.0728 20.9815 55.1562 20.9362 55.2419C18.9386 53.1478 17.2844 50.7966 15.977 48.1841C14.6697 45.5695 13.7637 42.8161 13.2628 39.9199ZM61.1845 54.3521L61.1943 54.3787C61.1884 54.3706 61.1865 54.3603 61.1845 54.3501V54.3521ZM61.5575 55.0176L61.5094 54.9502C61.4739 54.9012 61.4428 54.8502 61.4113 54.7971C61.3482 54.6931 61.2907 54.587 61.2395 54.4788L61.2002 54.3889C61.1766 54.3277 61.1552 54.2664 61.1335 54.2051C61.0961 54.0908 61.0619 53.9746 61.0363 53.8562C61.0244 53.8011 61.0128 53.746 61.0029 53.6909C61.0029 53.6582 60.9932 53.6276 60.9892 53.595C60.9832 53.5644 60.9892 53.5705 60.9892 53.5664C60.9754 53.446 60.9675 53.3234 60.9656 53.2009C60.9617 53.0785 60.9655 52.958 60.9774 52.8376C60.9774 52.8049 60.9774 52.7703 60.9872 52.7397V52.7253C61.0049 52.662 61.0147 52.5988 61.0186 52.5315C61.0423 52.4131 61.0724 52.2948 61.106 52.1785C61.1218 52.1275 61.1393 52.0744 61.159 52.0254C61.1788 51.9785 61.1825 51.9642 61.1924 51.9336C61.1989 51.9132 61.1957 51.9213 61.1825 51.958C61.1885 51.9396 61.1943 51.9234 61.2041 51.907C61.2534 51.7968 61.307 51.6886 61.3681 51.5845C61.3976 51.5315 61.4288 51.4803 61.4623 51.4314L61.5114 51.3579L61.5477 51.3069C61.7054 51.1007 61.8786 50.9129 62.0699 50.7395C62.1665 50.6517 62.2649 50.5679 62.3654 50.4863L62.387 50.468L62.4704 50.4048L62.6255 50.2864C63.0475 49.9803 63.4895 49.6944 63.9075 49.3801C64.2645 49.1066 64.602 48.8108 64.9235 48.4924C65.6275 47.7841 66.2902 47.035 66.9113 46.2451C67.1282 45.9757 67.3403 45.7022 67.5533 45.4307C66.167 49.0372 64.1703 52.2314 61.5575 55.0134V55.0176Z" fill="#336B87"/>
</g>
<path d="M40.7038 28.6883C40.9148 29.37 41.3235 29.8864 41.9249 30.2395C42.2523 30.4191 42.6006 30.5274 42.9694 30.5601C43.3381 30.5948 43.6991 30.5539 44.0521 30.4375C44.7423 30.2191 45.3573 29.8639 45.8975 29.368C46.0179 29.5006 46.1444 29.6333 46.2745 29.7578C46.8207 30.3151 47.4698 30.6803 48.2191 30.8538C49.0394 31.0232 49.8733 30.9335 50.7016 30.8743C51.4488 30.807 52.1943 30.8396 52.9358 30.9702C54.3654 31.254 55.6987 31.948 56.6531 33.0992C57.1126 33.6421 57.4531 34.2564 57.674 34.9422C57.8968 35.6259 57.9835 36.3301 57.9342 37.0506C57.9046 37.3792 57.8422 37.7016 57.7477 38.0179C57.6589 38.3261 57.5382 38.62 57.3903 38.9016C57.0827 39.4956 56.6925 40.0222 56.2193 40.4815C55.7421 40.9611 55.2136 41.3693 54.634 41.7061C54.0167 42.0694 53.3677 42.3573 52.6874 42.5696C51.0823 43.0839 49.4043 43.2735 47.74 43.4756C46.1842 43.6634 44.6202 43.8696 43.1156 44.3452C41.6801 44.8044 40.3002 45.5044 39.2117 46.5923C38.074 47.723 37.3361 49.211 36.1726 50.3152C35.6639 50.8255 35.0723 51.1888 34.3998 51.4092C34.0705 51.5133 33.7348 51.5459 33.3937 51.5132C33.3641 51.5112 33.3349 51.5093 33.3053 51.5032L33.1856 51.4785C33.0968 51.4582 33.0112 51.4338 32.9284 51.4012C32.7963 51.344 32.6805 51.2664 32.576 51.1663C32.5227 51.1174 32.479 51.0623 32.4435 50.9991C32.408 50.9399 32.3749 50.8766 32.3473 50.8113C32.3177 50.7276 32.2914 50.6418 32.2737 50.554C32.2559 50.4826 32.2462 50.4111 32.2403 50.3396C32.2245 50.16 32.2245 49.9806 32.2403 49.803C32.2403 49.7642 32.2481 49.7254 32.2521 49.6866C32.2521 49.6764 32.252 49.6356 32.2638 49.6233C32.2757 49.5458 32.2903 49.4703 32.308 49.3907C32.3415 49.2356 32.3824 49.0824 32.4317 48.9314C32.4573 48.8579 32.4836 48.7782 32.5132 48.7129C32.5132 48.7047 32.5132 48.6988 32.5132 48.6907L32.523 48.668C32.5388 48.6313 32.5543 48.5906 32.5721 48.5518C32.7022 48.266 32.854 47.9926 33.0256 47.7293C33.1104 47.5946 33.2009 47.4638 33.2955 47.3352C33.3724 47.225 33.4433 47.1293 33.5537 46.9925C33.7568 46.7333 33.968 46.4822 34.1809 46.2271C34.6108 45.723 35.0528 45.2249 35.4551 44.6983C36.3641 43.5757 36.9159 42.2879 37.1111 40.8367C37.3339 39.357 37.2674 37.8588 37.2122 36.3689C37.1826 35.6259 37.1581 34.883 37.1719 34.138C37.1818 33.7726 37.1983 33.4092 37.2318 33.0459C37.2614 32.7051 37.31 32.3684 37.3791 32.0357C37.5033 31.3662 37.7144 30.7273 38.0161 30.1211C38.0634 30.0334 38.0751 29.9396 38.0495 29.8416C38.0239 29.7436 37.9713 29.6681 37.8885 29.615C37.8037 29.564 37.7122 29.5516 37.6176 29.5782C37.521 29.6027 37.4499 29.6598 37.3987 29.7476C36.7046 31.1151 36.4918 32.6541 36.4622 34.1829C36.4326 35.7137 36.5752 37.2422 36.5574 38.771C36.5594 39.5099 36.502 40.2427 36.3817 40.9693C36.2575 41.6816 36.0327 42.3572 35.7093 42.9981C35.0862 44.2064 34.1475 45.1331 33.2798 46.1883C32.4122 47.2456 31.641 48.4151 31.5227 49.8316C31.4557 50.6439 31.6884 51.5255 32.4101 51.9541C33.0963 52.3623 33.9912 52.3217 34.7228 52.0747C36.2924 51.542 37.3317 50.1765 38.2861 48.8621C38.7554 48.1722 39.2838 47.5375 39.8694 46.9517C40.4235 46.4435 41.0336 46.023 41.7021 45.6944C43.0331 45.0168 44.5628 44.6615 46.0517 44.4309C47.7711 44.1635 49.5122 44.0452 51.2238 43.6983C52.7718 43.3839 54.2964 42.8676 55.6058 41.9368C56.7889 41.1041 57.7747 39.9855 58.3032 38.5996C58.8612 37.1321 58.735 35.5035 58.1059 34.085C57.7746 33.3625 57.3309 32.7214 56.7768 32.1621C56.2227 31.6029 55.5922 31.16 54.8843 30.8355C54.1429 30.4906 53.3673 30.2661 52.5588 30.1641C51.7543 30.0559 50.9575 30.113 50.1509 30.1722C49.7289 30.2109 49.3056 30.2192 48.8817 30.1988C48.6904 30.1886 48.5026 30.1619 48.3153 30.117C48.2246 30.0966 48.136 30.0721 48.0473 30.0435L47.8991 29.9905L47.8009 29.9497C47.2705 29.6865 46.8131 29.3251 46.4286 28.8638C46.8801 28.4046 47.3043 27.9169 47.7381 27.4556C48.233 26.8943 48.8042 26.435 49.451 26.0799C49.5358 26.0268 49.5913 25.9513 49.6149 25.8533C49.6406 25.7553 49.6289 25.6615 49.5816 25.5738C49.5283 25.486 49.4553 25.4309 49.3607 25.4043C49.266 25.3778 49.1756 25.39 49.0908 25.439C47.805 26.1003 46.9611 27.3187 45.9535 28.3311C45.5769 27.8555 45.1565 27.4249 44.6931 27.0391C44.1548 26.6289 43.5534 26.382 42.8889 26.3003C42.5754 26.2513 42.2679 26.2719 41.9642 26.3658C41.6605 26.4596 41.392 26.6166 41.1553 26.835C40.9187 27.0758 40.7591 27.3616 40.6783 27.6963C40.5955 28.029 40.6052 28.3597 40.7038 28.6883ZM41.6785 29.0537C41.649 29.017 41.6726 29.0476 41.6785 29.0537V29.0537ZM41.3428 27.9739C41.3428 27.9964 41.3428 27.9964 41.3428 27.9739V27.9739ZM41.3428 28.0127C41.3448 27.9984 41.3448 27.9842 41.3428 27.972C41.3566 27.9066 41.3702 27.8432 41.388 27.782C41.388 27.7636 41.4017 27.7453 41.4076 27.7249C41.4135 27.7045 41.4399 27.6597 41.4577 27.625L41.5087 27.5371L41.5421 27.4883C41.5855 27.4332 41.6312 27.3822 41.6805 27.3352C41.6963 27.3189 41.7138 27.3024 41.7335 27.2881L41.7747 27.2556C41.8339 27.2148 41.8952 27.1779 41.9583 27.1473C41.9721 27.1473 41.9975 27.1291 42.0054 27.125L42.0682 27.1026C42.1373 27.0801 42.2064 27.0615 42.2773 27.0452L42.3451 27.033H42.3981C42.473 27.0269 42.5479 27.0229 42.6229 27.0249C42.6879 27.0249 42.7532 27.0249 42.8182 27.0371H42.8771L42.987 27.0555C43.133 27.0861 43.277 27.1249 43.417 27.1739C43.48 27.1963 43.5394 27.2189 43.6006 27.2454L43.6712 27.2759L43.7822 27.3311C43.9183 27.4005 44.0486 27.478 44.1728 27.5638C44.2261 27.6005 44.2785 27.6391 44.3299 27.68L44.3878 27.7271L44.4762 27.8067C44.6043 27.9251 44.7289 28.0516 44.8492 28.1802C45.0444 28.3884 45.2312 28.6067 45.4166 28.823C44.9749 29.221 44.4766 29.5149 43.9206 29.7088C43.5913 29.817 43.2536 29.8539 42.9085 29.8233H42.8692L42.7681 29.8028C42.6911 29.7864 42.6143 29.762 42.5394 29.7334L42.4845 29.7129L42.4079 29.6763C42.3349 29.6375 42.2658 29.5966 42.1968 29.5537C42.1436 29.517 42.09 29.4803 42.0368 29.4395C42.0269 29.4293 41.9877 29.3946 41.9799 29.3885C41.9483 29.3619 41.9191 29.3333 41.8916 29.3047C41.8403 29.2578 41.7906 29.2068 41.7433 29.1516C41.7196 29.1231 41.6964 29.0924 41.6727 29.0618L41.6304 29.0069C41.595 28.9497 41.558 28.8905 41.5244 28.8313C41.5067 28.7966 41.4892 28.7598 41.4714 28.7251C41.4714 28.7129 41.4469 28.674 41.441 28.6597C41.3917 28.5352 41.3586 28.4087 41.3369 28.2781C41.3369 28.2659 41.3369 28.2433 41.3369 28.229C41.3369 28.2168 41.3369 28.1657 41.3369 28.1331C41.3369 28.1004 41.3389 28.0495 41.3409 28.0127H41.3428Z" fill="#336B87"/>
<path d="M54.1645 58.4901C54.2571 58.4901 54.3496 58.4901 54.4423 58.4901C54.5192 58.486 54.5941 58.492 54.669 58.5042H54.6926L54.7397 58.5145C54.7889 58.5247 54.8366 58.5371 54.8879 58.5513C54.9273 58.5615 54.9653 58.5737 55.0028 58.588H55.0165L55.046 58.6024C55.0814 58.6187 55.1145 58.6391 55.1461 58.6595L55.1932 58.6922C55.2228 58.7167 55.251 58.7432 55.2766 58.7718L55.3061 58.8043C55.3238 58.8349 55.3433 58.8637 55.3591 58.8963C55.3769 58.929 55.3768 58.931 55.3846 58.9473C55.3846 58.9514 55.3846 58.9533 55.3846 58.9573C55.4143 59.0553 55.4717 59.1288 55.5564 59.1778C55.6431 59.2288 55.7337 59.2411 55.8283 59.2166C55.923 59.188 55.996 59.1289 56.0433 59.0391C56.0926 58.9493 56.1042 58.8554 56.0786 58.7574C55.9267 58.3206 55.6387 58.0246 55.2168 57.8695C54.848 57.7368 54.4695 57.692 54.081 57.7369C53.6867 57.7879 53.2984 57.8675 52.9139 57.9757C52.8212 57.9961 52.7288 58.0187 52.6341 58.035C52.5868 58.0452 52.539 58.0533 52.4918 58.0594L52.4368 58.0697H52.3897C52.2004 58.1003 52.0086 58.1103 51.8154 58.1021H51.7546C51.7132 58.094 51.6713 58.0838 51.6299 58.0736C51.5885 58.0613 51.5476 58.0491 51.5082 58.0328L51.4866 58.0247H51.4689L51.4375 58.0042C51.4 57.9838 51.366 57.9594 51.3305 57.939L51.2913 57.9041C51.2597 57.8735 51.2325 57.841 51.2029 57.8104L51.1529 57.7288C51.1352 57.7003 51.1214 57.6696 51.1057 57.639V57.6307C51.084 57.5735 51.0665 57.5165 51.0527 57.4593C51.0212 57.343 50.9989 57.2246 50.9771 57.1063C50.9476 56.8756 50.899 56.6491 50.8299 56.4266C50.688 56.0347 50.4748 55.6898 50.1928 55.3897C49.9089 55.0897 49.58 54.861 49.2053 54.7059C48.4186 54.3528 47.6061 54.2794 46.7719 54.4876C45.8254 54.7285 44.9905 55.2917 44.2589 55.953C43.5589 56.5918 42.9777 57.3431 42.3605 58.0636C42.0568 58.4228 41.7318 58.7594 41.3848 59.0758L41.2601 59.182L41.1933 59.2371L41.1796 59.2471C41.085 59.3206 40.9857 59.4003 40.8832 59.4615C40.6879 59.5921 40.4836 59.7064 40.2706 59.8023H40.2608L40.2382 59.8106L40.1538 59.8453L39.9624 59.9127C39.8401 59.9555 39.7166 59.9901 39.5923 60.0228C39.334 60.0881 39.0752 60.1371 38.8149 60.1759C38.3081 60.2473 37.807 60.3454 37.3101 60.4678C36.4779 60.7026 35.6266 61.1759 35.177 61.9678C35.0646 62.1658 34.9838 62.3762 34.9345 62.5987C34.9069 62.6987 34.9186 62.7924 34.9679 62.8802C35.0172 62.97 35.0882 63.0273 35.1829 63.0538C35.2795 63.0824 35.37 63.0701 35.4548 63.0191C35.5416 62.9701 35.597 62.8947 35.6246 62.7967C35.6443 62.709 35.6696 62.6231 35.6992 62.5394C35.6992 62.5496 35.7306 62.4618 35.7405 62.4434C35.7661 62.3924 35.7963 62.3414 35.8259 62.2904C35.8495 62.2495 35.8768 62.2088 35.9024 62.17L35.9495 62.1109C36.0146 62.0313 36.0837 61.9578 36.1586 61.8905C36.1941 61.8558 36.2321 61.8229 36.2676 61.7923L36.297 61.7679L36.3343 61.7393C36.4191 61.6781 36.5057 61.621 36.5945 61.5679C36.6832 61.5128 36.7678 61.4678 36.8566 61.4229L36.9812 61.3658L37.0048 61.3536L37.1029 61.317C38.012 60.9639 39.0061 60.9557 39.9388 60.6883C40.418 60.5536 40.8656 60.3453 41.2817 60.0616C41.6721 59.7881 42.0312 59.4759 42.3605 59.1248C42.9994 58.4595 43.5435 57.7104 44.1804 57.0389C44.3421 56.8654 44.5095 56.696 44.683 56.5347C44.7619 56.4613 44.8427 56.3898 44.9215 56.3204L45.0501 56.2103L45.1149 56.1571L45.1306 56.1429L45.1483 56.1326C45.5091 55.8449 45.8964 55.6039 46.3105 55.41L46.3498 55.3939L46.4048 55.3714L46.553 55.3121C46.6594 55.2733 46.7695 55.2387 46.8799 55.2081C46.9903 55.1775 47.0708 55.1591 47.1753 55.1407C47.195 55.1407 47.3377 55.1039 47.2391 55.1304C47.2923 55.1202 47.3459 55.1141 47.3991 55.1141C47.5806 55.0998 47.7596 55.0998 47.939 55.1141L48.0745 55.1263H48.0873L48.1403 55.1346C48.2389 55.153 48.3352 55.1732 48.4338 55.1998C48.5343 55.2243 48.6071 55.2488 48.6919 55.2794L48.8186 55.3265L48.8676 55.3468H48.8775L48.8932 55.3529C49.0568 55.4304 49.2144 55.5203 49.3663 55.6243L49.4497 55.6876L49.5204 55.7447C49.5914 55.81 49.6626 55.8775 49.7256 55.9469C49.7552 55.9795 49.7843 56.0122 49.812 56.0469L49.8434 56.0858C49.8927 56.1592 49.9423 56.2305 49.9857 56.306C50.0232 56.3774 50.0572 56.4491 50.0888 56.5225C50.0888 56.5429 50.1163 56.5919 50.1222 56.6082C50.1379 56.6593 50.1534 56.7123 50.1673 56.7613C50.2284 56.994 50.2524 57.2368 50.3018 57.4715C50.3806 57.9695 50.6268 58.3491 51.0409 58.6124C51.7587 59.0308 52.6652 58.8308 53.4204 58.6226C53.5959 58.5655 53.776 58.5268 53.9573 58.5064C53.8548 58.5146 53.9965 58.5064 54.0202 58.5064L54.1645 58.4901ZM51.0763 57.5819C51.0704 57.5696 51.0763 57.5737 51.0763 57.5819V57.5819ZM51.467 58.0064L51.5003 58.0206C51.4872 58.0165 51.4762 58.0119 51.467 58.0064ZM51.7723 58.0941H51.8017C51.7939 58.1002 51.7841 58.1021 51.7723 58.1021V58.0941Z" fill="#336B87"/>
<path d="M20.2362 45.6865L20.2245 45.7009C20.2108 45.7132 20.1931 45.7559 20.2362 45.6865Z" fill="#336B87"/>
<path d="M20.4762 44.2051C20.4154 44.2745 20.4605 44.2234 20.4762 44.2051V44.2051Z" fill="#336B87"/>
<path d="M19.5117 47.1733C19.5156 47.1447 19.5333 47.0896 19.5117 47.1733V47.1733Z" fill="#336B87"/>
<path d="M46.8013 17.5674C47.8721 19.3716 49.0083 21.1351 50.075 22.9414C50.2269 23.2006 50.3787 23.4597 50.5305 23.721C50.564 23.7761 50.6068 23.821 50.662 23.8516C50.7173 23.8843 50.7766 23.9006 50.8397 23.9006C50.9028 23.9006 50.9622 23.8843 51.0174 23.8516C51.0706 23.821 51.1154 23.7761 51.147 23.721C52.2039 22.1208 53.1624 20.4616 54.0202 18.741C54.4323 17.9409 54.8351 17.1346 55.2472 16.3345C55.6712 15.5058 56.0889 14.6813 56.4281 13.8118C57.1261 12.0627 57.5524 10.246 57.7061 8.36011C57.7851 7.4641 57.7851 6.56594 57.7061 5.66993C57.643 4.91066 57.4571 4.1863 57.1456 3.49439C56.8301 2.82901 56.3767 2.28594 55.7851 1.86549C55.0909 1.38584 54.3281 1.10631 53.496 1.02466C52.6481 0.9267 51.8453 1.0839 51.09 1.49415C50.7233 1.70846 50.3866 1.96359 50.077 2.25953C49.7891 2.52487 49.5225 2.81655 49.2839 3.13087C48.2802 4.4453 47.7085 6.11302 47.9076 7.79688C48.0989 9.40931 48.9251 11.091 50.3764 11.8462C51.0587 12.2014 51.8986 12.381 52.6302 12.0789C53.4702 11.7319 53.9141 10.9196 54.1645 10.0603C54.4149 9.20307 54.5034 8.19271 54.2077 7.30689C54.0736 6.89257 53.8585 6.52941 53.5627 6.21509C53.2689 5.90077 52.9245 5.66789 52.5281 5.51685C52.1495 5.3801 51.7622 5.35357 51.3698 5.43726C51.2732 5.46379 51.2022 5.52299 51.1529 5.6128C51.1036 5.7026 51.0938 5.79649 51.1195 5.89649C51.1491 5.99446 51.2045 6.06812 51.2913 6.11915C51.378 6.16813 51.4685 6.18231 51.5632 6.15577C51.579 6.15577 51.6564 6.14161 51.6525 6.14161H51.7566C51.8354 6.13957 51.9123 6.14345 51.9892 6.15162L52.0766 6.16602C52.12 6.17623 52.1608 6.18429 52.2022 6.19654L52.3092 6.23341L52.4034 6.27003C52.5533 6.33943 52.6954 6.42529 52.8275 6.52735L52.8962 6.58448L52.9816 6.66407C53.0506 6.73143 53.1148 6.80275 53.176 6.87623L53.2123 6.9253L53.2221 6.93555C53.2438 6.97024 53.2652 7.00275 53.2869 7.03541C53.3382 7.11501 53.3859 7.19887 53.4273 7.28663C53.4628 7.35399 53.492 7.4254 53.5136 7.49683C53.5491 7.60297 53.5803 7.71116 53.6059 7.81934C53.6513 8.00507 53.6756 8.19487 53.6795 8.38673C53.6874 8.60104 53.6797 8.81313 53.654 9.0254C53.654 9.04581 53.654 9.06635 53.654 9.08472C53.654 9.09084 53.654 9.09691 53.654 9.10303C53.6461 9.1561 53.6374 9.20713 53.6275 9.25611C53.6098 9.36021 53.5884 9.46443 53.5627 9.57056C53.5154 9.77263 53.456 9.97041 53.387 10.1643C53.3712 10.2133 53.3537 10.2603 53.336 10.3052V10.3154L53.2947 10.3787C53.2494 10.4746 53.1998 10.5685 53.1465 10.6604C53.0657 10.8175 52.9615 10.9584 52.8354 11.0808C52.7999 11.1155 52.7658 11.1481 52.7284 11.1787H52.7205L52.6793 11.2095C52.6063 11.2626 52.5275 11.3093 52.4466 11.3501L52.4152 11.3667H52.4034L52.2866 11.4075C52.2038 11.432 52.1211 11.4524 52.0363 11.4646H51.9872C51.9458 11.4646 51.905 11.4646 51.8616 11.4646C51.7728 11.4687 51.6833 11.4644 51.5946 11.4563L51.5219 11.4463L51.4199 11.4277C51.3351 11.4093 51.2494 11.3871 51.1666 11.3626C51.0838 11.3381 50.9991 11.3053 50.9182 11.2727L50.9006 11.2952L50.8594 11.2769C50.8179 11.2585 50.7771 11.2381 50.7376 11.2156C50.5779 11.134 50.4251 11.0381 50.2812 10.9319L50.2066 10.8726L50.1202 10.7993C50.0512 10.7401 49.986 10.6766 49.9248 10.6133C49.7947 10.4807 49.674 10.3399 49.5617 10.1909L49.5518 10.1787L49.5106 10.1216L49.4321 10.0051C49.3788 9.92756 49.3312 9.85413 49.2839 9.76636C49.1872 9.60512 49.1006 9.43789 49.0237 9.26441L48.9766 9.15211L48.9452 9.07447C48.9097 8.98058 48.8776 8.8867 48.8461 8.79078C48.7869 8.60912 48.7373 8.42549 48.6978 8.23975C48.6801 8.15199 48.6645 8.06409 48.6487 7.97633C48.6409 7.92938 48.635 7.88249 48.6271 7.8335C48.6271 7.80289 48.6272 7.77233 48.6154 7.74171C48.5956 7.5519 48.5859 7.36007 48.584 7.16822C48.584 6.9784 48.5917 6.78651 48.6095 6.59669L48.6232 6.47217V6.46192L48.6311 6.39454C48.6469 6.29861 48.6624 6.2027 48.6821 6.11085C48.7196 5.92104 48.7673 5.73327 48.8225 5.54957C48.8481 5.46385 48.8773 5.37812 48.9069 5.29444C48.9227 5.24953 48.9392 5.20457 48.957 5.15967C48.9649 5.13722 48.9726 5.11498 48.9825 5.09254V5.06373C49.1284 4.70859 49.3055 4.36986 49.5145 4.04737C49.5619 3.97389 49.6115 3.89435 49.6608 3.82496C49.6884 3.78617 49.7156 3.74728 49.7432 3.7085L49.7609 3.68604L49.808 3.62696C49.9244 3.47388 50.047 3.32882 50.1771 3.18799C50.3073 3.04716 50.4337 2.92269 50.5678 2.79615C50.6368 2.73287 50.7157 2.66972 50.7808 2.60645L50.8888 2.51661L50.9084 2.50245L50.9565 2.46558C51.1103 2.34516 51.2699 2.239 51.4375 2.14307C51.5184 2.09816 51.5991 2.0575 51.6819 2.02076C51.6957 2.02076 51.7447 1.99408 51.7546 1.99L51.9028 1.93482C52.0803 1.87359 52.2613 1.82685 52.4466 1.7942L52.5418 1.77979C52.5833 1.77367 52.6241 1.76947 52.6655 1.76539C52.7582 1.75723 52.8526 1.75326 52.9473 1.75123C53.6907 1.73694 54.3913 1.91048 55.046 2.27173C55.1958 2.35337 55.3378 2.44516 55.4759 2.54517L55.5584 2.6106L55.6035 2.64918C55.6706 2.70632 55.7338 2.76553 55.7949 2.82471C55.9034 2.93289 56.0066 3.04722 56.1032 3.16968C56.115 3.18601 56.1267 3.19828 56.1365 3.21461C56.1563 3.24319 56.1776 3.27181 56.1974 3.29835C56.2446 3.36978 56.2905 3.44126 56.3319 3.5127C56.4147 3.65148 56.4896 3.79227 56.5567 3.93922C56.5724 3.97596 56.586 4.01478 56.6038 4.05152C56.6097 4.06377 56.6155 4.0759 56.6195 4.08814C56.6511 4.16978 56.6803 4.25152 56.7078 4.33521C56.8124 4.65769 56.8911 4.99039 56.9444 5.32716C56.9444 5.36594 56.9543 5.40263 56.9601 5.44141C56.9601 5.4557 56.9601 5.46993 56.9601 5.48218C56.9601 5.49035 56.9601 5.49868 56.9601 5.50684C56.9701 5.59665 56.9798 5.68428 56.9876 5.77613C57.0054 5.97207 57.0161 6.17206 57.0239 6.37208C57.0397 6.81498 57.0397 7.26006 57.0239 7.70093C56.9904 8.56837 56.8892 9.42969 56.7196 10.2808C56.548 11.1524 56.3156 12.0055 56.0236 12.8423C55.7397 13.6567 55.4031 14.4466 55.0087 15.21C54.6261 15.959 54.2397 16.7101 53.8572 17.4612C53.0428 19.0696 52.2122 20.6716 51.2657 22.2024C51.1297 22.4228 50.9876 22.6432 50.8476 22.8596C49.8577 21.1778 48.8181 19.5288 47.8065 17.8633C47.349 17.1081 46.8994 16.3467 46.4754 15.5691C46.2802 15.2017 46.0895 14.8283 45.91 14.4507C45.8233 14.269 45.7386 14.0853 45.6578 13.9016L45.5508 13.6526L45.4919 13.5159L45.4801 13.4873C45.4801 13.4792 45.4526 13.4178 45.4506 13.4097C45.1568 12.6728 44.9223 11.9177 44.7448 11.1421C44.6541 10.7441 44.5772 10.342 44.5201 9.9358L44.5024 9.80714C44.4958 9.7527 44.4913 9.71953 44.4886 9.70728C44.4768 9.59502 44.4642 9.48263 44.4523 9.37037C44.4306 9.15606 44.4131 8.93764 44.4013 8.71924C44.3717 8.27633 44.3717 7.83143 44.4013 7.38648C44.4013 7.28239 44.4189 7.1805 44.4307 7.08253C44.4307 7.06212 44.4445 6.98861 44.4307 7.06617L44.4405 7.00074C44.4484 6.93543 44.4582 6.8722 44.47 6.80689C44.5075 6.59054 44.5532 6.37829 44.6104 6.16602C44.6656 5.9558 44.7308 5.74562 44.8018 5.54151C44.8373 5.43742 44.8782 5.33537 44.9176 5.23536C44.9216 5.22719 44.9264 5.21887 44.9284 5.2107C44.9363 5.19642 44.9421 5.17811 44.95 5.16383C44.9737 5.10668 44.997 5.05365 45.0207 4.99854C45.2021 4.5985 45.4133 4.21887 45.6519 3.85352C45.713 3.76372 45.7743 3.6738 45.8374 3.58399L45.8747 3.53297L45.9081 3.48804C45.916 3.47851 45.9257 3.4658 45.9375 3.44947L45.9964 3.37379C46.1305 3.20235 46.2726 3.03714 46.4165 2.87794C46.5644 2.72486 46.7123 2.57178 46.8759 2.41871C46.9548 2.34523 47.0356 2.27579 47.1164 2.20435L47.2293 2.11256L47.2725 2.07569L47.3196 2.03907C47.6588 1.77374 48.0179 1.54109 48.3945 1.34107C48.4872 1.29208 48.5835 1.243 48.6802 1.19605L48.8284 1.13087H48.8461L48.9187 1.1001C49.1139 1.01846 49.3154 0.947066 49.5185 0.883796C49.7196 0.81848 49.9288 0.769497 50.1379 0.730719C50.2325 0.702143 50.3055 0.642948 50.3548 0.555182C50.4021 0.465377 50.4138 0.3715 50.3862 0.271491C50.3586 0.173521 50.3012 0.100106 50.2164 0.0490788C50.1296 9.37991e-05 50.0391 -0.012279 49.9445 0.0122136C49.0709 0.206111 48.2525 0.545084 47.4934 1.02882C46.7322 1.51254 46.0715 2.11456 45.5095 2.83301C44.3757 4.26786 43.668 6.06808 43.6602 7.9336C43.6602 9.67257 43.9501 11.3604 44.5318 12.9912C45.1076 14.5894 45.9278 16.1039 46.8013 17.5674Z" fill="#336B87"/>
<path d="M75.4838 34L72.9434 22.832H75.3552L76.4173 28.1919L77.0122 31.2959H77.0603L77.768 28.1919L79.0058 22.832H81.6758L82.9304 28.1919L83.6224 31.2959H83.6705L84.2654 28.1919L85.3432 22.832H87.6588L85.0536 34H82.2707L80.8562 27.9519L80.3094 25.5039H80.2603L79.6979 27.9519L78.2824 34H75.4838ZM96.1508 34L95.3469 31.344H91.599L90.7951 34H88.3185L92.0172 22.832H95.0406L98.6912 34H96.1508ZM93.4965 25.04H93.416L92.1782 29.28H94.751L93.4965 25.04ZM102.198 34V29.6321L98.3536 22.832H101.088L103.5 27.28H103.533L105.848 22.832H108.503L104.658 29.616V34H102.198ZM110.207 34V22.832H117.653V24.9919H112.652V27.28H116.913V29.4241H112.652V34H110.207ZM125.453 34L124.649 31.344H120.902L120.098 34H117.621L121.32 22.832H124.344L127.995 34H125.453ZM122.8 25.04H122.719L121.481 29.28H124.054L122.8 25.04ZM132.321 34H129.876V22.832H135.2C135.714 22.832 136.181 22.9172 136.599 23.0879C137.018 23.2586 137.374 23.5013 137.668 23.8159C137.963 24.1306 138.191 24.5068 138.352 24.9441C138.512 25.3814 138.593 25.8666 138.593 26.3999C138.593 27.1572 138.424 27.8187 138.087 28.384C137.749 28.9494 137.237 29.36 136.55 29.616L138.754 34H136.036L134.074 29.9041H132.321V34ZM134.894 27.856C135.259 27.856 135.545 27.7626 135.754 27.5759C135.963 27.3893 136.068 27.1146 136.068 26.752V26.0481C136.068 25.6854 135.963 25.4108 135.754 25.2241C135.545 25.0375 135.259 24.9441 134.894 24.9441H132.321V27.856H134.894ZM141.037 34V22.832H148.677V24.9919H143.483V27.28H147.937V29.4241H143.483V31.8401H148.677V34H141.037ZM153.567 34H151.121V22.832H156.445C156.959 22.832 157.426 22.9172 157.845 23.0879C158.263 23.2586 158.619 23.5013 158.914 23.8159C159.208 24.1306 159.437 24.5068 159.598 24.9441C159.759 25.3814 159.838 25.8666 159.838 26.3999C159.838 27.1572 159.669 27.8187 159.332 28.384C158.994 28.9494 158.483 29.36 157.796 29.616L159.999 34H157.281L155.319 29.9041H153.567V34ZM156.14 27.856C156.504 27.856 156.791 27.7626 157 27.5759C157.209 27.3893 157.314 27.1146 157.314 26.752V26.0481C157.314 25.6854 157.209 25.4108 157 25.2241C156.791 25.0375 156.504 24.9441 156.14 24.9441H153.567V27.856H156.14ZM84.4754 41.6321V46H83.8845V41.6321H82.3227V41.114H86.0382V41.6321H84.4754ZM87.5292 46V42.3879H88.0927V43.053H88.128C88.1937 42.8803 88.3106 42.7264 88.4794 42.5911C88.6483 42.4557 88.8809 42.3879 89.1764 42.3879H89.3943V42.948H89.0635C88.7586 42.948 88.5201 43.0051 88.3489 43.1194C88.1777 43.2337 88.0927 43.3774 88.0927 43.55V46H87.5292ZM93.7782 46C93.5671 46 93.4152 45.944 93.3237 45.832C93.2323 45.72 93.1754 45.5801 93.152 45.4121H93.1166C93.0369 45.6361 92.9049 45.804 92.722 45.916C92.5391 46.028 92.3216 46.084 92.0682 46.084C91.6836 46.084 91.3845 45.986 91.171 45.79C90.9576 45.594 90.851 45.3279 90.851 44.9919C90.851 44.6513 90.976 44.39 91.227 44.208C91.478 44.026 91.869 43.9351 92.399 43.9351H93.1166V43.5779C93.1166 43.3212 93.0463 43.1253 92.9056 42.99C92.7648 42.8547 92.5485 42.7871 92.2577 42.7871C92.0372 42.7871 91.8538 42.8361 91.706 42.9341C91.5583 43.0321 91.4345 43.1626 91.336 43.3259L90.9983 43.011C91.0968 42.815 91.2537 42.6482 91.4695 42.5105C91.6852 42.3728 91.9578 42.304 92.2862 42.304C92.7271 42.304 93.07 42.4113 93.3139 42.626C93.5578 42.8406 93.6791 43.1393 93.6791 43.522V45.51H94.0943V46H93.7782ZM92.1595 45.6079C92.3003 45.6079 92.429 45.5917 92.5463 45.5591C92.6636 45.5264 92.7642 45.4796 92.8486 45.4189C92.9331 45.3583 92.999 45.2883 93.0459 45.209C93.0928 45.1297 93.1166 45.0433 93.1166 44.95V44.355H92.3706C92.0469 44.355 91.8116 44.4018 91.6638 44.4951C91.5161 44.5885 91.442 44.7235 91.442 44.9009V45.0481C91.442 45.2254 91.5064 45.3629 91.6354 45.4609C91.7643 45.5589 91.9391 45.6079 92.1595 45.6079ZM96.6976 46L95.4244 42.3879H95.9869L96.62 44.1799L97.0146 45.4121H97.05L97.4436 44.1799L98.0915 42.3879H98.6333L97.3523 46H96.6976ZM101.721 46.084C101.473 46.084 101.249 46.0396 101.05 45.9509C100.851 45.8623 100.679 45.7352 100.536 45.5696C100.393 45.4039 100.283 45.2056 100.206 44.9746C100.128 44.7436 100.089 44.4834 100.089 44.1941C100.089 43.9094 100.128 43.6503 100.206 43.417C100.283 43.1837 100.393 42.9843 100.536 42.8186C100.679 42.6529 100.851 42.5257 101.05 42.437C101.249 42.3483 101.473 42.304 101.721 42.304C101.965 42.304 102.184 42.3483 102.376 42.437C102.569 42.5257 102.733 42.6481 102.869 42.8044C103.005 42.9608 103.109 43.1464 103.182 43.3611C103.255 43.5758 103.291 43.8114 103.291 44.0681V44.334H100.68V44.502C100.68 44.656 100.705 44.7996 100.755 44.9326C100.804 45.0656 100.874 45.1811 100.966 45.2791C101.057 45.3771 101.17 45.454 101.303 45.51C101.437 45.566 101.588 45.594 101.757 45.594C101.987 45.594 102.187 45.5404 102.359 45.4331C102.53 45.3258 102.662 45.1716 102.756 44.9709L103.158 45.2581C103.04 45.5054 102.857 45.7048 102.608 45.8564C102.359 46.0081 102.064 46.084 101.721 46.084ZM101.721 42.7729C101.567 42.7729 101.426 42.7998 101.299 42.8535C101.173 42.9072 101.064 42.9831 100.973 43.0811C100.881 43.1791 100.809 43.2945 100.758 43.4275C100.706 43.5605 100.68 43.7063 100.68 43.865V43.9141H102.685V43.8369C102.685 43.5149 102.597 43.2571 102.421 43.0635C102.245 42.8698 102.012 42.7729 101.721 42.7729ZM105.873 46C105.676 46 105.527 45.9451 105.426 45.8354C105.325 45.7258 105.275 45.5869 105.275 45.4189V40.8201H105.838V45.51H106.372V46H105.873ZM112.67 41.6321V46H112.08V41.6321H110.517V41.114H114.232V41.6321H112.67ZM116.04 40.8201H116.604V42.9761H116.631C116.72 42.7707 116.846 42.6074 117.008 42.4861C117.17 42.3647 117.387 42.304 117.659 42.304C118.034 42.304 118.331 42.4242 118.549 42.6646C118.768 42.9049 118.876 43.2444 118.876 43.6831V46H118.313V43.781C118.313 43.1323 118.039 42.8081 117.49 42.8081C117.378 42.8081 117.268 42.8221 117.162 42.8501C117.057 42.8781 116.962 42.9201 116.878 42.9761C116.793 43.0321 116.727 43.1031 116.677 43.1895C116.628 43.2758 116.604 43.3772 116.604 43.4939V46H116.04V40.8201ZM122.457 46.084C122.209 46.084 121.985 46.0396 121.786 45.9509C121.586 45.8623 121.415 45.7352 121.272 45.5696C121.129 45.4039 121.019 45.2056 120.942 44.9746C120.864 44.7436 120.825 44.4834 120.825 44.1941C120.825 43.9094 120.864 43.6503 120.942 43.417C121.019 43.1837 121.129 42.9843 121.272 42.8186C121.415 42.6529 121.586 42.5257 121.786 42.437C121.985 42.3483 122.209 42.304 122.457 42.304C122.701 42.304 122.92 42.3483 123.112 42.437C123.304 42.5257 123.469 42.6481 123.605 42.8044C123.741 42.9608 123.845 43.1464 123.918 43.3611C123.991 43.5758 124.027 43.8114 124.027 44.0681V44.334H121.416V44.502C121.416 44.656 121.441 44.7996 121.49 44.9326C121.54 45.0656 121.61 45.1811 121.701 45.2791C121.793 45.3771 121.905 45.454 122.039 45.51C122.173 45.566 122.324 45.594 122.493 45.594C122.722 45.594 122.923 45.5404 123.094 45.4331C123.265 45.3258 123.398 45.1716 123.492 44.9709L123.893 45.2581C123.776 45.5054 123.593 45.7048 123.345 45.8564C123.096 46.0081 122.8 46.084 122.457 46.084ZM122.457 42.7729C122.302 42.7729 122.162 42.7998 122.035 42.8535C121.908 42.9072 121.8 42.9831 121.708 43.0811C121.617 43.1791 121.545 43.2945 121.493 43.4275C121.442 43.5605 121.416 43.7063 121.416 43.865V43.9141H123.421V43.8369C123.421 43.5149 123.334 43.2571 123.158 43.0635C122.982 42.8698 122.748 42.7729 122.457 42.7729ZM129.466 46L128.269 41.114H128.896L129.424 43.4661L129.831 45.293H129.846L130.303 43.4661L130.922 41.114H131.598L132.196 43.4661L132.653 45.2859H132.674L133.096 43.4661L133.653 41.114H134.257L132.998 46H132.343L131.703 43.564L131.253 41.772H131.239L130.774 43.564L130.12 46H129.466ZM137.318 46.084C137.074 46.084 136.851 46.0396 136.649 45.9509C136.448 45.8623 136.275 45.7352 136.132 45.5696C135.989 45.4039 135.878 45.2056 135.798 44.9746C135.719 44.7436 135.679 44.4834 135.679 44.1941C135.679 43.9094 135.719 43.6503 135.798 43.417C135.878 43.1837 135.989 42.9843 136.132 42.8186C136.275 42.6529 136.448 42.5257 136.649 42.437C136.851 42.3483 137.074 42.304 137.318 42.304C137.562 42.304 137.784 42.3483 137.983 42.437C138.183 42.5257 138.354 42.6529 138.5 42.8186C138.645 42.9843 138.758 43.1837 138.837 43.417C138.917 43.6503 138.957 43.9094 138.957 44.1941C138.957 44.4834 138.917 44.7436 138.837 44.9746C138.758 45.2056 138.645 45.4039 138.5 45.5696C138.354 45.7352 138.183 45.8623 137.983 45.9509C137.784 46.0396 137.562 46.084 137.318 46.084ZM137.318 45.5869C137.623 45.5869 137.872 45.4936 138.064 45.3069C138.256 45.1202 138.353 44.8355 138.353 44.4529V43.9351C138.353 43.5524 138.256 43.2677 138.064 43.0811C137.872 42.8944 137.623 42.801 137.318 42.801C137.013 42.801 136.764 42.8944 136.572 43.0811C136.38 43.2677 136.283 43.5524 136.283 43.9351V44.4529C136.283 44.8355 136.38 45.1202 136.572 45.3069C136.764 45.4936 137.013 45.5869 137.318 45.5869ZM140.942 46V42.3879H141.505V43.053H141.54C141.606 42.8803 141.722 42.7264 141.891 42.5911C142.06 42.4557 142.293 42.3879 142.588 42.3879H142.806V42.948H142.475C142.17 42.948 141.933 43.0051 141.762 43.1194C141.591 43.2337 141.505 43.3774 141.505 43.55V46H140.942ZM145.178 46C144.981 46 144.832 45.9451 144.731 45.8354C144.63 45.7258 144.58 45.5869 144.58 45.4189V40.8201H145.142V45.51H145.677V46H145.178ZM149.871 45.4121H149.842C149.622 45.8601 149.268 46.084 148.78 46.084C148.555 46.084 148.351 46.0396 148.168 45.9509C147.985 45.8623 147.83 45.7363 147.701 45.573C147.572 45.4097 147.473 45.2114 147.405 44.978C147.337 44.7447 147.303 44.4834 147.303 44.1941C147.303 43.9048 147.337 43.6432 147.405 43.4099C147.473 43.1766 147.572 42.9783 147.701 42.8149C147.83 42.6516 147.985 42.5257 148.168 42.437C148.351 42.3483 148.555 42.304 148.78 42.304C149.034 42.304 149.251 42.3588 149.431 42.4685C149.612 42.5782 149.749 42.7474 149.842 42.9761H149.871V40.8201H150.433V46H149.871V45.4121ZM148.935 45.5801C149.062 45.5801 149.183 45.5637 149.298 45.531C149.413 45.4983 149.512 45.4505 149.596 45.3875C149.68 45.3245 149.748 45.2475 149.797 45.1565C149.847 45.0655 149.871 44.9616 149.871 44.845V43.501C149.871 43.403 149.847 43.3109 149.797 43.2246C149.748 43.1383 149.68 43.0646 149.596 43.0039C149.512 42.9432 149.413 42.8956 149.298 42.8606C149.183 42.8256 149.062 42.8081 148.935 42.8081C148.616 42.8081 148.365 42.9071 148.183 43.1055C148 43.3038 147.908 43.564 147.908 43.886V44.502C147.908 44.824 148 45.0841 148.183 45.2825C148.365 45.4808 148.616 45.5801 148.935 45.5801Z" fill="#336B87"/>
</svg>
