<svg width="1467" height="734" viewBox="0 0 1467 734" fill="none" xmlns="http://www.w3.org/2000/svg">
<path d="M761.98 225.633C761.98 219.211 766.952 214 773.076 214H1455.46C1461.57 214 1466.56 219.211 1466.56 225.633V373.367C1466.56 379.789 1461.57 385 1455.46 385H773.076C766.952 385 761.98 379.789 761.98 373.367V225.633Z" fill="#98C5DC" fill-opacity="0.31"/>
<path d="M1005.83 255.316V286.564H1003.09V255.316H1005.83ZM990.527 267.916C990.863 267.916 991.127 268.048 991.319 268.312L998.447 277.312L996.359 279.148L989.231 269.86C989.135 269.74 989.003 269.68 988.835 269.68C988.691 269.68 988.583 269.74 988.511 269.86C987.863 271.276 986.999 272.728 985.919 274.216C984.863 275.68 983.423 277.48 981.599 279.616L979.511 277.852C981.623 275.476 983.243 273.448 984.371 271.768C985.499 270.064 986.315 268.36 986.819 266.656C987.323 264.952 987.575 262.996 987.575 260.788V257.404H990.311V260.752C990.311 263.608 989.891 266.2 989.051 268.528L989.231 268.636L989.735 268.204C989.999 268.012 990.263 267.916 990.527 267.916ZM1041.49 265.756H1036.48V274.252H1033.75V255.316H1036.48V263.452H1041.49V265.756ZM1013.3 273.388L1011.28 271.66C1013.3 270.028 1014.86 268.624 1015.96 267.448C1017.07 266.272 1017.86 265.108 1018.34 263.956C1018.84 262.78 1019.1 261.472 1019.1 260.032V259.672H1012.22V257.368H1028.67V259.672H1021.83V260.14C1021.83 262.132 1021.41 263.944 1020.57 265.576L1020.79 265.684L1021.33 265.288C1021.59 265.072 1021.86 264.964 1022.12 264.964C1022.38 264.964 1022.66 265.084 1022.95 265.324L1029.68 271.048L1027.66 272.848L1020.82 266.836C1020.68 266.692 1020.51 266.62 1020.32 266.62C1020.13 266.62 1019.96 266.692 1019.82 266.836C1019.19 267.772 1018.38 268.732 1017.37 269.716C1016.36 270.7 1015 271.924 1013.3 273.388ZM1016.22 276.196H1036.48V288.148H1033.78V278.5H1016.22V276.196ZM1073.55 270.508H1068.47V286.636H1065.74V255.388H1068.47V268.204H1073.55V270.508ZM1058.07 259.42H1047.85V257.08H1058.07V259.42ZM1043.06 263.74H1062.32V265.972H1056.99V266.188C1059.17 267.268 1060.27 269.344 1060.27 272.416C1060.27 273.976 1059.94 275.332 1059.29 276.484C1058.65 277.612 1057.75 278.476 1056.59 279.076C1055.47 279.676 1054.21 279.976 1052.81 279.976C1051.42 279.976 1050.15 279.676 1049 279.076C1047.87 278.476 1046.98 277.612 1046.33 276.484C1045.69 275.332 1045.36 273.976 1045.36 272.416C1045.36 269.344 1046.45 267.268 1048.64 266.188V265.972H1043.06V263.74ZM1057.6 271.228C1057.6 269.62 1057.17 268.396 1056.31 267.556C1055.44 266.692 1054.28 266.26 1052.81 266.26C1051.37 266.26 1050.21 266.692 1049.32 267.556C1048.46 268.42 1048.03 269.644 1048.03 271.228V272.704C1048.03 274.264 1048.47 275.488 1049.36 276.376C1050.25 277.24 1051.4 277.672 1052.81 277.672C1054.23 277.672 1055.38 277.24 1056.27 276.376C1057.16 275.488 1057.6 274.264 1057.6 272.704V271.228ZM1099.38 255.316H1102.12V286.564H1099.38V255.316ZM1076.74 277.96C1080.05 276.256 1082.58 274.696 1084.34 273.28C1086.09 271.864 1087.31 270.364 1088.01 268.78C1088.73 267.196 1089.09 265.24 1089.09 262.912V260.212H1077.64V257.872H1091.82V262.876C1091.82 265.54 1091.42 267.796 1090.6 269.644C1089.81 271.492 1088.45 273.22 1086.53 274.828C1084.64 276.412 1081.91 278.152 1078.36 280.048L1076.74 277.96ZM1142.76 255.316V286.564H1140.06V268.708H1132.25V278.14H1117.7V257.548H1120.33V265.432H1129.62V257.512H1132.25V266.404H1140.06V255.316H1142.76ZM1129.62 267.736H1120.33V275.836H1129.62V267.736ZM1172.91 256.288V258.556H1155.13V262.336H1172.37V264.496H1155.17V268.24H1173.49V270.508H1152.47V256.288H1172.91ZM1177.41 273.748V276.088H1148.04V273.748H1177.41ZM1152.29 285.664V278.896H1154.99V285.232H1173.63V287.5H1154.09C1153.51 287.5 1153.07 287.344 1152.75 287.032C1152.44 286.72 1152.29 286.264 1152.29 285.664ZM1183.48 265.108C1183.48 263.5 1183.89 262.06 1184.71 260.788C1185.55 259.492 1186.82 258.46 1188.52 257.692C1190.23 256.924 1192.33 256.54 1194.82 256.54C1197.32 256.54 1199.42 256.924 1201.12 257.692C1202.83 258.46 1204.09 259.492 1204.9 260.788C1205.74 262.06 1206.16 263.5 1206.16 265.108C1206.16 266.716 1205.74 268.168 1204.9 269.464C1204.09 270.76 1202.83 271.792 1201.12 272.56C1199.42 273.328 1197.32 273.712 1194.82 273.712C1192.33 273.712 1190.23 273.328 1188.52 272.56C1186.82 271.792 1185.55 270.76 1184.71 269.464C1183.89 268.168 1183.48 266.716 1183.48 265.108ZM1203.21 265.54V264.712C1203.21 263.608 1202.91 262.612 1202.31 261.724C1201.74 260.812 1200.81 260.092 1199.54 259.564C1198.29 259.012 1196.72 258.736 1194.82 258.736C1192.93 258.736 1191.34 259.012 1190.07 259.564C1188.82 260.092 1187.9 260.812 1187.3 261.724C1186.72 262.612 1186.44 263.608 1186.44 264.712V265.54C1186.44 267.244 1187.13 268.66 1188.52 269.788C1189.92 270.916 1192.02 271.48 1194.82 271.48C1197.63 271.48 1199.73 270.916 1201.12 269.788C1202.52 268.66 1203.21 267.244 1203.21 265.54ZM1180.14 280.66H1209.51V283H1180.14V280.66ZM1241.61 280.696V283H1212.23V280.696H1225.55V274.54H1216.55V264.784H1234.55V259.492H1216.37V257.224H1237.29V266.98H1219.29V272.272H1238.23V274.54H1228.29V280.696H1241.61ZM912.031 309.316V340.564H909.331V327.424H903.211V325.192H909.331V318.424H903.211V316.192H909.331V309.316H912.031ZM902.455 321.952C902.455 325.456 901.699 328.108 900.187 329.908C898.675 331.708 896.683 332.608 894.211 332.608C891.715 332.608 889.711 331.708 888.199 329.908C886.687 328.108 885.931 325.456 885.931 321.952C885.931 318.448 886.687 315.796 888.199 313.996C889.711 312.196 891.715 311.296 894.211 311.296C896.683 311.296 898.675 312.196 900.187 313.996C901.699 315.796 902.455 318.448 902.455 321.952ZM899.575 320.512C899.575 318.256 899.083 316.54 898.099 315.364C897.115 314.164 895.819 313.564 894.211 313.564C892.579 313.564 891.271 314.164 890.287 315.364C889.303 316.54 888.811 318.256 888.811 320.512V323.392C888.811 325.648 889.303 327.376 890.287 328.576C891.271 329.752 892.579 330.34 894.211 330.34C895.819 330.34 897.115 329.752 898.099 328.576C899.083 327.376 899.575 325.648 899.575 323.392V320.512ZM937.649 328.324H934.949V309.82H937.649V318.316H942.329V309.316H945.029V329.332H942.329V320.548H937.649V328.324ZM930.197 312.7H920.801V310.468H930.197V312.7ZM925.481 328.612C923.585 328.612 922.025 328.108 920.801 327.1C919.601 326.068 919.001 324.724 919.001 323.068C919.001 320.932 919.889 319.432 921.665 318.568V318.388H917.273V316.228H933.185V318.388H929.297V318.568C931.073 319.432 931.961 320.932 931.961 323.068C931.961 324.724 931.349 326.068 930.125 327.1C928.925 328.108 927.377 328.612 925.481 328.612ZM925.481 326.38C926.633 326.38 927.581 326.08 928.325 325.48C929.093 324.856 929.477 323.98 929.477 322.852V322.204C929.477 321.052 929.093 320.176 928.325 319.576C927.581 318.952 926.633 318.64 925.481 318.64C924.329 318.64 923.381 318.952 922.637 319.576C921.893 320.176 921.521 321.052 921.521 322.204V322.852C921.521 323.98 921.893 324.856 922.637 325.48C923.381 326.08 924.329 326.38 925.481 326.38ZM945.173 336.244C945.173 337.444 944.789 338.512 944.021 339.448C943.253 340.384 942.101 341.116 940.565 341.644C939.053 342.172 937.193 342.436 934.985 342.436C932.777 342.436 930.893 342.172 929.333 341.644C927.797 341.116 926.645 340.384 925.877 339.448C925.109 338.512 924.725 337.444 924.725 336.244C924.725 335.044 925.109 333.976 925.877 333.04C926.645 332.104 927.797 331.372 929.333 330.844C930.893 330.316 932.777 330.052 934.985 330.052C937.193 330.052 939.053 330.316 940.565 330.844C942.101 331.372 943.253 332.104 944.021 333.04C944.789 333.976 945.173 335.044 945.173 336.244ZM942.293 335.992C942.293 334.936 941.681 334.048 940.457 333.328C939.257 332.608 937.433 332.248 934.985 332.248C932.537 332.248 930.701 332.608 929.477 333.328C928.253 334.048 927.641 334.936 927.641 335.992V336.496C927.641 337.552 928.253 338.44 929.477 339.16C930.701 339.88 932.537 340.24 934.985 340.24C937.433 340.24 939.257 339.88 940.457 339.16C941.681 338.44 942.293 337.552 942.293 336.496V335.992ZM985.634 309.316V340.564H983.007V309.316H985.634ZM975.986 309.784H978.506V339.736H975.986V328.108H970.694V325.912H975.986V319.864H971.09C970.898 321.832 970.43 323.56 969.686 325.048C968.942 326.536 967.838 327.976 966.374 329.368C964.91 330.736 962.906 332.284 960.362 334.012L958.634 332.248C961.346 330.472 963.398 328.9 964.79 327.532C966.182 326.14 967.166 324.676 967.742 323.14C968.318 321.604 968.606 319.708 968.606 317.452V314.644H959.426V312.52H971.198V317.38V317.668H975.986V309.784ZM1016.9 309.316V330.808H1014.17V309.316H1016.9ZM1005.64 311.692H996.096V309.568H1005.64V311.692ZM1011.76 329.008C1009.02 329.44 1005.77 329.776 1002 330.016C998.232 330.232 994.344 330.34 990.336 330.34L990.12 328.108C993.744 328.108 996.816 328.048 999.336 327.928V325.408C997.464 325.24 995.976 324.76 994.872 323.968C993.792 323.152 993.252 322.132 993.252 320.908C993.252 319.156 994.212 317.908 996.132 317.164V316.984H991.02V314.932H1010.06V316.984H1005.17V317.2C1007.09 317.92 1008.05 319.156 1008.05 320.908C1008.05 322.132 1007.5 323.152 1006.39 323.968C1005.31 324.76 1003.82 325.24 1001.93 325.408V327.82C1005.72 327.628 1008.91 327.34 1011.5 326.956L1011.76 329.008ZM1000.09 323.32H1001.17C1002.47 323.32 1003.52 323.056 1004.34 322.528C1005.18 321.976 1005.6 321.208 1005.6 320.224C1005.6 319.24 1005.19 318.484 1004.38 317.956C1003.56 317.404 1002.49 317.128 1001.17 317.128H1000.09C998.772 317.128 997.704 317.404 996.888 317.956C996.096 318.484 995.7 319.24 995.7 320.224C995.7 321.208 996.108 321.976 996.924 322.528C997.74 323.056 998.796 323.32 1000.09 323.32ZM995.844 332.716H1016.9V342.22H1014.24V334.84H995.844V332.716ZM1025.96 315.076C1025.96 313.324 1026.86 311.932 1028.66 310.9C1030.46 309.844 1033.16 309.316 1036.76 309.316C1040.36 309.316 1043.06 309.844 1044.86 310.9C1046.66 311.932 1047.56 313.324 1047.56 315.076C1047.56 316.828 1046.66 318.232 1044.86 319.288C1043.06 320.344 1040.36 320.872 1036.76 320.872C1033.16 320.872 1030.46 320.344 1028.66 319.288C1026.86 318.232 1025.96 316.828 1025.96 315.076ZM1044.65 315.256V314.86C1044.65 313.828 1043.99 312.988 1042.67 312.34C1041.37 311.668 1039.4 311.332 1036.76 311.332C1034.12 311.332 1032.14 311.668 1030.82 312.34C1029.53 312.988 1028.88 313.828 1028.88 314.86V315.256C1028.88 316.288 1029.53 317.14 1030.82 317.812C1032.14 318.46 1034.12 318.784 1036.76 318.784C1039.4 318.784 1041.37 318.46 1042.67 317.812C1043.99 317.14 1044.65 316.288 1044.65 315.256ZM1051.45 323.356V325.66H1022.07V323.356H1051.45ZM1026.65 340.204V334.3H1044.39V330.916H1026.43V328.684H1047.02V336.388H1029.27V339.808H1047.96V342.04H1028.45C1027.87 342.04 1027.43 341.884 1027.11 341.572C1026.8 341.26 1026.65 340.804 1026.65 340.204ZM1074.54 323.248L1073.02 321.16C1076.14 319.864 1078.53 318.7 1080.19 317.668C1081.87 316.612 1083.03 315.568 1083.68 314.536C1084.35 313.48 1084.69 312.28 1084.69 310.936V309.964H1087.5V311.044C1087.5 312.172 1087.35 313.18 1087.06 314.068C1086.78 314.956 1086.31 315.784 1085.66 316.552L1085.91 316.66L1086.81 316.012C1087.2 315.748 1087.54 315.616 1087.86 315.616C1088.1 315.616 1088.36 315.688 1088.65 315.832L1098.73 321.052L1097.18 323.176L1086.63 317.524C1086.32 317.356 1086 317.272 1085.66 317.272C1085.3 317.272 1084.98 317.368 1084.69 317.56C1083.73 318.448 1082.44 319.336 1080.84 320.224C1079.23 321.088 1077.13 322.096 1074.54 323.248ZM1100.56 326.704V329.044H1071.19V326.704H1084.51V321.88H1087.24V326.704H1100.56ZM1078.14 339.052H1096.78V341.32H1077.2C1076.62 341.32 1076.18 341.164 1075.87 340.852C1075.56 340.54 1075.4 340.084 1075.4 339.484V331.888H1078.14V339.052ZM1130.21 328.504H1127.48V309.316H1130.21V328.504ZM1106.78 320.908L1104.87 319.144C1106.91 318.016 1108.48 317.02 1109.58 316.156C1110.71 315.268 1111.52 314.404 1112 313.564C1112.5 312.7 1112.75 311.74 1112.75 310.684V309.604H1115.42V310.864C1115.42 312.376 1115.02 313.768 1114.23 315.04L1114.41 315.112L1115.02 314.644C1115.38 314.404 1115.68 314.284 1115.92 314.284C1116.14 314.284 1116.38 314.356 1116.64 314.5L1122.98 318.496L1121.03 320.332L1114.52 315.976C1114.37 315.856 1114.18 315.796 1113.94 315.796C1113.75 315.796 1113.58 315.856 1113.44 315.976C1112.79 316.744 1111.94 317.512 1110.88 318.28C1109.82 319.048 1108.46 319.924 1106.78 320.908ZM1112.28 324.94C1109.12 325.06 1106.24 325.12 1103.64 325.12L1103.43 322.924C1107.51 322.924 1111.43 322.828 1115.2 322.636C1118.99 322.444 1122.2 322.144 1124.81 321.736L1125.06 323.824C1122.3 324.256 1118.93 324.58 1114.95 324.796V328.828H1112.28V324.94ZM1130.25 329.98V341.86H1111.89C1111.31 341.86 1110.87 341.704 1110.56 341.392C1110.24 341.08 1110.09 340.624 1110.09 340.024V329.98H1112.75V333.76H1127.58V329.98H1130.25ZM1127.58 335.812H1112.75V339.772H1127.58V335.812ZM1163.14 309.316V340.564H1160.47V309.316H1163.14ZM1153.24 309.856H1155.87V339.7H1153.24V323.824H1147.8C1147.13 325.6 1146.03 327.268 1144.49 328.828C1142.98 330.364 1140.78 332.092 1137.9 334.012L1136.1 332.176C1138.81 330.424 1140.88 328.864 1142.29 327.496C1143.71 326.104 1144.71 324.652 1145.28 323.14C1145.86 321.604 1146.15 319.72 1146.15 317.488V314.716H1136.93V312.52H1148.77V317.416C1148.77 318.976 1148.65 320.356 1148.41 321.556H1153.24V309.856ZM1202.77 309.316V340.564H1200.04V309.316H1202.77ZM1187.47 321.916C1187.81 321.916 1188.07 322.048 1188.26 322.312L1195.39 331.312L1193.3 333.148L1186.18 323.86C1186.08 323.74 1185.95 323.68 1185.78 323.68C1185.64 323.68 1185.53 323.74 1185.46 323.86C1184.81 325.276 1183.94 326.728 1182.86 328.216C1181.81 329.68 1180.37 331.48 1178.54 333.616L1176.46 331.852C1178.57 329.476 1180.19 327.448 1181.32 325.768C1182.44 324.064 1183.26 322.36 1183.76 320.656C1184.27 318.952 1184.52 316.996 1184.52 314.788V311.404H1187.26V314.752C1187.26 317.608 1186.84 320.2 1186 322.528L1186.18 322.636L1186.68 322.204C1186.94 322.012 1187.21 321.916 1187.47 321.916ZM1238.43 319.756H1233.43V328.252H1230.69V309.316H1233.43V317.452H1238.43V319.756ZM1210.25 327.388L1208.23 325.66C1210.25 324.028 1211.81 322.624 1212.91 321.448C1214.01 320.272 1214.81 319.108 1215.29 317.956C1215.79 316.78 1216.04 315.472 1216.04 314.032V313.672H1209.17V311.368H1225.62V313.672H1218.78V314.14C1218.78 316.132 1218.36 317.944 1217.52 319.576L1217.73 319.684L1218.27 319.288C1218.54 319.072 1218.8 318.964 1219.07 318.964C1219.33 318.964 1219.61 319.084 1219.89 319.324L1226.63 325.048L1224.61 326.848L1217.77 320.836C1217.63 320.692 1217.46 320.62 1217.27 320.62C1217.07 320.62 1216.91 320.692 1216.76 320.836C1216.14 321.772 1215.32 322.732 1214.31 323.716C1213.31 324.7 1211.95 325.924 1210.25 327.388ZM1213.16 330.196H1233.43V342.148H1230.73V332.5H1213.16V330.196ZM1270.5 324.508H1265.42V340.636H1262.68V309.388H1265.42V322.204H1270.5V324.508ZM1255.02 313.42H1244.79V311.08H1255.02V313.42ZM1240 317.74H1259.26V319.972H1253.94V320.188C1256.12 321.268 1257.21 323.344 1257.21 326.416C1257.21 327.976 1256.89 329.332 1256.24 330.484C1255.59 331.612 1254.69 332.476 1253.54 333.076C1252.41 333.676 1251.15 333.976 1249.76 333.976C1248.37 333.976 1247.1 333.676 1245.94 333.076C1244.82 332.476 1243.93 331.612 1243.28 330.484C1242.63 329.332 1242.31 327.976 1242.31 326.416C1242.31 323.344 1243.4 321.268 1245.58 320.188V319.972H1240V317.74ZM1254.55 325.228C1254.55 323.62 1254.12 322.396 1253.25 321.556C1252.39 320.692 1251.22 320.26 1249.76 320.26C1248.32 320.26 1247.16 320.692 1246.27 321.556C1245.4 322.42 1244.97 323.644 1244.97 325.228V326.704C1244.97 328.264 1245.42 329.488 1246.3 330.376C1247.19 331.24 1248.34 331.672 1249.76 331.672C1251.18 331.672 1252.33 331.24 1253.22 330.376C1254.1 329.488 1254.55 328.264 1254.55 326.704V325.228ZM1300.04 309.316V340.564H1297.37V309.316H1300.04ZM1290.17 309.856H1292.8V339.7H1290.17V322.456H1285.17V320.152H1290.17V309.856ZM1281.39 322.276C1281.72 322.276 1281.98 322.42 1282.14 322.708L1288.01 331.348L1285.96 333.076L1280.2 324.328C1280.13 324.184 1280.02 324.112 1279.88 324.112C1279.73 324.112 1279.62 324.196 1279.55 324.364C1279.05 325.684 1278.35 327.052 1277.46 328.468C1276.58 329.884 1275.38 331.6 1273.86 333.616L1271.92 331.924C1273.7 329.572 1275.05 327.556 1275.99 325.876C1276.92 324.196 1277.58 322.528 1277.97 320.872C1278.38 319.216 1278.58 317.296 1278.58 315.112V311.872H1281.21V315.076C1281.21 317.932 1280.87 320.488 1280.2 322.744L1280.31 322.852L1280.7 322.528C1280.9 322.36 1281.12 322.276 1281.39 322.276ZM1307.73 318.928C1307.73 317.32 1308.13 315.88 1308.95 314.608C1309.79 313.336 1311.06 312.328 1312.77 311.584C1314.47 310.84 1316.57 310.468 1319.07 310.468C1321.56 310.468 1323.66 310.84 1325.37 311.584C1327.07 312.328 1328.33 313.336 1329.15 314.608C1329.99 315.88 1330.41 317.32 1330.41 318.928C1330.41 320.512 1329.99 321.94 1329.15 323.212C1328.33 324.484 1327.07 325.504 1325.37 326.272C1323.66 327.016 1321.56 327.388 1319.07 327.388C1316.57 327.388 1314.47 327.016 1312.77 326.272C1311.06 325.504 1309.79 324.484 1308.95 323.212C1308.13 321.94 1307.73 320.512 1307.73 318.928ZM1310.68 319.324C1310.68 321.004 1311.37 322.396 1312.77 323.5C1314.16 324.604 1316.26 325.156 1319.07 325.156C1321.87 325.156 1323.97 324.604 1325.37 323.5C1326.76 322.396 1327.45 321.004 1327.45 319.324V318.532C1327.45 316.852 1326.76 315.46 1325.37 314.356C1323.97 313.228 1321.87 312.664 1319.07 312.664C1316.26 312.664 1314.16 313.228 1312.77 314.356C1311.37 315.46 1310.68 316.852 1310.68 318.532V319.324ZM1333.75 334.696V337H1304.38V334.696H1311.9V328.468H1314.6V334.696H1323.53V328.468H1326.19V334.696H1333.75ZM1339.5 330.34L1338.64 319.18V311.872H1341.8V319.18L1340.94 330.34H1339.5ZM1340.22 337.432C1339.45 337.432 1338.89 337.24 1338.53 336.856C1338.19 336.472 1338.02 335.968 1338.02 335.344V334.876C1338.02 334.252 1338.19 333.748 1338.53 333.364C1338.89 332.98 1339.45 332.788 1340.22 332.788C1340.99 332.788 1341.54 332.98 1341.88 333.364C1342.24 333.748 1342.42 334.252 1342.42 334.876V335.344C1342.42 335.968 1342.24 336.472 1341.88 336.856C1341.54 337.24 1340.99 337.432 1340.22 337.432Z" fill="#4C7AA7"/>
<g filter="url(#filter0_d_1233_9065)">
<rect x="839.773" y="471" width="547.883" height="70" rx="10" fill="white"/>
<rect x="839.023" y="470.25" width="549.383" height="71.5" rx="10.75" stroke="#4C7AA7" stroke-width="1.5"/>
</g>
<path d="M1041.41 496.034H1025.13V494.5H1041.41V496.034ZM1041.64 502.196H1024.9V500.688H1028.72L1028.04 497.23L1030.02 497.022L1030.56 500.688H1035.95L1036.49 497.022L1038.47 497.23L1037.79 500.688H1041.64V502.196ZM1043.88 504.38V506.018H1022.66V504.38H1043.88ZM1027.83 516.028H1041.35V517.64H1027.26C1026.85 517.64 1026.53 517.527 1026.3 517.302C1026.07 517.077 1025.96 516.747 1025.96 516.314V512.102H1038.78V509.71H1025.81V508.124H1040.68V513.61H1027.83V516.028ZM1065.89 494.006V516.574H1063.96V504.458H1060.38V515.95H1058.48V494.396H1060.38V502.82H1063.96V494.006H1065.89ZM1056.58 508.67L1056.84 510.23C1054.81 510.75 1052.2 511.01 1049.01 511.01H1046.88V502.56H1053.36V497.828H1046.8V496.19H1055.25V504.172H1048.78V509.398H1049.51C1052.23 509.398 1054.59 509.155 1056.58 508.67ZM1088.39 494.006V516.574H1086.44V502.69H1079.61V501.026H1086.44V494.006H1088.39ZM1082.78 507.994L1083.04 509.606C1080.45 510.161 1077.17 510.438 1073.18 510.438H1070.45V495.826H1072.4V508.774H1073.18C1077.01 508.774 1080.21 508.514 1082.78 507.994ZM1117.69 494.006V516.574H1115.72V494.006H1117.69ZM1106.64 503.106C1106.89 503.106 1107.08 503.201 1107.22 503.392L1112.36 509.892L1110.86 511.218L1105.71 504.51C1105.64 504.423 1105.54 504.38 1105.42 504.38C1105.32 504.38 1105.24 504.423 1105.19 504.51C1104.72 505.533 1104.1 506.581 1103.32 507.656C1102.55 508.713 1101.51 510.013 1100.2 511.556L1098.69 510.282C1100.21 508.566 1101.38 507.101 1102.2 505.888C1103.01 504.657 1103.6 503.427 1103.97 502.196C1104.33 500.965 1104.51 499.553 1104.51 497.958V495.514H1106.49V497.932C1106.49 499.995 1106.18 501.867 1105.58 503.548L1105.71 503.626L1106.07 503.314C1106.26 503.175 1106.45 503.106 1106.64 503.106ZM1143.45 501.546H1139.83V507.682H1137.86V494.006H1139.83V499.882H1143.45V501.546ZM1123.09 507.058L1121.63 505.81C1123.09 504.631 1124.22 503.617 1125.01 502.768C1125.81 501.919 1126.38 501.078 1126.73 500.246C1127.09 499.397 1127.28 498.452 1127.28 497.412V497.152H1122.31V495.488H1134.19V497.152H1129.25V497.49C1129.25 498.929 1128.95 500.237 1128.34 501.416L1128.5 501.494L1128.89 501.208C1129.08 501.052 1129.27 500.974 1129.46 500.974C1129.65 500.974 1129.85 501.061 1130.06 501.234L1134.92 505.368L1133.46 506.668L1128.52 502.326C1128.42 502.222 1128.3 502.17 1128.16 502.17C1128.02 502.17 1127.9 502.222 1127.8 502.326C1127.35 503.002 1126.76 503.695 1126.03 504.406C1125.3 505.117 1124.32 506.001 1123.09 507.058ZM1125.2 509.086H1139.83V517.718H1137.88V510.75H1125.2V509.086ZM1166.6 504.978H1162.94V516.626H1160.96V494.058H1162.94V503.314H1166.6V504.978ZM1155.42 496.97H1148.04V495.28H1155.42V496.97ZM1144.58 500.09H1158.49V501.702H1154.64V501.858C1156.22 502.638 1157.01 504.137 1157.01 506.356C1157.01 507.483 1156.78 508.462 1156.31 509.294C1155.84 510.109 1155.19 510.733 1154.36 511.166C1153.54 511.599 1152.63 511.816 1151.63 511.816C1150.62 511.816 1149.7 511.599 1148.87 511.166C1148.06 510.733 1147.42 510.109 1146.95 509.294C1146.48 508.462 1146.25 507.483 1146.25 506.356C1146.25 504.137 1147.04 502.638 1148.61 501.858V501.702H1144.58V500.09ZM1155.09 505.498C1155.09 504.337 1154.77 503.453 1154.15 502.846C1153.53 502.222 1152.69 501.91 1151.63 501.91C1150.59 501.91 1149.75 502.222 1149.11 502.846C1148.48 503.47 1148.17 504.354 1148.17 505.498V506.564C1148.17 507.691 1148.49 508.575 1149.13 509.216C1149.77 509.84 1150.61 510.152 1151.63 510.152C1152.65 510.152 1153.48 509.84 1154.12 509.216C1154.77 508.575 1155.09 507.691 1155.09 506.564V505.498ZM1185.26 494.006H1187.24V516.574H1185.26V494.006ZM1168.91 510.36C1171.3 509.129 1173.13 508.003 1174.39 506.98C1175.66 505.957 1176.54 504.874 1177.05 503.73C1177.57 502.586 1177.83 501.173 1177.83 499.492V497.542H1169.56V495.852H1179.8V499.466C1179.8 501.39 1179.51 503.019 1178.92 504.354C1178.35 505.689 1177.37 506.937 1175.98 508.098C1174.61 509.242 1172.64 510.499 1170.08 511.868L1168.91 510.36Z" fill="#4C7AA7"/>
<rect x="0.75" y="64.75" width="521.5" height="668.5" rx="9.25" stroke="#2B4461" stroke-width="1.5"/>
<path d="M20.8672 149.75H499.367V229C499.367 231.347 497.464 233.25 495.117 233.25H25.1172C22.77 233.25 20.8672 231.347 20.8672 229V149.75Z" fill="#F4F7FB" stroke="#4C7AA7" stroke-width="1.5"/>
<path d="M20.1172 119C20.1172 116.239 22.3558 114 25.1172 114H495.117C497.879 114 500.117 116.239 500.117 119V149H20.1172V119Z" fill="#4C7AA7"/>
<mask id="mask0_1233_9065" style="mask-type:luminance" maskUnits="userSpaceOnUse" x="86" y="161" width="81" height="60">
<path d="M166.117 221V161H86.1172V221H166.117Z" fill="white"/>
</mask>
<g mask="url(#mask0_1233_9065)">
<path d="M135.631 196.29L118.306 216.5H111.449L120.11 196.29H101.732L96.0205 203.868H90.8779L94.3062 192.5L90.8779 181.132H96.0205L101.736 188.71H120.113L111.449 168.5H118.306L135.631 188.71H154.306C157.146 188.71 159.449 190.407 159.449 192.5C159.449 194.593 157.146 196.29 154.306 196.29H135.631Z" fill="#1B2636"/>
</g>
<path d="M238.597 204H235.717V202.08H234.757V200.16H233.797V198.24H232.837V196.32H231.877V194.4H229.957V195.36H228.997V204H226.117V182.88H228.997V191.52H229.957V190.56H230.917V189.6H231.877V188.64H232.837V187.68H233.797V186.72H234.757V185.728H235.717V184.8H236.677V183.84H237.637V182.88H238.597V186.72H237.637V187.68H236.677V188.64H235.717V189.568H234.757V190.56H233.797V191.52H232.837V192.48H233.797V193.44H234.757V195.36H235.717V197.28H236.677V199.2H237.637V201.12H238.597V204ZM253.003 200.16H252.043V201.12H251.083V202.08H250.123V203.04H249.163V204H244.363V203.04H243.403V202.08H242.443V201.12H241.483V200.16H240.523V186.72H241.483V185.76H242.443V184.8H243.403V183.84H244.363V182.88H249.163V183.84H250.123V184.8H251.083V185.76H252.043V186.72H253.003V200.16ZM250.123 199.2V187.68H249.163V186.72H248.203V185.76H245.323V186.72H244.363V187.68H243.403V199.2H244.363V200.16H245.323V201.12H248.203V200.16H249.163V199.2H250.123ZM267.41 204H264.53V200.16H263.57V198.24H262.61V196.32H261.65V194.4H257.81V204H254.93V182.88H264.53V183.84H265.49V184.8H266.45V185.76H267.41V191.52H266.45V192.48H265.49V193.44H264.53V195.36H265.49V197.28H266.45V199.2H267.41V204ZM264.53 190.56V186.72H263.57V185.76H257.81V191.52H263.57V190.56H264.53ZM281.816 204H269.336V182.88H281.816V185.76H272.216V191.52H279.896V194.4H272.216V201.12H281.816V204ZM296.222 204H293.342V199.2H286.622V204H283.742V196.32V195.36V193.44H284.702V191.52H285.662V189.6H286.622V187.68H287.582V185.76H288.542V183.84H289.502V182.88H290.462V183.84H291.422V185.76H292.382V187.68H293.342V189.6H294.302V191.52H295.262V193.44H296.222V195.36V196.32V204ZM293.342 196.32V195.36V194.4H292.382V192.48H291.422V190.56H290.462V188.64H289.502V190.56H288.542V192.48H287.582V194.4H286.622V195.36V196.32H293.342Z" fill="#1B2636"/>
<path d="M366.797 187.2H366.437V187.56H366.077V187.92H365.717V188.28H365.357V188.64H364.985V189H362.117V181.08H364.997V181.44H365.357V181.8H365.717V182.16H366.077V182.52H366.437V182.88H366.797V187.2ZM365.717 186.84V183.24H365.357V182.88H364.997V182.52H364.637V182.16H363.197V187.92H364.637V187.56H364.997V187.2H365.357V186.84H365.717ZM372.2 186.12H371.84V186.48H371.48V186.84H368.6V187.56H368.96V187.92H371.84V189H368.6V188.64H368.24V188.28H367.88V187.92H367.52V184.32H367.88V183.96H368.24V183.6H368.6V183.24H371.12V183.6H371.48V183.96H371.84V184.32H372.2V186.12ZM371.12 185.76V184.68H370.76V184.32H368.96V184.68H368.6V185.76H371.12ZM377.602 186.48H377.242V186.84H376.882V187.2H376.522V187.56H374.722V187.2H374.362V186.84H374.002V189H372.922V183.24H374.002V183.96H374.362V183.6H374.722V183.24H376.522V183.6H376.882V183.96H377.242V184.32H377.602V186.48ZM376.522 186.12V184.68H376.162V184.32H374.722V184.68H374.362V185.04H374.002V185.76H374.362V186.12H374.722V186.48H376.162V186.12H376.522ZM383.004 189H381.924V188.28H381.564V188.64H381.204V189H379.404V188.64H379.044V188.28H378.684V187.92H378.324V184.32H378.684V183.96H379.044V183.6H379.404V183.24H381.204V183.6H381.564V183.96H381.924V183.24H383.004V189ZM381.924 187.2V185.04H381.564V184.68H381.204V184.32H379.764V184.68H379.404V187.56H379.764V187.92H381.204V187.56H381.564V187.2H381.924ZM388.407 184.68H387.687V184.32H385.167V184.68H384.807V189H383.727V184.32H384.087V183.96H384.447V183.6H384.807V183.24H388.047V183.6H388.407V184.68ZM393.809 187.92H393.449V188.28H393.089V188.64H392.729V189H390.569V188.64H390.209V188.28H389.849V187.92H389.489V187.56H389.129V182.52H390.209V183.96H393.449V185.04H390.209V187.2H390.569V187.56H390.929V187.92H392.369V187.56H392.729V187.2H393.809V187.92ZM399.211 189H398.131V188.28H397.771V188.64H397.411V189H395.611V188.64H395.251V188.28H394.891V187.92H394.531V183.24H395.611V187.56H395.971V187.92H397.411V187.56H397.771V187.2H398.131V183.24H399.211V189ZM404.614 184.68H403.894V184.32H401.374V184.68H401.014V189H399.934V184.32H400.294V183.96H400.654V183.6H401.014V183.24H404.254V183.6H404.614V184.68ZM410.016 186.12H409.656V186.48H409.296V186.84H406.416V187.56H406.776V187.92H409.656V189H406.416V188.64H406.056V188.28H405.696V187.92H405.336V184.32H405.696V183.96H406.056V183.6H406.416V183.24H408.936V183.6H409.296V183.96H409.656V184.32H410.016V186.12ZM408.936 185.76V184.68H408.576V184.32H406.776V184.68H406.416V185.76H408.936ZM413.618 186.12H412.178V184.68H413.618V186.12ZM413.618 189H412.178V187.56H413.618V189ZM426.223 189H421.543V186.12H421.903V185.76H422.263V185.4H422.623V185.04H422.983V184.68H424.423V184.32H424.783V183.96H425.143V182.52H424.783V182.16H422.983V182.52H422.623V183.24H421.543V182.16H421.903V181.8H422.263V181.44H422.623V181.08H425.143V181.44H425.503V181.8H425.863V182.16H426.223V184.32H425.863V184.68H425.503V185.04H425.143V185.4H424.783V185.76H423.343V186.12H422.983V186.48H422.623V187.92H426.223V189ZM431.625 187.56H431.265V187.92H430.905V188.28H430.545V188.64H430.185V189H428.385V188.64H428.025V188.28H427.665V187.92H427.305V187.56H426.945V182.52H427.305V182.16H427.665V181.8H428.025V181.44H428.385V181.08H430.185V181.44H430.545V181.8H430.905V182.16H431.265V182.52H431.625V187.56ZM430.185 182.88V182.52V182.16H428.385V182.52H428.025V186.48H428.385V185.76H428.745V185.04H429.105V184.32H429.465V183.6H429.825V182.88H430.185ZM430.545 187.56V183.96H430.185V184.68H429.825V185.4H429.465V186.12H429.105V186.84H428.745V187.56H428.385V187.92H430.185V187.56H430.545ZM437.028 189H432.348V186.12H432.708V185.76H433.068V185.4H433.428V185.04H433.788V184.68H435.228V184.32H435.588V183.96H435.948V182.52H435.588V182.16H433.788V182.52H433.428V183.24H432.348V182.16H432.708V181.8H433.068V181.44H433.428V181.08H435.948V181.44H436.308V181.8H436.668V182.16H437.028V184.32H436.668V184.68H436.308V185.04H435.948V185.4H435.588V185.76H434.148V186.12H433.788V186.48H433.428V187.92H437.028V189ZM442.43 187.56H441.71V189H440.63V187.56H437.75V187.2V186.84H438.11V186.12H438.47V185.4H438.83V184.68H439.19V183.96H439.55V183.24H439.91V182.52H440.27V181.8H440.63V181.08H441.71V186.48H442.43V187.56ZM440.63 186.48V183.6H440.27V184.32H439.91V185.04H439.55V185.76H439.19V186.48H440.63ZM446.032 189H444.592V187.56H446.032V189ZM453.235 189H448.555V187.92H450.355V182.16H449.275V181.08H451.435V187.92H453.235V189ZM458.637 189H453.957V187.92H455.757V182.16H454.677V181.08H456.837V187.92H458.637V189ZM462.239 189H460.799V187.56H462.239V189ZM469.442 189H464.762V186.12H465.122V185.76H465.482V185.4H465.842V185.04H466.202V184.68H467.642V184.32H468.002V183.96H468.362V182.52H468.002V182.16H466.202V182.52H465.842V183.24H464.762V182.16H465.122V181.8H465.482V181.44H465.842V181.08H468.362V181.44H468.722V181.8H469.082V182.16H469.442V184.32H469.082V184.68H468.722V185.04H468.362V185.4H468.002V185.76H466.562V186.12H466.202V186.48H465.842V187.92H469.442V189ZM474.844 187.56H474.484V187.92H474.124V188.28H473.764V188.64H473.404V189H471.604V188.64H471.244V188.28H470.884V187.92H470.524V187.56H470.164V182.52H470.524V182.16H470.884V181.8H471.244V181.44H471.604V181.08H473.404V181.44H473.764V181.8H474.124V182.16H474.484V182.52H474.844V187.56ZM473.404 182.88V182.52V182.16H471.604V182.52H471.244V186.48H471.604V185.76H471.964V185.04H472.324V184.32H472.684V183.6H473.044V182.88H473.404ZM473.764 187.56V183.96H473.404V184.68H473.044V185.4H472.684V186.12H472.324V186.84H471.964V187.56H471.604V187.92H473.404V187.56H473.764ZM366.797 203H365.717V201.2H363.197V203H362.117V200.12V199.76V199.04H362.477V198.32H362.837V197.6H363.197V196.88H363.557V196.16H363.917V195.44H364.277V195.08H364.637V195.44H364.997V196.16H365.357V196.88H365.717V197.6H366.077V198.32H366.437V199.04H366.797V199.76V200.12V203ZM365.717 200.12V199.76V199.4H365.357V198.68H364.997V197.96H364.637V197.24H364.277V197.96H363.917V198.68H363.557V199.4H363.197V199.76V200.12H365.717ZM372.2 198.68H371.48V198.32H368.96V198.68H368.6V203H367.52V198.32H367.88V197.96H368.24V197.6H368.6V197.24H371.84V197.6H372.2V198.68ZM377.602 198.68H376.882V198.32H374.362V198.68H374.002V203H372.922V198.32H373.282V197.96H373.642V197.6H374.002V197.24H377.242V197.6H377.602V198.68ZM381.204 196.16H380.124V195.08H381.204V196.16ZM383.004 203H378.324V201.92H380.124V198.32H379.404V197.24H381.204V201.92H383.004V203ZM388.407 198.68H388.047V199.4H387.687V200.12H387.327V200.84H386.967V201.56H386.607V202.28H386.247V203H385.887V202.28H385.527V201.56H385.167V200.84H384.807V200.12H384.447V199.4H384.087V198.68H383.727V197.24H384.807V198.32H385.167V199.04H385.527V199.76H385.887V200.48H386.247V199.76H386.607V199.04H386.967V198.32H387.327V197.24H388.407V198.68ZM393.809 203H392.729V202.28H392.369V202.64H392.009V203H390.209V202.64H389.849V202.28H389.489V201.92H389.129V198.32H389.489V197.96H389.849V197.6H390.209V197.24H392.009V197.6H392.369V197.96H392.729V197.24H393.809V203ZM392.729 201.2V199.04H392.369V198.68H392.009V198.32H390.569V198.68H390.209V201.56H390.569V201.92H392.009V201.56H392.369V201.2H392.729ZM399.211 203H396.691V202.64H396.331V202.28H395.971V201.92H395.611V196.16H394.531V195.08H396.691V201.56H397.051V201.92H399.211V203ZM402.814 200.12H401.374V198.68H402.814V200.12ZM402.814 203H401.374V201.56H402.814V203ZM426.223 203H421.543V200.12H421.903V199.76H422.263V199.4H422.623V199.04H422.983V198.68H424.423V198.32H424.783V197.96H425.143V196.52H424.783V196.16H422.983V196.52H422.623V197.24H421.543V196.16H421.903V195.8H422.263V195.44H422.623V195.08H425.143V195.44H425.503V195.8H425.863V196.16H426.223V198.32H425.863V198.68H425.503V199.04H425.143V199.4H424.783V199.76H423.343V200.12H422.983V200.48H422.623V201.92H426.223V203ZM431.625 201.56H431.265V201.92H430.905V202.28H430.545V202.64H430.185V203H428.385V202.64H428.025V202.28H427.665V201.92H427.305V201.56H426.945V196.52H427.305V196.16H427.665V195.8H428.025V195.44H428.385V195.08H430.185V195.44H430.545V195.8H430.905V196.16H431.265V196.52H431.625V201.56ZM430.185 196.88V196.52V196.16H428.385V196.52H428.025V200.48H428.385V199.76H428.745V199.04H429.105V198.32H429.465V197.6H429.825V196.88H430.185ZM430.545 201.56V197.96H430.185V198.68H429.825V199.4H429.465V200.12H429.105V200.84H428.745V201.56H428.385V201.92H430.185V201.56H430.545ZM437.028 203H432.348V200.12H432.708V199.76H433.068V199.4H433.428V199.04H433.788V198.68H435.228V198.32H435.588V197.96H435.948V196.52H435.588V196.16H433.788V196.52H433.428V197.24H432.348V196.16H432.708V195.8H433.068V195.44H433.428V195.08H435.948V195.44H436.308V195.8H436.668V196.16H437.028V198.32H436.668V198.68H436.308V199.04H435.948V199.4H435.588V199.76H434.148V200.12H433.788V200.48H433.428V201.92H437.028V203ZM442.43 201.56H441.71V203H440.63V201.56H437.75V201.2V200.84H438.11V200.12H438.47V199.4H438.83V198.68H439.19V197.96H439.55V197.24H439.91V196.52H440.27V195.8H440.63V195.08H441.71V200.48H442.43V201.56ZM440.63 200.48V197.6H440.27V198.32H439.91V199.04H439.55V199.76H439.19V200.48H440.63ZM446.032 203H444.592V201.56H446.032V203ZM453.235 203H448.555V201.92H450.355V196.16H449.275V195.08H451.435V201.92H453.235V203ZM458.637 203H453.957V201.92H455.757V196.16H454.677V195.08H456.837V201.92H458.637V203ZM462.239 203H460.799V201.56H462.239V203ZM469.442 203H464.762V200.12H465.122V199.76H465.482V199.4H465.842V199.04H466.202V198.68H467.642V198.32H468.002V197.96H468.362V196.52H468.002V196.16H466.202V196.52H465.842V197.24H464.762V196.16H465.122V195.8H465.482V195.44H465.842V195.08H468.362V195.44H468.722V195.8H469.082V196.16H469.442V198.32H469.082V198.68H468.722V199.04H468.362V199.4H468.002V199.76H466.562V200.12H466.202V200.48H465.842V201.92H469.442V203ZM474.844 203H470.164V200.12H470.524V199.76H470.884V199.4H471.244V199.04H471.604V198.68H473.044V198.32H473.404V197.96H473.764V196.52H473.404V196.16H471.604V196.52H471.244V197.24H470.164V196.16H470.524V195.8H470.884V195.44H471.244V195.08H473.764V195.44H474.124V195.8H474.484V196.16H474.844V198.32H474.484V198.68H474.124V199.04H473.764V199.4H473.404V199.76H471.964V200.12H471.604V200.48H471.244V201.92H474.844V203Z" fill="#1B2636"/>
<mask id="mask1_1233_9065" style="mask-type:luminance" maskUnits="userSpaceOnUse" x="30" y="117" width="31" height="30">
<path d="M60.1172 117H30.1172V147H60.1172V117Z" fill="white"/>
</mask>
<g mask="url(#mask1_1233_9065)">
<path d="M43.3823 130.487L37.7446 121.647L40.1582 121L48.8472 129.025L55.4248 127.263C56.4251 126.995 57.4533 127.589 57.7212 128.589C57.989 129.589 57.3948 130.617 56.3945 130.885L37.6797 135.897L36.7095 132.275L37.0107 132.194L40.0947 135.25L36.812 136.13C36.2582 136.278 35.6746 136.031 35.396 135.53L32.1172 129.623L33.9282 129.138L37.0107 132.194L43.3823 130.487ZM35.2847 139.697H55.2847V142.197H35.2847V139.697Z" fill="#F4F7FB"/>
</g>
<path d="M236.917 138H235.117V131.4H234.517V132.6H233.917V133.8H233.317V135H232.717V133.8H232.117V132.6H231.517V131.4H230.917V138H229.117V124.8H229.717V126H230.317V127.2H230.917V128.4H231.517V129.6H232.117V130.8H232.717V132H233.317V130.8H233.917V129.6H234.517V128.4H235.117V127.2H235.717V126H236.317V124.8H236.917V138ZM245.921 126.6H245.321V127.8H244.721V129H244.121V130.2H243.521V131.4H242.921V138H241.121V131.4H240.521V130.2H239.921V129H239.321V127.8H238.721V126.6H238.121V124.8H239.921V126H240.521V127.2H241.121V128.4H241.721V129.6H242.321V128.4H242.921V127.2H243.521V126H244.121V124.8H245.921V126.6ZM263.929 126.6H260.929V138H259.129V126.6H256.129V124.8H263.929V126.6ZM272.933 138H271.133V135.6H270.533V134.4H269.933V133.2H269.333V132H266.933V138H265.133V124.8H271.133V125.4H271.733V126H272.333V126.6H272.933V130.2H272.333V130.8H271.733V131.4H271.133V132.6H271.733V133.8H272.333V135H272.933V138ZM271.133 129.6V127.2H270.533V126.6H266.933V130.2H270.533V129.6H271.133ZM281.937 138H274.137V136.2H277.137V126.6H275.937V124.8H280.137V126.6H278.937V136.2H281.937V138ZM290.941 130.8H290.341V131.4H289.741V132H289.141V132.6H284.941V138H283.141V124.8H289.141V125.4H289.741V126H290.341V126.6H290.941V130.8ZM289.141 130.2V127.2H288.541V126.6H284.941V130.8H288.541V130.2H289.141Z" fill="#F4F7FB"/>
<path d="M20.8672 299.75H499.367V379C499.367 381.347 497.464 383.25 495.117 383.25H25.1172C22.77 383.25 20.8672 381.347 20.8672 379V299.75Z" fill="#F4F7FB" stroke="#4C7AA7" stroke-width="1.5"/>
<path d="M20.1172 269C20.1172 266.239 22.3558 264 25.1172 264H495.117C497.879 264 500.117 266.239 500.117 269V299H20.1172V269Z" fill="#4C7AA7"/>
<mask id="mask2_1233_9065" style="mask-type:luminance" maskUnits="userSpaceOnUse" x="86" y="311" width="81" height="60">
<path d="M166.117 371V311H86.1172V371H166.117Z" fill="white"/>
</mask>
<g mask="url(#mask2_1233_9065)">
<path d="M135.631 346.29L118.306 366.5H111.449L120.11 346.29H101.732L96.0205 353.868H90.8779L94.3062 342.5L90.8779 331.132H96.0205L101.736 338.71H120.113L111.449 318.5H118.306L135.631 338.71H154.306C157.146 338.71 159.449 340.407 159.449 342.5C159.449 344.593 157.146 346.29 154.306 346.29H135.631Z" fill="#1B2636"/>
</g>
<path d="M238.597 350.16H237.637V351.12H236.677V352.08H235.717V353.04H234.757V354H228.997V353.04H228.037V352.08H227.077V351.12H226.117V347.28H228.997V350.16H229.957V351.12H233.797V350.16H234.757V349.2H235.717V335.76H229.957V332.88H238.597V350.16ZM253.003 354H250.123V349.2H243.403V354H240.523V346.32V345.36V343.44H241.483V341.52H242.443V339.6H243.403V337.68H244.363V335.76H245.323V333.84H246.283V332.88H247.243V333.84H248.203V335.76H249.163V337.68H250.123V339.6H251.083V341.52H252.043V343.44H253.003V345.36V346.32V354ZM250.123 346.32V345.36V344.4H249.163V342.48H248.203V340.56H247.243V338.64H246.283V340.56H245.323V342.48H244.363V344.4H243.403V345.36V346.32H250.123ZM267.41 342.48H266.45V343.44H265.49V344.4H264.53V345.36H257.81V354H254.93V332.88H264.53V333.84H265.49V334.8H266.45V335.76H267.41V342.48ZM264.53 341.52V336.72H263.57V335.76H257.81V342.48H263.57V341.52H264.53ZM281.816 354H278.936V349.2H272.216V354H269.336V346.32V345.36V343.44H270.296V341.52H271.256V339.6H272.216V337.68H273.176V335.76H274.136V333.84H275.096V332.88H276.056V333.84H277.016V335.76H277.976V337.68H278.936V339.6H279.896V341.52H280.856V343.44H281.816V345.36V346.32V354ZM278.936 346.32V345.36V344.4H277.976V342.48H277.016V340.56H276.056V338.64H275.096V340.56H274.136V342.48H273.176V344.4H272.216V345.36V346.32H278.936ZM296.222 354H293.342V353.04H292.382V351.12H291.422V349.2H290.462V347.28H289.502V345.36H288.542V343.44H287.582V341.52H286.622V354H283.742V332.88H285.662V334.8H286.622V336.72H287.582V338.64H288.542V340.56H289.502V342.48H290.462V344.4H291.422V346.32H292.382V348.24H293.342V332.88H296.222V354Z" fill="#1B2636"/>
<path d="M366.797 337.2H366.437V337.56H366.077V337.92H365.717V338.28H365.357V338.64H364.985V339H362.117V331.08H364.997V331.44H365.357V331.8H365.717V332.16H366.077V332.52H366.437V332.88H366.797V337.2ZM365.717 336.84V333.24H365.357V332.88H364.997V332.52H364.637V332.16H363.197V337.92H364.637V337.56H364.997V337.2H365.357V336.84H365.717ZM372.2 336.12H371.84V336.48H371.48V336.84H368.6V337.56H368.96V337.92H371.84V339H368.6V338.64H368.24V338.28H367.88V337.92H367.52V334.32H367.88V333.96H368.24V333.6H368.6V333.24H371.12V333.6H371.48V333.96H371.84V334.32H372.2V336.12ZM371.12 335.76V334.68H370.76V334.32H368.96V334.68H368.6V335.76H371.12ZM377.602 336.48H377.242V336.84H376.882V337.2H376.522V337.56H374.722V337.2H374.362V336.84H374.002V339H372.922V333.24H374.002V333.96H374.362V333.6H374.722V333.24H376.522V333.6H376.882V333.96H377.242V334.32H377.602V336.48ZM376.522 336.12V334.68H376.162V334.32H374.722V334.68H374.362V335.04H374.002V335.76H374.362V336.12H374.722V336.48H376.162V336.12H376.522ZM383.004 339H381.924V338.28H381.564V338.64H381.204V339H379.404V338.64H379.044V338.28H378.684V337.92H378.324V334.32H378.684V333.96H379.044V333.6H379.404V333.24H381.204V333.6H381.564V333.96H381.924V333.24H383.004V339ZM381.924 337.2V335.04H381.564V334.68H381.204V334.32H379.764V334.68H379.404V337.56H379.764V337.92H381.204V337.56H381.564V337.2H381.924ZM388.407 334.68H387.687V334.32H385.167V334.68H384.807V339H383.727V334.32H384.087V333.96H384.447V333.6H384.807V333.24H388.047V333.6H388.407V334.68ZM393.809 337.92H393.449V338.28H393.089V338.64H392.729V339H390.569V338.64H390.209V338.28H389.849V337.92H389.489V337.56H389.129V332.52H390.209V333.96H393.449V335.04H390.209V337.2H390.569V337.56H390.929V337.92H392.369V337.56H392.729V337.2H393.809V337.92ZM399.211 339H398.131V338.28H397.771V338.64H397.411V339H395.611V338.64H395.251V338.28H394.891V337.92H394.531V333.24H395.611V337.56H395.971V337.92H397.411V337.56H397.771V337.2H398.131V333.24H399.211V339ZM404.614 334.68H403.894V334.32H401.374V334.68H401.014V339H399.934V334.32H400.294V333.96H400.654V333.6H401.014V333.24H404.254V333.6H404.614V334.68ZM410.016 336.12H409.656V336.48H409.296V336.84H406.416V337.56H406.776V337.92H409.656V339H406.416V338.64H406.056V338.28H405.696V337.92H405.336V334.32H405.696V333.96H406.056V333.6H406.416V333.24H408.936V333.6H409.296V333.96H409.656V334.32H410.016V336.12ZM408.936 335.76V334.68H408.576V334.32H406.776V334.68H406.416V335.76H408.936ZM413.618 336.12H412.178V334.68H413.618V336.12ZM413.618 339H412.178V337.56H413.618V339ZM426.223 339H421.543V336.12H421.903V335.76H422.263V335.4H422.623V335.04H422.983V334.68H424.423V334.32H424.783V333.96H425.143V332.52H424.783V332.16H422.983V332.52H422.623V333.24H421.543V332.16H421.903V331.8H422.263V331.44H422.623V331.08H425.143V331.44H425.503V331.8H425.863V332.16H426.223V334.32H425.863V334.68H425.503V335.04H425.143V335.4H424.783V335.76H423.343V336.12H422.983V336.48H422.623V337.92H426.223V339ZM431.625 337.56H431.265V337.92H430.905V338.28H430.545V338.64H430.185V339H428.385V338.64H428.025V338.28H427.665V337.92H427.305V337.56H426.945V332.52H427.305V332.16H427.665V331.8H428.025V331.44H428.385V331.08H430.185V331.44H430.545V331.8H430.905V332.16H431.265V332.52H431.625V337.56ZM430.185 332.88V332.52V332.16H428.385V332.52H428.025V336.48H428.385V335.76H428.745V335.04H429.105V334.32H429.465V333.6H429.825V332.88H430.185ZM430.545 337.56V333.96H430.185V334.68H429.825V335.4H429.465V336.12H429.105V336.84H428.745V337.56H428.385V337.92H430.185V337.56H430.545ZM437.028 339H432.348V336.12H432.708V335.76H433.068V335.4H433.428V335.04H433.788V334.68H435.228V334.32H435.588V333.96H435.948V332.52H435.588V332.16H433.788V332.52H433.428V333.24H432.348V332.16H432.708V331.8H433.068V331.44H433.428V331.08H435.948V331.44H436.308V331.8H436.668V332.16H437.028V334.32H436.668V334.68H436.308V335.04H435.948V335.4H435.588V335.76H434.148V336.12H433.788V336.48H433.428V337.92H437.028V339ZM442.43 337.56H441.71V339H440.63V337.56H437.75V337.2V336.84H438.11V336.12H438.47V335.4H438.83V334.68H439.19V333.96H439.55V333.24H439.91V332.52H440.27V331.8H440.63V331.08H441.71V336.48H442.43V337.56ZM440.63 336.48V333.6H440.27V334.32H439.91V335.04H439.55V335.76H439.19V336.48H440.63ZM446.032 339H444.592V337.56H446.032V339ZM453.235 339H448.555V337.92H450.355V332.16H449.275V331.08H451.435V337.92H453.235V339ZM458.637 339H453.957V336.12H454.317V335.76H454.677V335.4H455.037V335.04H455.397V334.68H456.837V334.32H457.197V333.96H457.557V332.52H457.197V332.16H455.397V332.52H455.037V333.24H453.957V332.16H454.317V331.8H454.677V331.44H455.037V331.08H457.557V331.44H457.917V331.8H458.277V332.16H458.637V334.32H458.277V334.68H457.917V335.04H457.557V335.4H457.197V335.76H455.757V336.12H455.397V336.48H455.037V337.92H458.637V339ZM462.239 339H460.799V337.56H462.239V339ZM469.442 339H464.762V336.12H465.122V335.76H465.482V335.4H465.842V335.04H466.202V334.68H467.642V334.32H468.002V333.96H468.362V332.52H468.002V332.16H466.202V332.52H465.842V333.24H464.762V332.16H465.122V331.8H465.482V331.44H465.842V331.08H468.362V331.44H468.722V331.8H469.082V332.16H469.442V334.32H469.082V334.68H468.722V335.04H468.362V335.4H468.002V335.76H466.562V336.12H466.202V336.48H465.842V337.92H469.442V339ZM474.844 337.92H474.484V338.28H474.124V338.64H473.764V339H471.244V338.64H470.884V338.28H470.524V337.92H470.164V335.4H470.524V335.04H470.884V334.68H470.524V334.32H470.164V332.16H470.524V331.8H470.884V331.44H471.244V331.08H473.764V331.44H474.124V331.8H474.484V332.16H474.844V334.32H474.484V334.68H474.124V335.04H474.484V335.4H474.844V337.92ZM473.764 333.96V332.52H473.404V332.16H471.604V332.52H471.244V333.96H471.604V334.32H473.404V333.96H473.764ZM473.764 337.56V335.76H473.404V335.4H471.604V335.76H471.244V337.56H471.604V337.92H473.404V337.56H473.764ZM366.797 353H365.717V351.2H363.197V353H362.117V350.12V349.76V349.04H362.477V348.32H362.837V347.6H363.197V346.88H363.557V346.16H363.917V345.44H364.277V345.08H364.637V345.44H364.997V346.16H365.357V346.88H365.717V347.6H366.077V348.32H366.437V349.04H366.797V349.76V350.12V353ZM365.717 350.12V349.76V349.4H365.357V348.68H364.997V347.96H364.637V347.24H364.277V347.96H363.917V348.68H363.557V349.4H363.197V349.76V350.12H365.717ZM372.2 348.68H371.48V348.32H368.96V348.68H368.6V353H367.52V348.32H367.88V347.96H368.24V347.6H368.6V347.24H371.84V347.6H372.2V348.68ZM377.602 348.68H376.882V348.32H374.362V348.68H374.002V353H372.922V348.32H373.282V347.96H373.642V347.6H374.002V347.24H377.242V347.6H377.602V348.68ZM381.204 346.16H380.124V345.08H381.204V346.16ZM383.004 353H378.324V351.92H380.124V348.32H379.404V347.24H381.204V351.92H383.004V353ZM388.407 348.68H388.047V349.4H387.687V350.12H387.327V350.84H386.967V351.56H386.607V352.28H386.247V353H385.887V352.28H385.527V351.56H385.167V350.84H384.807V350.12H384.447V349.4H384.087V348.68H383.727V347.24H384.807V348.32H385.167V349.04H385.527V349.76H385.887V350.48H386.247V349.76H386.607V349.04H386.967V348.32H387.327V347.24H388.407V348.68ZM393.809 353H392.729V352.28H392.369V352.64H392.009V353H390.209V352.64H389.849V352.28H389.489V351.92H389.129V348.32H389.489V347.96H389.849V347.6H390.209V347.24H392.009V347.6H392.369V347.96H392.729V347.24H393.809V353ZM392.729 351.2V349.04H392.369V348.68H392.009V348.32H390.569V348.68H390.209V351.56H390.569V351.92H392.009V351.56H392.369V351.2H392.729ZM399.211 353H396.691V352.64H396.331V352.28H395.971V351.92H395.611V346.16H394.531V345.08H396.691V351.56H397.051V351.92H399.211V353ZM402.814 350.12H401.374V348.68H402.814V350.12ZM402.814 353H401.374V351.56H402.814V353ZM426.223 353H421.543V350.12H421.903V349.76H422.263V349.4H422.623V349.04H422.983V348.68H424.423V348.32H424.783V347.96H425.143V346.52H424.783V346.16H422.983V346.52H422.623V347.24H421.543V346.16H421.903V345.8H422.263V345.44H422.623V345.08H425.143V345.44H425.503V345.8H425.863V346.16H426.223V348.32H425.863V348.68H425.503V349.04H425.143V349.4H424.783V349.76H423.343V350.12H422.983V350.48H422.623V351.92H426.223V353ZM431.625 351.56H431.265V351.92H430.905V352.28H430.545V352.64H430.185V353H428.385V352.64H428.025V352.28H427.665V351.92H427.305V351.56H426.945V346.52H427.305V346.16H427.665V345.8H428.025V345.44H428.385V345.08H430.185V345.44H430.545V345.8H430.905V346.16H431.265V346.52H431.625V351.56ZM430.185 346.88V346.52V346.16H428.385V346.52H428.025V350.48H428.385V349.76H428.745V349.04H429.105V348.32H429.465V347.6H429.825V346.88H430.185ZM430.545 351.56V347.96H430.185V348.68H429.825V349.4H429.465V350.12H429.105V350.84H428.745V351.56H428.385V351.92H430.185V351.56H430.545ZM437.028 353H432.348V350.12H432.708V349.76H433.068V349.4H433.428V349.04H433.788V348.68H435.228V348.32H435.588V347.96H435.948V346.52H435.588V346.16H433.788V346.52H433.428V347.24H432.348V346.16H432.708V345.8H433.068V345.44H433.428V345.08H435.948V345.44H436.308V345.8H436.668V346.16H437.028V348.32H436.668V348.68H436.308V349.04H435.948V349.4H435.588V349.76H434.148V350.12H433.788V350.48H433.428V351.92H437.028V353ZM442.43 351.56H441.71V353H440.63V351.56H437.75V351.2V350.84H438.11V350.12H438.47V349.4H438.83V348.68H439.19V347.96H439.55V347.24H439.91V346.52H440.27V345.8H440.63V345.08H441.71V350.48H442.43V351.56ZM440.63 350.48V347.6H440.27V348.32H439.91V349.04H439.55V349.76H439.19V350.48H440.63ZM446.032 353H444.592V351.56H446.032V353ZM453.235 353H448.555V351.92H450.355V346.16H449.275V345.08H451.435V351.92H453.235V353ZM458.637 353H453.957V350.12H454.317V349.76H454.677V349.4H455.037V349.04H455.397V348.68H456.837V348.32H457.197V347.96H457.557V346.52H457.197V346.16H455.397V346.52H455.037V347.24H453.957V346.16H454.317V345.8H454.677V345.44H455.037V345.08H457.557V345.44H457.917V345.8H458.277V346.16H458.637V348.32H458.277V348.68H457.917V349.04H457.557V349.4H457.197V349.76H455.757V350.12H455.397V350.48H455.037V351.92H458.637V353ZM462.239 353H460.799V351.56H462.239V353ZM469.442 351.92H469.082V352.28H468.722V352.64H468.362V353H465.842V352.64H465.482V352.28H465.122V351.92H464.762V350.84H465.842V351.56H466.202V351.92H468.002V351.56H468.362V350.12H468.002V349.76H467.642V349.4H467.282V349.04H466.922V348.68H466.562V348.32H466.202V347.96H466.562V347.6H466.922V347.24H467.282V346.88H467.642V346.52H468.002V346.16H464.762V345.08H469.442V346.52H469.082V346.88H468.722V347.24H468.362V347.6H468.002V347.96H467.642V348.32H468.002V348.68H468.362V349.04H468.722V349.4H469.082V349.76H469.442V351.92ZM474.844 353H470.164V351.92H471.964V346.16H470.884V345.08H473.044V351.92H474.844V353Z" fill="#1B2636"/>
<mask id="mask3_1233_9065" style="mask-type:luminance" maskUnits="userSpaceOnUse" x="30" y="267" width="31" height="30">
<path d="M60.1172 267H30.1172V297H60.1172V267Z" fill="white"/>
</mask>
<g mask="url(#mask3_1233_9065)">
<path d="M43.3823 280.487L37.7446 271.647L40.1582 271L48.8472 279.025L55.4248 277.263C56.4251 276.995 57.4533 277.589 57.7212 278.589C57.989 279.589 57.3948 280.617 56.3945 280.885L37.6797 285.897L36.7095 282.275L37.0107 282.194L40.0947 285.25L36.812 286.13C36.2582 286.278 35.6746 286.031 35.396 285.53L32.1172 279.623L33.9282 279.138L37.0107 282.194L43.3823 280.487ZM35.2847 289.697H55.2847V292.197H35.2847V289.697Z" fill="#F4F7FB"/>
</g>
<path d="M236.917 288H235.117V281.4H234.517V282.6H233.917V283.8H233.317V285H232.717V283.8H232.117V282.6H231.517V281.4H230.917V288H229.117V274.8H229.717V276H230.317V277.2H230.917V278.4H231.517V279.6H232.117V280.8H232.717V282H233.317V280.8H233.917V279.6H234.517V278.4H235.117V277.2H235.717V276H236.317V274.8H236.917V288ZM245.921 276.6H245.321V277.8H244.721V279H244.121V280.2H243.521V281.4H242.921V288H241.121V281.4H240.521V280.2H239.921V279H239.321V277.8H238.721V276.6H238.121V274.8H239.921V276H240.521V277.2H241.121V278.4H241.721V279.6H242.321V278.4H242.921V277.2H243.521V276H244.121V274.8H245.921V276.6ZM263.929 276.6H260.929V288H259.129V276.6H256.129V274.8H263.929V276.6ZM272.933 288H271.133V285.6H270.533V284.4H269.933V283.2H269.333V282H266.933V288H265.133V274.8H271.133V275.4H271.733V276H272.333V276.6H272.933V280.2H272.333V280.8H271.733V281.4H271.133V282.6H271.733V283.8H272.333V285H272.933V288ZM271.133 279.6V277.2H270.533V276.6H266.933V280.2H270.533V279.6H271.133ZM281.937 288H274.137V286.2H277.137V276.6H275.937V274.8H280.137V276.6H278.937V286.2H281.937V288ZM290.941 280.8H290.341V281.4H289.741V282H289.141V282.6H284.941V288H283.141V274.8H289.141V275.4H289.741V276H290.341V276.6H290.941V280.8ZM289.141 280.2V277.2H288.541V276.6H284.941V280.8H288.541V280.2H289.141Z" fill="#F4F7FB"/>
<path d="M20.8672 449.75H499.367V529C499.367 531.347 497.464 533.25 495.117 533.25H25.1172C22.77 533.25 20.8672 531.347 20.8672 529V449.75Z" fill="#F4F7FB" stroke="#4C7AA7" stroke-width="1.5"/>
<path d="M20.1172 419C20.1172 416.239 22.3558 414 25.1172 414H495.117C497.879 414 500.117 416.239 500.117 419V449H20.1172V419Z" fill="#4C7AA7"/>
<mask id="mask4_1233_9065" style="mask-type:luminance" maskUnits="userSpaceOnUse" x="86" y="461" width="81" height="60">
<path d="M166.117 521V461H86.1172V521H166.117Z" fill="white"/>
</mask>
<g mask="url(#mask4_1233_9065)">
<path d="M135.631 496.29L118.306 516.5H111.449L120.11 496.29H101.732L96.0205 503.868H90.8779L94.3062 492.5L90.8779 481.132H96.0205L101.736 488.71H120.113L111.449 468.5H118.306L135.631 488.71H154.306C157.146 488.71 159.449 490.407 159.449 492.5C159.449 494.593 157.146 496.29 154.306 496.29H135.631Z" fill="#1B2636"/>
</g>
<path d="M238.597 504H226.117V501.12H230.917V485.76H228.997V482.88H235.717V485.76H233.797V501.12H238.597V504ZM253.003 485.76H248.203V504H245.323V485.76H240.523V482.88H253.003V485.76ZM267.41 504H264.53V499.2H257.81V504H254.93V496.32V495.36V493.44H255.89V491.52H256.85V489.6H257.81V487.68H258.77V485.76H259.73V483.84H260.69V482.88H261.65V483.84H262.61V485.76H263.57V487.68H264.53V489.6H265.49V491.52H266.45V493.44H267.41V495.36V496.32V504ZM264.53 496.32V495.36V494.4H263.57V492.48H262.61V490.56H261.65V488.64H260.69V490.56H259.73V492.48H258.77V494.4H257.81V495.36V496.32H264.53ZM281.816 504H269.336V482.88H272.216V501.12H281.816V504ZM296.222 485.76H295.262V487.68H294.302V489.6H293.342V491.52H292.382V493.44H291.422V504H288.542V493.44H287.582V491.52H286.622V489.6H285.662V487.68H284.702V485.76H283.742V482.88H286.622V484.8H287.582V486.72H288.542V488.64H289.502V490.56H290.462V488.64H291.422V486.72H292.382V484.8H293.342V482.88H296.222V485.76Z" fill="#1B2636"/>
<path d="M366.797 487.2H366.437V487.56H366.077V487.92H365.717V488.28H365.357V488.64H364.985V489H362.117V481.08H364.997V481.44H365.357V481.8H365.717V482.16H366.077V482.52H366.437V482.88H366.797V487.2ZM365.717 486.84V483.24H365.357V482.88H364.997V482.52H364.637V482.16H363.197V487.92H364.637V487.56H364.997V487.2H365.357V486.84H365.717ZM372.2 486.12H371.84V486.48H371.48V486.84H368.6V487.56H368.96V487.92H371.84V489H368.6V488.64H368.24V488.28H367.88V487.92H367.52V484.32H367.88V483.96H368.24V483.6H368.6V483.24H371.12V483.6H371.48V483.96H371.84V484.32H372.2V486.12ZM371.12 485.76V484.68H370.76V484.32H368.96V484.68H368.6V485.76H371.12ZM377.602 486.48H377.242V486.84H376.882V487.2H376.522V487.56H374.722V487.2H374.362V486.84H374.002V489H372.922V483.24H374.002V483.96H374.362V483.6H374.722V483.24H376.522V483.6H376.882V483.96H377.242V484.32H377.602V486.48ZM376.522 486.12V484.68H376.162V484.32H374.722V484.68H374.362V485.04H374.002V485.76H374.362V486.12H374.722V486.48H376.162V486.12H376.522ZM383.004 489H381.924V488.28H381.564V488.64H381.204V489H379.404V488.64H379.044V488.28H378.684V487.92H378.324V484.32H378.684V483.96H379.044V483.6H379.404V483.24H381.204V483.6H381.564V483.96H381.924V483.24H383.004V489ZM381.924 487.2V485.04H381.564V484.68H381.204V484.32H379.764V484.68H379.404V487.56H379.764V487.92H381.204V487.56H381.564V487.2H381.924ZM388.407 484.68H387.687V484.32H385.167V484.68H384.807V489H383.727V484.32H384.087V483.96H384.447V483.6H384.807V483.24H388.047V483.6H388.407V484.68ZM393.809 487.92H393.449V488.28H393.089V488.64H392.729V489H390.569V488.64H390.209V488.28H389.849V487.92H389.489V487.56H389.129V482.52H390.209V483.96H393.449V485.04H390.209V487.2H390.569V487.56H390.929V487.92H392.369V487.56H392.729V487.2H393.809V487.92ZM399.211 489H398.131V488.28H397.771V488.64H397.411V489H395.611V488.64H395.251V488.28H394.891V487.92H394.531V483.24H395.611V487.56H395.971V487.92H397.411V487.56H397.771V487.2H398.131V483.24H399.211V489ZM404.614 484.68H403.894V484.32H401.374V484.68H401.014V489H399.934V484.32H400.294V483.96H400.654V483.6H401.014V483.24H404.254V483.6H404.614V484.68ZM410.016 486.12H409.656V486.48H409.296V486.84H406.416V487.56H406.776V487.92H409.656V489H406.416V488.64H406.056V488.28H405.696V487.92H405.336V484.32H405.696V483.96H406.056V483.6H406.416V483.24H408.936V483.6H409.296V483.96H409.656V484.32H410.016V486.12ZM408.936 485.76V484.68H408.576V484.32H406.776V484.68H406.416V485.76H408.936ZM413.618 486.12H412.178V484.68H413.618V486.12ZM413.618 489H412.178V487.56H413.618V489ZM426.223 489H421.543V486.12H421.903V485.76H422.263V485.4H422.623V485.04H422.983V484.68H424.423V484.32H424.783V483.96H425.143V482.52H424.783V482.16H422.983V482.52H422.623V483.24H421.543V482.16H421.903V481.8H422.263V481.44H422.623V481.08H425.143V481.44H425.503V481.8H425.863V482.16H426.223V484.32H425.863V484.68H425.503V485.04H425.143V485.4H424.783V485.76H423.343V486.12H422.983V486.48H422.623V487.92H426.223V489ZM431.625 487.56H431.265V487.92H430.905V488.28H430.545V488.64H430.185V489H428.385V488.64H428.025V488.28H427.665V487.92H427.305V487.56H426.945V482.52H427.305V482.16H427.665V481.8H428.025V481.44H428.385V481.08H430.185V481.44H430.545V481.8H430.905V482.16H431.265V482.52H431.625V487.56ZM430.185 482.88V482.52V482.16H428.385V482.52H428.025V486.48H428.385V485.76H428.745V485.04H429.105V484.32H429.465V483.6H429.825V482.88H430.185ZM430.545 487.56V483.96H430.185V484.68H429.825V485.4H429.465V486.12H429.105V486.84H428.745V487.56H428.385V487.92H430.185V487.56H430.545ZM437.028 489H432.348V486.12H432.708V485.76H433.068V485.4H433.428V485.04H433.788V484.68H435.228V484.32H435.588V483.96H435.948V482.52H435.588V482.16H433.788V482.52H433.428V483.24H432.348V482.16H432.708V481.8H433.068V481.44H433.428V481.08H435.948V481.44H436.308V481.8H436.668V482.16H437.028V484.32H436.668V484.68H436.308V485.04H435.948V485.4H435.588V485.76H434.148V486.12H433.788V486.48H433.428V487.92H437.028V489ZM442.43 487.92H442.07V488.28H441.71V488.64H441.35V489H438.47V488.64H438.11V488.28H437.75V487.56H438.83V487.92H440.99V487.56H441.35V485.4H440.99V485.04H437.75V481.08H442.43V482.16H438.83V483.96H441.35V484.32H441.71V484.68H442.07V485.04H442.43V487.92ZM446.032 489H444.592V487.56H446.032V489ZM453.235 487.56H452.875V487.92H452.515V488.28H452.155V488.64H451.795V489H449.995V488.64H449.635V488.28H449.275V487.92H448.915V487.56H448.555V482.52H448.915V482.16H449.275V481.8H449.635V481.44H449.995V481.08H451.795V481.44H452.155V481.8H452.515V482.16H452.875V482.52H453.235V487.56ZM451.795 482.88V482.52V482.16H449.995V482.52H449.635V486.48H449.995V485.76H450.355V485.04H450.715V484.32H451.075V483.6H451.435V482.88H451.795ZM452.155 487.56V483.96H451.795V484.68H451.435V485.4H451.075V486.12H450.715V486.84H450.355V487.56H449.995V487.92H451.795V487.56H452.155ZM458.637 487.92H458.277V488.28H457.917V488.64H457.557V489H455.037V488.64H454.677V488.28H454.317V487.92H453.957V484.68H454.317V483.96H454.677V483.6H455.037V483.24H455.397V482.88H455.757V482.52H456.117V482.16H456.477V481.8H456.837V481.44H457.197V481.08H458.277V481.8H457.917V482.16H457.557V482.52H457.197V482.88H456.837V483.24H456.477V483.6H456.117V483.96H455.757V484.32H457.557V484.68H457.917V485.04H458.277V485.4H458.637V487.92ZM457.557 487.56V485.76H457.197V485.4H455.397V485.76H455.037V487.56H455.397V487.92H457.197V487.56H457.557ZM462.239 489H460.799V487.56H462.239V489ZM469.442 489H464.762V487.92H466.562V482.16H465.482V481.08H467.642V487.92H469.442V489ZM474.844 489H470.164V486.12H470.524V485.76H470.884V485.4H471.244V485.04H471.604V484.68H473.044V484.32H473.404V483.96H473.764V482.52H473.404V482.16H471.604V482.52H471.244V483.24H470.164V482.16H470.524V481.8H470.884V481.44H471.244V481.08H473.764V481.44H474.124V481.8H474.484V482.16H474.844V484.32H474.484V484.68H474.124V485.04H473.764V485.4H473.404V485.76H471.964V486.12H471.604V486.48H471.244V487.92H474.844V489ZM366.797 503H365.717V501.2H363.197V503H362.117V500.12V499.76V499.04H362.477V498.32H362.837V497.6H363.197V496.88H363.557V496.16H363.917V495.44H364.277V495.08H364.637V495.44H364.997V496.16H365.357V496.88H365.717V497.6H366.077V498.32H366.437V499.04H366.797V499.76V500.12V503ZM365.717 500.12V499.76V499.4H365.357V498.68H364.997V497.96H364.637V497.24H364.277V497.96H363.917V498.68H363.557V499.4H363.197V499.76V500.12H365.717ZM372.2 498.68H371.48V498.32H368.96V498.68H368.6V503H367.52V498.32H367.88V497.96H368.24V497.6H368.6V497.24H371.84V497.6H372.2V498.68ZM377.602 498.68H376.882V498.32H374.362V498.68H374.002V503H372.922V498.32H373.282V497.96H373.642V497.6H374.002V497.24H377.242V497.6H377.602V498.68ZM381.204 496.16H380.124V495.08H381.204V496.16ZM383.004 503H378.324V501.92H380.124V498.32H379.404V497.24H381.204V501.92H383.004V503ZM388.407 498.68H388.047V499.4H387.687V500.12H387.327V500.84H386.967V501.56H386.607V502.28H386.247V503H385.887V502.28H385.527V501.56H385.167V500.84H384.807V500.12H384.447V499.4H384.087V498.68H383.727V497.24H384.807V498.32H385.167V499.04H385.527V499.76H385.887V500.48H386.247V499.76H386.607V499.04H386.967V498.32H387.327V497.24H388.407V498.68ZM393.809 503H392.729V502.28H392.369V502.64H392.009V503H390.209V502.64H389.849V502.28H389.489V501.92H389.129V498.32H389.489V497.96H389.849V497.6H390.209V497.24H392.009V497.6H392.369V497.96H392.729V497.24H393.809V503ZM392.729 501.2V499.04H392.369V498.68H392.009V498.32H390.569V498.68H390.209V501.56H390.569V501.92H392.009V501.56H392.369V501.2H392.729ZM399.211 503H396.691V502.64H396.331V502.28H395.971V501.92H395.611V496.16H394.531V495.08H396.691V501.56H397.051V501.92H399.211V503ZM402.814 500.12H401.374V498.68H402.814V500.12ZM402.814 503H401.374V501.56H402.814V503ZM426.223 503H421.543V500.12H421.903V499.76H422.263V499.4H422.623V499.04H422.983V498.68H424.423V498.32H424.783V497.96H425.143V496.52H424.783V496.16H422.983V496.52H422.623V497.24H421.543V496.16H421.903V495.8H422.263V495.44H422.623V495.08H425.143V495.44H425.503V495.8H425.863V496.16H426.223V498.32H425.863V498.68H425.503V499.04H425.143V499.4H424.783V499.76H423.343V500.12H422.983V500.48H422.623V501.92H426.223V503ZM431.625 501.56H431.265V501.92H430.905V502.28H430.545V502.64H430.185V503H428.385V502.64H428.025V502.28H427.665V501.92H427.305V501.56H426.945V496.52H427.305V496.16H427.665V495.8H428.025V495.44H428.385V495.08H430.185V495.44H430.545V495.8H430.905V496.16H431.265V496.52H431.625V501.56ZM430.185 496.88V496.52V496.16H428.385V496.52H428.025V500.48H428.385V499.76H428.745V499.04H429.105V498.32H429.465V497.6H429.825V496.88H430.185ZM430.545 501.56V497.96H430.185V498.68H429.825V499.4H429.465V500.12H429.105V500.84H428.745V501.56H428.385V501.92H430.185V501.56H430.545ZM437.028 503H432.348V500.12H432.708V499.76H433.068V499.4H433.428V499.04H433.788V498.68H435.228V498.32H435.588V497.96H435.948V496.52H435.588V496.16H433.788V496.52H433.428V497.24H432.348V496.16H432.708V495.8H433.068V495.44H433.428V495.08H435.948V495.44H436.308V495.8H436.668V496.16H437.028V498.32H436.668V498.68H436.308V499.04H435.948V499.4H435.588V499.76H434.148V500.12H433.788V500.48H433.428V501.92H437.028V503ZM442.43 501.92H442.07V502.28H441.71V502.64H441.35V503H438.47V502.64H438.11V502.28H437.75V501.56H438.83V501.92H440.99V501.56H441.35V499.4H440.99V499.04H437.75V495.08H442.43V496.16H438.83V497.96H441.35V498.32H441.71V498.68H442.07V499.04H442.43V501.92ZM446.032 503H444.592V501.56H446.032V503ZM453.235 501.56H452.875V501.92H452.515V502.28H452.155V502.64H451.795V503H449.995V502.64H449.635V502.28H449.275V501.92H448.915V501.56H448.555V496.52H448.915V496.16H449.275V495.8H449.635V495.44H449.995V495.08H451.795V495.44H452.155V495.8H452.515V496.16H452.875V496.52H453.235V501.56ZM451.795 496.88V496.52V496.16H449.995V496.52H449.635V500.48H449.995V499.76H450.355V499.04H450.715V498.32H451.075V497.6H451.435V496.88H451.795ZM452.155 501.56V497.96H451.795V498.68H451.435V499.4H451.075V500.12H450.715V500.84H450.355V501.56H449.995V501.92H451.795V501.56H452.155ZM458.637 501.92H458.277V502.28H457.917V502.64H457.557V503H455.037V502.64H454.677V502.28H454.317V501.92H453.957V498.68H454.317V497.96H454.677V497.6H455.037V497.24H455.397V496.88H455.757V496.52H456.117V496.16H456.477V495.8H456.837V495.44H457.197V495.08H458.277V495.8H457.917V496.16H457.557V496.52H457.197V496.88H456.837V497.24H456.477V497.6H456.117V497.96H455.757V498.32H457.557V498.68H457.917V499.04H458.277V499.4H458.637V501.92ZM457.557 501.56V499.76H457.197V499.4H455.397V499.76H455.037V501.56H455.397V501.92H457.197V501.56H457.557ZM462.239 503H460.799V501.56H462.239V503ZM469.442 503H464.762V500.12H465.122V499.76H465.482V499.4H465.842V499.04H466.202V498.68H467.642V498.32H468.002V497.96H468.362V496.52H468.002V496.16H466.202V496.52H465.842V497.24H464.762V496.16H465.122V495.8H465.482V495.44H465.842V495.08H468.362V495.44H468.722V495.8H469.082V496.16H469.442V498.32H469.082V498.68H468.722V499.04H468.362V499.4H468.002V499.76H466.562V500.12H466.202V500.48H465.842V501.92H469.442V503ZM474.844 503H470.164V500.12H470.524V499.76H470.884V499.4H471.244V499.04H471.604V498.68H473.044V498.32H473.404V497.96H473.764V496.52H473.404V496.16H471.604V496.52H471.244V497.24H470.164V496.16H470.524V495.8H470.884V495.44H471.244V495.08H473.764V495.44H474.124V495.8H474.484V496.16H474.844V498.32H474.484V498.68H474.124V499.04H473.764V499.4H473.404V499.76H471.964V500.12H471.604V500.48H471.244V501.92H474.844V503Z" fill="#1B2636"/>
<mask id="mask5_1233_9065" style="mask-type:luminance" maskUnits="userSpaceOnUse" x="30" y="417" width="31" height="30">
<path d="M60.1172 417H30.1172V447H60.1172V417Z" fill="white"/>
</mask>
<g mask="url(#mask5_1233_9065)">
<path d="M43.3823 430.487L37.7446 421.647L40.1582 421L48.8472 429.025L55.4248 427.263C56.4251 426.995 57.4533 427.589 57.7212 428.589C57.989 429.589 57.3948 430.617 56.3945 430.885L37.6797 435.897L36.7095 432.275L37.0107 432.194L40.0947 435.25L36.812 436.13C36.2582 436.278 35.6746 436.031 35.396 435.53L32.1172 429.623L33.9282 429.138L37.0107 432.194L43.3823 430.487ZM35.2847 439.697H55.2847V442.197H35.2847V439.697Z" fill="#F4F7FB"/>
</g>
<path d="M236.917 438H235.117V431.4H234.517V432.6H233.917V433.8H233.317V435H232.717V433.8H232.117V432.6H231.517V431.4H230.917V438H229.117V424.8H229.717V426H230.317V427.2H230.917V428.4H231.517V429.6H232.117V430.8H232.717V432H233.317V430.8H233.917V429.6H234.517V428.4H235.117V427.2H235.717V426H236.317V424.8H236.917V438ZM245.921 426.6H245.321V427.8H244.721V429H244.121V430.2H243.521V431.4H242.921V438H241.121V431.4H240.521V430.2H239.921V429H239.321V427.8H238.721V426.6H238.121V424.8H239.921V426H240.521V427.2H241.121V428.4H241.721V429.6H242.321V428.4H242.921V427.2H243.521V426H244.121V424.8H245.921V426.6ZM263.929 426.6H260.929V438H259.129V426.6H256.129V424.8H263.929V426.6ZM272.933 438H271.133V435.6H270.533V434.4H269.933V433.2H269.333V432H266.933V438H265.133V424.8H271.133V425.4H271.733V426H272.333V426.6H272.933V430.2H272.333V430.8H271.733V431.4H271.133V432.6H271.733V433.8H272.333V435H272.933V438ZM271.133 429.6V427.2H270.533V426.6H266.933V430.2H270.533V429.6H271.133ZM281.937 438H274.137V436.2H277.137V426.6H275.937V424.8H280.137V426.6H278.937V436.2H281.937V438ZM290.941 430.8H290.341V431.4H289.741V432H289.141V432.6H284.941V438H283.141V424.8H289.141V425.4H289.741V426H290.341V426.6H290.941V430.8ZM289.141 430.2V427.2H288.541V426.6H284.941V430.8H288.541V430.2H289.141Z" fill="#F4F7FB"/>
<path d="M21.564 22.512H21.456L19.62 26.184L14.724 35.076L9.936 26.22L8.028 22.26H7.92V39H2.772V13.872H8.568L14.724 25.644H14.796L20.88 13.872H26.712V39H21.564V22.512ZM38.4241 39V29.172L29.8201 13.872H35.9401L41.3401 23.88H41.4121L46.5961 13.872H52.5361L43.9321 29.136V39H38.4241ZM64.1548 39V13.872H76.0348C77.2108 13.872 78.2668 14.076 79.2028 14.484C80.1388 14.868 80.9308 15.408 81.5788 16.104C82.2508 16.8 82.7668 17.652 83.1268 18.66C83.4868 19.644 83.6668 20.724 83.6668 21.9C83.6668 23.1 83.4868 24.192 83.1268 25.176C82.7668 26.16 82.2508 27 81.5788 27.696C80.9308 28.392 80.1388 28.944 79.2028 29.352C78.2668 29.736 77.2108 29.928 76.0348 29.928H69.6268V39H64.1548ZM69.6268 25.176H75.3868C76.2028 25.176 76.8388 24.972 77.2948 24.564C77.7748 24.132 78.0148 23.508 78.0148 22.692V21.108C78.0148 20.292 77.7748 19.68 77.2948 19.272C76.8388 18.84 76.2028 18.624 75.3868 18.624H69.6268V25.176ZM87.7798 39V13.872H93.2518V34.14H102.828V39H87.7798ZM122.947 39L121.147 33.024H112.759L110.959 39H105.415L113.695 13.872H120.463L128.635 39H122.947ZM117.007 18.84H116.827L114.055 28.38H119.815L117.007 18.84ZM139.78 27.12L137.368 22.08H137.26V39H132.112V13.872H138.088L144.964 25.752L147.376 30.792H147.484V13.872H152.632V39H146.656L139.78 27.12ZM165.831 27.12L163.419 22.08H163.311V39H158.163V13.872H164.139L171.015 25.752L173.427 30.792H173.535V13.872H178.683V39H172.707L165.831 27.12ZM184.213 39V13.872H201.313V18.732H189.685V23.88H199.657V28.704H189.685V34.14H201.313V39H184.213ZM211.553 39H206.081V13.872H217.997C219.149 13.872 220.193 14.064 221.129 14.448C222.065 14.832 222.857 15.384 223.505 16.104C224.177 16.8 224.693 17.64 225.053 18.624C225.413 19.608 225.593 20.7 225.593 21.9C225.593 23.604 225.209 25.092 224.441 26.364C223.697 27.636 222.557 28.56 221.021 29.136L225.953 39H219.869L215.477 29.784H211.553V39ZM217.313 25.176C218.129 25.176 218.765 24.972 219.221 24.564C219.701 24.132 219.941 23.508 219.941 22.692V21.108C219.941 20.292 219.701 19.68 219.221 19.272C218.765 18.84 218.129 18.624 217.313 18.624H211.553V25.176H217.313Z" fill="#2B4461"/>
<path d="M957.346 507.285L373.002 221.999" stroke="#4C7AA7" stroke-width="3" stroke-dasharray="4 4"/>
<path d="M342 229L354 241M322 209L336.14 242.94L341.16 228.16L355.94 223.14L322 209Z" stroke="#4C7AA7" stroke-width="4" stroke-linecap="round" stroke-linejoin="round"/>
<defs>
<filter id="filter0_d_1233_9065" x="832.273" y="465.5" width="566.883" height="89" filterUnits="userSpaceOnUse" color-interpolation-filters="sRGB">
<feFlood flood-opacity="0" result="BackgroundImageFix"/>
<feColorMatrix in="SourceAlpha" type="matrix" values="0 0 0 0 0 0 0 0 0 0 0 0 0 0 0 0 0 0 127 0" result="hardAlpha"/>
<feOffset dx="2" dy="4"/>
<feGaussianBlur stdDeviation="4"/>
<feComposite in2="hardAlpha" operator="out"/>
<feColorMatrix type="matrix" values="0 0 0 0 0 0 0 0 0 0 0 0 0 0 0 0 0 0 0.3 0"/>
<feBlend mode="normal" in2="BackgroundImageFix" result="effect1_dropShadow_1233_9065"/>
<feBlend mode="normal" in="SourceGraphic" in2="effect1_dropShadow_1233_9065" result="shape"/>
</filter>
</defs>
</svg>
