<svg width="705" height="171" viewBox="0 0 705 171" fill="none" xmlns="http://www.w3.org/2000/svg">
<path d="M0 11.6327C0 5.21141 4.9714 0 11.0957 0H693.482C699.585 0 704.578 5.21141 704.578 11.6327V159.367C704.578 165.789 699.585 171 693.482 171H11.0957C4.9714 171 0 165.789 0 159.367V11.6327Z" fill="#98C5DC" fill-opacity="0.31"/>
<path d="M140.331 65.22H137.559V41.316H140.331V65.22ZM128.559 44.7H118.695V42.432H128.559V44.7ZM116.247 62.052L114.339 60.396C116.355 59.004 117.915 57.792 119.019 56.76C120.147 55.728 120.963 54.72 121.467 53.736C121.995 52.728 122.271 51.612 122.295 50.388H115.203V48.12H132.015V50.388H124.923C124.923 52.164 124.491 53.76 123.627 55.176L123.843 55.284L124.419 54.852C124.683 54.636 124.947 54.528 125.211 54.528C125.475 54.528 125.751 54.636 126.039 54.852L132.915 59.82L130.971 61.548L124.023 56.256C123.855 56.112 123.651 56.04 123.411 56.04C123.195 56.04 123.003 56.124 122.835 56.292C122.187 57.132 121.347 57.996 120.315 58.884C119.283 59.772 117.927 60.828 116.247 62.052ZM140.979 70.98V73.248H122.043C121.467 73.248 121.023 73.092 120.711 72.78C120.399 72.468 120.243 72.012 120.243 71.412V63.924H122.979V70.98H140.979ZM174.84 59.568H161.484V73.716H158.748V59.568H145.464V57.264H166.524C167.388 53.496 167.832 49.476 167.856 45.204V45.024H149.352V42.72H170.52V45.024C170.52 49.176 170.112 53.256 169.296 57.264H174.84V59.568ZM207.874 56.472H202.978V72.564H200.278V41.316H202.978V54.168H207.874V56.472ZM197.686 62.88L197.938 65.076C195.322 65.508 192.178 65.844 188.506 66.084C184.858 66.3 181.09 66.408 177.202 66.408L176.95 64.068C180.334 64.068 183.214 64.008 185.59 63.888V57.696C183.454 57.456 181.714 56.676 180.37 55.356C179.026 54.036 178.354 52.356 178.354 50.316C178.354 48.852 178.726 47.568 179.47 46.464C180.214 45.336 181.234 44.472 182.53 43.872C183.826 43.248 185.29 42.936 186.922 42.936C188.554 42.936 190.018 43.248 191.314 43.872C192.61 44.472 193.618 45.336 194.338 46.464C195.082 47.568 195.454 48.852 195.454 50.316C195.454 52.356 194.782 54.036 193.438 55.356C192.118 56.676 190.378 57.456 188.218 57.696V63.78C191.722 63.612 194.878 63.312 197.686 62.88ZM186.922 55.536C188.602 55.536 189.97 55.104 191.026 54.24C192.082 53.352 192.61 52.188 192.61 50.748V49.92C192.61 48.48 192.082 47.328 191.026 46.464C189.97 45.576 188.602 45.132 186.922 45.132C185.242 45.132 183.874 45.576 182.818 46.464C181.762 47.328 181.234 48.48 181.234 49.92V50.748C181.234 52.188 181.762 53.352 182.818 54.24C183.874 55.104 185.242 55.536 186.922 55.536ZM233.78 41.316H236.48V72.564H233.78V41.316ZM211.316 50.676C211.316 49.188 211.688 47.88 212.432 46.752C213.176 45.6 214.196 44.724 215.492 44.124C216.788 43.5 218.252 43.188 219.884 43.188C221.516 43.188 222.98 43.5 224.276 44.124C225.572 44.724 226.592 45.6 227.336 46.752C228.08 47.88 228.452 49.188 228.452 50.676C228.452 52.164 228.08 53.472 227.336 54.6C226.592 55.728 225.572 56.604 224.276 57.228C222.98 57.828 221.516 58.128 219.884 58.128C218.252 58.128 216.788 57.828 215.492 57.228C214.196 56.604 213.176 55.728 212.432 54.6C211.688 53.472 211.316 52.164 211.316 50.676ZM225.572 51.108V50.244C225.572 48.804 225.044 47.64 223.988 46.752C222.932 45.864 221.564 45.42 219.884 45.42C218.204 45.42 216.836 45.864 215.78 46.752C214.724 47.64 214.196 48.804 214.196 50.244V51.108C214.196 52.548 214.724 53.712 215.78 54.6C216.836 55.488 218.204 55.932 219.884 55.932C221.564 55.932 222.932 55.488 223.988 54.6C225.044 53.712 225.572 52.548 225.572 51.108ZM209.804 63.672C213.884 63.672 217.82 63.576 221.612 63.384C225.404 63.192 228.62 62.892 231.26 62.484L231.548 64.68C228.836 65.112 225.572 65.448 221.756 65.688C217.964 65.904 214.064 66.012 210.056 66.012L209.804 63.672ZM277.229 57.696H274.457V41.316H277.229V57.696ZM259.985 50.964C259.817 50.964 259.673 51.036 259.553 51.18C258.929 52.188 258.101 53.22 257.069 54.276C256.037 55.308 254.633 56.592 252.857 58.128L250.841 56.328C252.905 54.6 254.489 53.124 255.593 51.9C256.697 50.652 257.489 49.416 257.969 48.192C258.473 46.968 258.725 45.588 258.725 44.052V42.216H261.497V44.232C261.497 46.392 261.077 48.312 260.237 49.992L260.417 50.064L260.993 49.56C261.281 49.344 261.545 49.236 261.785 49.236C262.049 49.236 262.301 49.344 262.541 49.56L269.453 55.572L267.509 57.516L260.489 51.18C260.345 51.036 260.177 50.964 259.985 50.964ZM278.093 71.7V74.04H258.977C258.401 74.04 257.957 73.884 257.645 73.572C257.333 73.26 257.177 72.804 257.177 72.204V65.688H274.457V61.98H256.961V59.676H277.229V67.992H259.949V71.7H278.093ZM309.147 41.316V72.564H306.411V41.316H309.147ZM293.847 53.916C294.183 53.916 294.447 54.048 294.639 54.312L301.767 63.312L299.679 65.148L292.551 55.86C292.455 55.74 292.323 55.68 292.155 55.68C292.011 55.68 291.903 55.74 291.831 55.86C291.183 57.276 290.319 58.728 289.239 60.216C288.183 61.68 286.743 63.48 284.919 65.616L282.831 63.852C284.943 61.476 286.563 59.448 287.691 57.768C288.819 56.064 289.635 54.36 290.139 52.656C290.643 50.952 290.895 48.996 290.895 46.788V43.404H293.631V46.752C293.631 49.608 293.211 52.2 292.371 54.528L292.551 54.636L293.055 54.204C293.319 54.012 293.583 53.916 293.847 53.916ZM344.809 50.784V53.088H339.805V65.04H337.069V41.316H339.805V50.784H344.809ZM316.585 60.648L315.109 58.56C318.373 57.216 320.857 56.016 322.561 54.96C324.265 53.904 325.465 52.788 326.161 51.612C326.857 50.436 327.205 48.996 327.205 47.292V45.78H316.009V43.44H329.941V47.04C329.941 49.248 329.545 51.084 328.753 52.548C327.985 54.012 326.653 55.356 324.757 56.58C322.885 57.804 320.161 59.16 316.585 60.648ZM322.921 70.98H340.525V73.248H321.985C321.409 73.248 320.965 73.092 320.653 72.78C320.341 72.468 320.185 72.012 320.185 71.412V62.448H322.921V70.98ZM382.822 41.316V72.564H380.194V55.788H375.334V71.7H372.706V41.856H375.334V53.52H380.194V41.316H382.822ZM367.27 45.636H358.954V43.404H367.27V45.636ZM364.354 57.192C364.642 57.192 364.918 57.324 365.182 57.588L371.086 64.032L369.214 65.652L363.274 58.92C363.154 58.8 363.022 58.74 362.878 58.74C362.734 58.74 362.614 58.8 362.518 58.92C361.966 59.976 361.234 61.08 360.322 62.232C359.41 63.384 358.234 64.692 356.794 66.156L354.958 64.572C356.758 62.748 358.138 61.176 359.098 59.856C360.058 58.512 360.742 57.192 361.15 55.896C361.582 54.6 361.798 53.124 361.798 51.468H355.786V49.272H370.33V51.468H364.318C364.318 53.7 363.934 55.728 363.166 57.552L363.346 57.66L363.67 57.408C363.886 57.264 364.114 57.192 364.354 57.192ZM414.092 60.756H411.356V41.316H414.092V60.756ZM407.36 58.092C403.592 58.836 398.84 59.208 393.104 59.208H389.36V42.9H403.904V45.132H392.024V49.848H403.4V52.044H392.024V56.976H393.14C398.468 56.976 403.1 56.628 407.036 55.932L407.36 58.092ZM414.308 67.956C414.308 69.204 413.924 70.32 413.156 71.304C412.412 72.288 411.272 73.056 409.736 73.608C408.224 74.16 406.376 74.436 404.192 74.436C401.984 74.436 400.112 74.16 398.576 73.608C397.064 73.056 395.924 72.288 395.156 71.304C394.412 70.344 394.04 69.228 394.04 67.956C394.04 66.732 394.412 65.64 395.156 64.68C395.924 63.72 397.064 62.964 398.576 62.412C400.112 61.86 401.984 61.584 404.192 61.584C406.376 61.584 408.224 61.86 409.736 62.412C411.272 62.964 412.412 63.72 413.156 64.68C413.924 65.64 414.308 66.732 414.308 67.956ZM411.392 67.74C411.392 66.612 410.792 65.664 409.592 64.896C408.392 64.128 406.592 63.744 404.192 63.744C401.768 63.744 399.944 64.128 398.72 64.896C397.52 65.664 396.92 66.612 396.92 67.74V68.28C396.92 69.384 397.52 70.32 398.72 71.088C399.944 71.856 401.768 72.24 404.192 72.24C406.592 72.24 408.392 71.856 409.592 71.088C410.792 70.32 411.392 69.384 411.392 68.28V67.74ZM422.609 51.108C422.609 49.5 423.017 48.06 423.833 46.788C424.673 45.492 425.945 44.46 427.649 43.692C429.353 42.924 431.453 42.54 433.949 42.54C436.445 42.54 438.545 42.924 440.249 43.692C441.953 44.46 443.213 45.492 444.029 46.788C444.869 48.06 445.289 49.5 445.289 51.108C445.289 52.716 444.869 54.168 444.029 55.464C443.213 56.76 441.953 57.792 440.249 58.56C438.545 59.328 436.445 59.712 433.949 59.712C431.453 59.712 429.353 59.328 427.649 58.56C425.945 57.792 424.673 56.76 423.833 55.464C423.017 54.168 422.609 52.716 422.609 51.108ZM442.337 51.54V50.712C442.337 49.608 442.037 48.612 441.437 47.724C440.861 46.812 439.937 46.092 438.665 45.564C437.417 45.012 435.845 44.736 433.949 44.736C432.053 44.736 430.469 45.012 429.197 45.564C427.949 46.092 427.025 46.812 426.425 47.724C425.849 48.612 425.561 49.608 425.561 50.712V51.54C425.561 53.244 426.257 54.66 427.649 55.788C429.041 56.916 431.141 57.48 433.949 57.48C436.757 57.48 438.857 56.916 440.249 55.788C441.641 54.66 442.337 53.244 442.337 51.54ZM419.261 66.66H448.637V69H419.261V66.66ZM480.735 66.696V69H451.359V66.696H464.679V60.54H455.679V50.784H473.679V45.492H455.499V43.224H476.415V52.98H458.415V58.272H477.351V60.54H467.415V66.696H480.735ZM521.34 56.94V59.28H491.964V56.94H505.32V53.196H496.428V42.18H516.912V44.412H499.128V50.928H517.2V53.196H508.02V56.94H521.34ZM517.272 68.244C517.272 69.468 516.876 70.548 516.084 71.484C515.292 72.42 514.092 73.152 512.484 73.68C510.9 74.232 508.956 74.508 506.652 74.508C504.348 74.508 502.392 74.232 500.784 73.68C499.2 73.152 498.012 72.42 497.22 71.484C496.428 70.548 496.032 69.468 496.032 68.244C496.032 67.044 496.428 65.988 497.22 65.076C498.036 64.14 499.236 63.408 500.82 62.88C502.404 62.352 504.348 62.088 506.652 62.088C508.956 62.088 510.9 62.352 512.484 62.88C514.068 63.408 515.256 64.14 516.048 65.076C516.864 65.988 517.272 67.044 517.272 68.244ZM514.392 68.028C514.392 66.972 513.744 66.084 512.448 65.364C511.176 64.62 509.244 64.248 506.652 64.248C504.06 64.248 502.116 64.62 500.82 65.364C499.524 66.084 498.876 66.972 498.876 68.028V68.532C498.876 69.588 499.524 70.476 500.82 71.196C502.116 71.94 504.06 72.312 506.652 72.312C509.244 72.312 511.176 71.94 512.448 71.196C513.744 70.476 514.392 69.588 514.392 68.532V68.028ZM550.846 41.316V72.564H548.11V41.316H550.846ZM535.546 53.916C535.882 53.916 536.146 54.048 536.338 54.312L543.466 63.312L541.378 65.148L534.25 55.86C534.154 55.74 534.022 55.68 533.854 55.68C533.71 55.68 533.602 55.74 533.53 55.86C532.882 57.276 532.018 58.728 530.938 60.216C529.882 61.68 528.442 63.48 526.618 65.616L524.53 63.852C526.642 61.476 528.262 59.448 529.39 57.768C530.518 56.064 531.334 54.36 531.838 52.656C532.342 50.952 532.594 48.996 532.594 46.788V43.404H535.33V46.752C535.33 49.608 534.91 52.2 534.07 54.528L534.25 54.636L534.754 54.204C535.018 54.012 535.282 53.916 535.546 53.916ZM583.916 41.316V72.564H581.288V41.316H583.916ZM574.196 41.856H576.752V71.7H574.196V55.32H570.74C570.62 58.44 569.924 60.792 568.652 62.376C567.38 63.936 565.7 64.716 563.612 64.716C561.38 64.716 559.616 63.852 558.32 62.124C557.024 60.372 556.376 57.768 556.376 54.312C556.376 50.856 557.024 48.264 558.32 46.536C559.616 44.784 561.38 43.908 563.612 43.908C565.676 43.908 567.332 44.676 568.58 46.212C569.852 47.748 570.572 50.028 570.74 53.052H574.196V41.856ZM568.004 52.584C568.004 50.472 567.596 48.864 566.78 47.76C565.988 46.656 564.932 46.104 563.612 46.104C562.268 46.104 561.188 46.656 560.372 47.76C559.58 48.864 559.184 50.472 559.184 52.584V56.076C559.184 58.164 559.58 59.772 560.372 60.9C561.188 62.004 562.268 62.556 563.612 62.556C564.932 62.556 565.988 62.004 566.78 60.9C567.596 59.772 568.004 58.164 568.004 56.076V52.584ZM90.664 103.38V105.684H85.66V114.108H82.924V95.316H85.66V103.38H90.664ZM62.476 112.992L60.46 111.264C62.476 109.68 64.036 108.312 65.14 107.16C66.244 105.984 67.036 104.832 67.516 103.704C68.02 102.576 68.272 101.292 68.272 99.852V99.528H61.396V97.26H77.848V99.528H71.008V99.996C71.008 101.964 70.588 103.728 69.748 105.288L69.964 105.432L70.504 105C70.768 104.808 71.02 104.712 71.26 104.712C71.548 104.712 71.836 104.832 72.124 105.072L78.856 110.652L76.84 112.416L70 106.584C69.832 106.44 69.652 106.368 69.46 106.368C69.316 106.368 69.16 106.428 68.992 106.548C68.32 107.484 67.468 108.456 66.436 109.464C65.404 110.472 64.084 111.648 62.476 112.992ZM85.912 121.56C85.912 122.856 85.54 124.008 84.796 125.016C84.052 126.048 82.936 126.852 81.448 127.428C79.96 128.028 78.136 128.328 75.976 128.328C73.84 128.328 72.016 128.028 70.504 127.428C69.016 126.852 67.888 126.048 67.12 125.016C66.376 124.008 66.004 122.856 66.004 121.56C66.004 120.264 66.376 119.112 67.12 118.104C67.888 117.072 69.016 116.268 70.504 115.692C72.016 115.092 73.84 114.792 75.976 114.792C78.136 114.792 79.96 115.092 81.448 115.692C82.936 116.268 84.052 117.072 84.796 118.104C85.54 119.112 85.912 120.264 85.912 121.56ZM83.068 121.272C83.068 120.048 82.48 119.028 81.304 118.212C80.128 117.372 78.352 116.952 75.976 116.952C73.6 116.952 71.824 117.372 70.648 118.212C69.472 119.028 68.884 120.048 68.884 121.272V121.884C68.884 123.084 69.472 124.092 70.648 124.908C71.824 125.748 73.6 126.168 75.976 126.168C78.352 126.168 80.128 125.748 81.304 124.908C82.48 124.092 83.068 123.084 83.068 121.884V121.272ZM95.4017 112.956L93.8537 110.832C97.1417 109.176 99.6497 107.7 101.378 106.404C103.106 105.084 104.306 103.776 104.978 102.48C105.674 101.184 106.022 99.684 106.022 97.98V96.792H108.83V98.088C108.83 99.48 108.674 100.716 108.362 101.796C108.074 102.876 107.582 103.896 106.886 104.856L107.102 104.964L107.966 104.28C108.278 104.04 108.602 103.92 108.938 103.92C109.202 103.92 109.502 104.016 109.838 104.208L120.35 110.688L118.802 112.848L107.894 105.9C107.462 105.684 107.114 105.576 106.85 105.576C106.562 105.576 106.298 105.66 106.058 105.828C105.074 106.908 103.73 108.012 102.026 109.14C100.346 110.244 98.1377 111.516 95.4017 112.956ZM121.79 120.696V123H92.4137V120.696H105.734V112.74H108.47V120.696H121.79ZM146.507 100.932V97.836H128.939V95.82H149.135V102.912H131.783V105.972H150.035V108.024H129.119V100.932H146.507ZM153.887 110.724V112.848H124.511V110.724H153.887ZM129.011 126.312V120.876H146.939V117.852H128.795V115.728H149.495V122.892H131.567V125.988H150.431V128.148H130.811C130.235 128.148 129.791 127.992 129.479 127.68C129.167 127.368 129.011 126.912 129.011 126.312ZM195.465 103.848V106.116H190.461V113.892H187.725V95.316H190.461V103.848H195.465ZM179.373 98.124H169.581V95.892H179.373V98.124ZM167.205 114.432L165.297 112.776C167.289 111.456 168.837 110.316 169.941 109.356C171.045 108.396 171.849 107.46 172.353 106.548C172.857 105.612 173.133 104.58 173.181 103.452H166.197V101.292H182.829V103.452H175.773C175.749 105.06 175.317 106.536 174.477 107.88L174.693 107.952L175.269 107.52C175.533 107.328 175.797 107.232 176.061 107.232C176.301 107.232 176.577 107.328 176.889 107.52L183.621 112.164L181.749 113.856L174.909 108.96C174.693 108.816 174.477 108.744 174.261 108.744C174.069 108.744 173.877 108.816 173.685 108.96C173.037 109.752 172.209 110.568 171.201 111.408C170.217 112.224 168.885 113.232 167.205 114.432ZM182.001 121.56C182.193 121.56 182.433 121.62 182.721 121.74L191.865 126.06L190.497 128.112L180.957 123.36C180.669 123.216 180.381 123.144 180.093 123.144C179.829 123.144 179.565 123.216 179.301 123.36C178.437 124.104 177.249 124.86 175.737 125.628C174.225 126.42 172.269 127.284 169.869 128.22L168.537 126.168C171.249 125.16 173.337 124.248 174.801 123.432C176.289 122.64 177.345 121.848 177.969 121.056C178.593 120.264 178.941 119.352 179.013 118.32H169.689V116.052H190.713V118.32H181.713C181.665 119.904 181.185 121.26 180.273 122.388L180.453 122.424L181.065 121.992C181.425 121.704 181.737 121.56 182.001 121.56ZM227.526 109.932H222.342V126.636H219.606V95.388H222.342V107.628H227.526V109.932ZM214.098 107.952C214.098 111.456 213.33 114.108 211.794 115.908C210.282 117.708 208.266 118.608 205.746 118.608C203.226 118.608 201.198 117.708 199.662 115.908C198.15 114.108 197.394 111.456 197.394 107.952C197.394 104.448 198.15 101.796 199.662 99.996C201.198 98.196 203.226 97.296 205.746 97.296C208.266 97.296 210.282 98.196 211.794 99.996C213.33 101.796 214.098 104.448 214.098 107.952ZM211.182 106.512C211.182 104.28 210.678 102.576 209.67 101.4C208.686 100.2 207.378 99.6 205.746 99.6C204.114 99.6 202.794 100.2 201.786 101.4C200.778 102.576 200.274 104.28 200.274 106.512V109.392C200.274 111.624 200.778 113.34 201.786 114.54C202.794 115.716 204.114 116.304 205.746 116.304C207.378 116.304 208.686 115.716 209.67 114.54C210.678 113.34 211.182 111.624 211.182 109.392V106.512ZM258.688 120.696V123H229.312V120.696H242.632V113.352H233.344V96.972H236.08V102.912H251.884V96.972H254.584V113.352H245.368V120.696H258.688ZM236.08 111.084H251.884V105.18H236.08V111.084ZM288.266 95.316V126.564H285.566V113.244H277.718V117.852H263.066V97.8H277.718V102.228H285.566V95.316H288.266ZM275.09 100.032H265.694V115.62H275.09V100.032ZM285.566 110.976V104.46H277.718V110.976H285.566ZM332.363 106.512H327.359V115.08H324.623V95.316H327.359V104.208H332.363V106.512ZM316.379 98.34H306.767V96.072H316.379V98.34ZM311.339 114.324C309.851 114.324 308.543 114.096 307.415 113.64C306.287 113.184 305.411 112.548 304.787 111.732C304.187 110.916 303.887 109.992 303.887 108.96C303.887 107.928 304.139 107.04 304.643 106.296C305.171 105.528 305.951 104.928 306.983 104.496V104.28H301.511V102.084H321.023V104.28H315.695V104.496C316.727 104.928 317.495 105.528 317.999 106.296C318.527 107.04 318.791 107.928 318.791 108.96C318.791 109.992 318.479 110.916 317.855 111.732C317.255 112.548 316.391 113.184 315.263 113.64C314.135 114.096 312.827 114.324 311.339 114.324ZM310.979 112.056H311.699C313.043 112.056 314.135 111.732 314.975 111.084C315.815 110.412 316.235 109.488 316.235 108.312C316.235 107.112 315.815 106.188 314.975 105.54C314.135 104.868 313.043 104.532 311.699 104.532H310.979C309.635 104.532 308.543 104.868 307.703 105.54C306.863 106.188 306.443 107.112 306.443 108.312C306.443 109.488 306.863 110.412 307.703 111.084C308.543 111.732 309.635 112.056 310.979 112.056ZM307.919 116.952H327.359V127.86H309.719C309.143 127.86 308.699 127.704 308.387 127.392C308.075 127.08 307.919 126.624 307.919 126.024V116.952ZM310.655 125.592H324.623V119.22H310.655V125.592ZM362.229 95.316V126.564H359.673V95.316H362.229ZM352.905 95.856H355.425V125.7H352.905V109.032H349.089C348.753 110.952 348.153 112.752 347.289 114.432C346.425 116.112 345.165 118.032 343.509 120.192L341.457 118.752C342.897 116.928 344.001 115.296 344.769 113.856C345.561 112.416 346.125 110.904 346.461 109.32C346.821 107.736 347.001 105.852 347.001 103.668V100.788H343.077V98.628H349.485V103.596C349.485 104.7 349.449 105.744 349.377 106.728H352.905V95.856ZM341.781 102.948C341.781 105.132 341.577 107.028 341.169 108.636C340.785 110.22 340.161 111.744 339.297 113.208C338.457 114.648 337.245 116.316 335.661 118.212L333.717 116.772C335.181 115.044 336.297 113.52 337.065 112.2C337.857 110.88 338.421 109.512 338.757 108.096C339.117 106.656 339.297 104.964 339.297 103.02V100.788H334.761V98.628H341.781V102.948ZM401.682 95.316V111.696H398.91V95.316H401.682ZM375.762 103.56C375.762 102.048 376.11 100.728 376.806 99.6C377.526 98.472 378.51 97.608 379.758 97.008C381.03 96.384 382.458 96.072 384.042 96.072C385.626 96.072 387.042 96.384 388.29 97.008C389.562 97.608 390.546 98.472 391.242 99.6C391.962 100.728 392.322 102.048 392.322 103.56C392.322 105.072 391.962 106.392 391.242 107.52C390.546 108.648 389.562 109.524 388.29 110.148C387.042 110.748 385.626 111.048 384.042 111.048C382.458 111.048 381.03 110.748 379.758 110.148C378.51 109.524 377.526 108.648 376.806 107.52C376.11 106.392 375.762 105.072 375.762 103.56ZM389.406 104.1V103.02C389.406 101.58 388.914 100.44 387.93 99.6C386.946 98.736 385.65 98.304 384.042 98.304C382.434 98.304 381.126 98.736 380.118 99.6C379.134 100.464 378.642 101.604 378.642 103.02V104.1C378.642 105.516 379.146 106.656 380.154 107.52C381.162 108.384 382.458 108.816 384.042 108.816C385.626 108.816 386.91 108.384 387.894 107.52C388.902 106.656 389.406 105.516 389.406 104.1ZM381.63 126.204V119.688H398.91V115.98H381.414V113.676H401.682V121.992H384.402V125.7H402.546V128.04H383.43C382.854 128.04 382.41 127.884 382.098 127.572C381.786 127.26 381.63 126.804 381.63 126.204ZM431.044 103.056V95.316H433.78V114.108H431.044V105.288H424.492V103.056H431.044ZM409.66 113.028L407.608 111.3C409.624 109.716 411.184 108.348 412.288 107.196C413.392 106.02 414.184 104.868 414.664 103.74C415.168 102.588 415.42 101.304 415.42 99.888V99.528H408.544V97.224H424.96V99.528H418.156V99.996C418.156 102.036 417.736 103.824 416.896 105.36L417.112 105.468L417.688 105.036C417.952 104.844 418.216 104.748 418.48 104.748C418.792 104.748 419.068 104.856 419.308 105.072L426.004 110.688L423.988 112.488L417.184 106.584C416.992 106.44 416.812 106.368 416.644 106.368C416.452 106.368 416.284 106.44 416.14 106.584C415.492 107.52 414.664 108.48 413.656 109.464C412.648 110.448 411.316 111.636 409.66 113.028ZM433.96 121.56C433.96 122.856 433.576 124.008 432.808 125.016C432.064 126.048 430.924 126.852 429.388 127.428C427.876 128.028 426.028 128.328 423.844 128.328C421.636 128.328 419.764 128.028 418.228 127.428C416.716 126.852 415.576 126.048 414.808 125.016C414.064 124.008 413.692 122.856 413.692 121.56C413.692 120.264 414.064 119.112 414.808 118.104C415.576 117.072 416.716 116.268 418.228 115.692C419.764 115.092 421.636 114.792 423.844 114.792C426.028 114.792 427.876 115.092 429.388 115.692C430.924 116.268 432.064 117.072 432.808 118.104C433.576 119.112 433.96 120.264 433.96 121.56ZM431.08 121.272C431.08 120.048 430.48 119.028 429.28 118.212C428.08 117.372 426.268 116.952 423.844 116.952C421.396 116.952 419.56 117.372 418.336 118.212C417.136 119.028 416.536 120.048 416.536 121.272V121.884C416.536 123.084 417.136 124.092 418.336 124.908C419.56 125.748 421.396 126.168 423.844 126.168C426.268 126.168 428.08 125.748 429.28 124.908C430.48 124.092 431.08 123.084 431.08 121.884V121.272ZM442.802 101.076C442.802 99.324 443.702 97.932 445.502 96.9C447.302 95.844 450.002 95.316 453.602 95.316C457.202 95.316 459.902 95.844 461.702 96.9C463.502 97.932 464.402 99.324 464.402 101.076C464.402 102.828 463.502 104.232 461.702 105.288C459.902 106.344 457.202 106.872 453.602 106.872C450.002 106.872 447.302 106.344 445.502 105.288C443.702 104.232 442.802 102.828 442.802 101.076ZM461.486 101.256V100.86C461.486 99.828 460.826 98.988 459.506 98.34C458.21 97.668 456.242 97.332 453.602 97.332C450.962 97.332 448.982 97.668 447.662 98.34C446.366 98.988 445.718 99.828 445.718 100.86V101.256C445.718 102.288 446.366 103.14 447.662 103.812C448.982 104.46 450.962 104.784 453.602 104.784C456.242 104.784 458.21 104.46 459.506 103.812C460.826 103.14 461.486 102.288 461.486 101.256ZM468.29 109.356V111.66H438.914V109.356H468.29ZM443.486 126.204V120.3H461.234V116.916H443.27V114.684H463.862V122.388H446.114V125.808H464.798V128.04H445.286C444.71 128.04 444.266 127.884 443.954 127.572C443.642 127.26 443.486 126.804 443.486 126.204ZM507.275 95.316V126.564H504.647V95.316H507.275ZM497.627 95.784H500.147V125.736H497.627V114.108H492.335V111.912H497.627V105.864H492.731C492.539 107.832 492.071 109.56 491.327 111.048C490.583 112.536 489.479 113.976 488.015 115.368C486.551 116.736 484.547 118.284 482.003 120.012L480.275 118.248C482.987 116.472 485.039 114.9 486.431 113.532C487.823 112.14 488.807 110.676 489.383 109.14C489.959 107.604 490.247 105.708 490.247 103.452V100.644H481.067V98.52H492.839V103.38V103.668H497.627V95.784ZM538.545 95.316V116.808H535.809V95.316H538.545ZM527.277 97.692H517.737V95.568H527.277V97.692ZM533.397 115.008C530.661 115.44 527.409 115.776 523.641 116.016C519.873 116.232 515.985 116.34 511.977 116.34L511.761 114.108C515.385 114.108 518.457 114.048 520.977 113.928V111.408C519.105 111.24 517.617 110.76 516.513 109.968C515.433 109.152 514.893 108.132 514.893 106.908C514.893 105.156 515.853 103.908 517.773 103.164V102.984H512.661V100.932H531.705V102.984H526.809V103.2C528.729 103.92 529.689 105.156 529.689 106.908C529.689 108.132 529.137 109.152 528.033 109.968C526.953 110.76 525.465 111.24 523.569 111.408V113.82C527.361 113.628 530.553 113.34 533.145 112.956L533.397 115.008ZM521.733 109.32H522.813C524.109 109.32 525.165 109.056 525.981 108.528C526.821 107.976 527.241 107.208 527.241 106.224C527.241 105.24 526.833 104.484 526.017 103.956C525.201 103.404 524.133 103.128 522.813 103.128H521.733C520.413 103.128 519.345 103.404 518.529 103.956C517.737 104.484 517.341 105.24 517.341 106.224C517.341 107.208 517.749 107.976 518.565 108.528C519.381 109.056 520.437 109.32 521.733 109.32ZM517.485 118.716H538.545V128.22H535.881V120.84H517.485V118.716ZM574.026 110.508H568.95V126.636H566.214V95.388H568.95V108.204H574.026V110.508ZM558.546 99.42H548.322V97.08H558.546V99.42ZM543.534 103.74H562.794V105.972H557.466V106.188C559.65 107.268 560.742 109.344 560.742 112.416C560.742 113.976 560.418 115.332 559.77 116.484C559.122 117.612 558.222 118.476 557.07 119.076C555.942 119.676 554.682 119.976 553.29 119.976C551.898 119.976 550.626 119.676 549.474 119.076C548.346 118.476 547.458 117.612 546.81 116.484C546.162 115.332 545.838 113.976 545.838 112.416C545.838 109.344 546.93 107.268 549.114 106.188V105.972H543.534V103.74ZM558.078 111.228C558.078 109.62 557.646 108.396 556.782 107.556C555.918 106.692 554.754 106.26 553.29 106.26C551.85 106.26 550.686 106.692 549.798 107.556C548.934 108.42 548.502 109.644 548.502 111.228V112.704C548.502 114.264 548.946 115.488 549.834 116.376C550.722 117.24 551.874 117.672 553.29 117.672C554.706 117.672 555.858 117.24 556.746 116.376C557.634 115.488 558.078 114.264 558.078 112.704V111.228ZM603.568 95.316V126.564H600.904V95.316H603.568ZM593.704 95.856H596.332V125.7H593.704V108.456H588.7V106.152H593.704V95.856ZM584.92 108.276C585.256 108.276 585.508 108.42 585.676 108.708L591.544 117.348L589.492 119.076L583.732 110.328C583.66 110.184 583.552 110.112 583.408 110.112C583.264 110.112 583.156 110.196 583.084 110.364C582.58 111.684 581.884 113.052 580.996 114.468C580.108 115.884 578.908 117.6 577.396 119.616L575.452 117.924C577.228 115.572 578.584 113.556 579.52 111.876C580.456 110.196 581.116 108.528 581.5 106.872C581.908 105.216 582.112 103.296 582.112 101.112V97.872H584.74V101.076C584.74 103.932 584.404 106.488 583.732 108.744L583.84 108.852L584.236 108.528C584.428 108.36 584.656 108.276 584.92 108.276ZM611.258 104.928C611.258 103.32 611.666 101.88 612.482 100.608C613.322 99.336 614.594 98.328 616.298 97.584C618.002 96.84 620.102 96.468 622.598 96.468C625.094 96.468 627.194 96.84 628.898 97.584C630.602 98.328 631.862 99.336 632.678 100.608C633.518 101.88 633.938 103.32 633.938 104.928C633.938 106.512 633.518 107.94 632.678 109.212C631.862 110.484 630.602 111.504 628.898 112.272C627.194 113.016 625.094 113.388 622.598 113.388C620.102 113.388 618.002 113.016 616.298 112.272C614.594 111.504 613.322 110.484 612.482 109.212C611.666 107.94 611.258 106.512 611.258 104.928ZM614.21 105.324C614.21 107.004 614.906 108.396 616.298 109.5C617.69 110.604 619.79 111.156 622.598 111.156C625.406 111.156 627.506 110.604 628.898 109.5C630.29 108.396 630.986 107.004 630.986 105.324V104.532C630.986 102.852 630.29 101.46 628.898 100.356C627.506 99.228 625.406 98.664 622.598 98.664C619.79 98.664 617.69 99.228 616.298 100.356C614.906 101.46 614.21 102.852 614.21 104.532V105.324ZM637.286 120.696V123H607.91V120.696H615.434V114.468H618.134V120.696H627.062V114.468H629.726V120.696H637.286ZM643.535 123.432C642.767 123.432 642.203 123.24 641.843 122.856C641.507 122.472 641.339 121.968 641.339 121.344V120.876C641.339 120.252 641.507 119.748 641.843 119.364C642.203 118.98 642.767 118.788 643.535 118.788C644.303 118.788 644.855 118.98 645.191 119.364C645.551 119.748 645.731 120.252 645.731 120.876V121.344C645.731 121.968 645.551 122.472 645.191 122.856C644.855 123.24 644.303 123.432 643.535 123.432Z" fill="#4C7AA7"/>
</svg>
