<svg width="627" height="678" viewBox="0 0 627 678" fill="none" xmlns="http://www.w3.org/2000/svg">
<path d="M87.8398 58.2438L100.8 20.3781C102.33 15.9949 103.1 12.7253 103.1 10.5694C103.1 8.54639 102.399 7.23854 100.99 6.64597C99.6396 5.99205 97.5303 5.66514 94.6494 5.66514V1.74157H121.92V5.66514C119.479 5.66514 117.28 6.28838 115.29 7.52465C113.37 8.7099 111.899 10.7329 110.88 13.6142L87.7402 78.2494H79.2002L62.4902 26.4575L43.4795 78.2494H35.5195L15.1602 20.9707C13.9502 17.6297 12.8301 14.9527 11.7998 12.9194C10.7803 10.8964 9.68945 9.36383 8.54004 8.31141C7.38965 7.26923 6.13965 6.58461 4.7998 6.2577C3.4502 5.93081 1.84961 5.76729 0 5.76729V1.74157H36.2803V5.76729C33.0195 5.76729 30.7803 6.09418 29.5596 6.74812C28.3496 7.33057 27.7402 8.34208 27.7402 9.78265C27.7402 10.3038 27.7695 10.8351 27.8398 11.3562C27.8994 11.8159 28.0303 12.3677 28.2197 13.0216C28.4102 13.6142 28.6396 14.3602 28.8896 15.2796C29.21 16.189 29.6299 17.3333 30.1396 18.7126L43.5801 58.2438L59.1299 14.8811C58.4902 13.1238 57.8496 11.6832 57.21 10.5694C56.5703 9.45575 55.7998 8.57707 54.9102 7.92314C54.0801 7.26922 53.1201 6.80948 52.0303 6.54382C50.9395 6.2168 49.6299 5.96137 48.0898 5.76729V1.74157H81.9795V5.76729C79.29 5.76729 77.3096 6.12487 76.0303 6.84004C74.75 7.49397 74.1094 8.80183 74.1094 10.7636C74.1094 11.7444 74.2402 12.8888 74.4902 14.1966C74.8096 15.5045 75.2295 17.0064 75.7402 18.7126L87.8398 58.2438ZM160.939 54.4123H133.77C130.76 61.3499 129.26 66.152 129.26 68.829C129.26 70.7907 129.96 72.0373 131.37 72.5583C132.84 73.0794 135.02 73.3451 137.899 73.3451V77.2686H111.59V73.3451C113.13 73.151 114.439 72.8853 115.53 72.5583C116.68 72.2314 117.67 71.7716 118.5 71.1893C119.399 70.5966 120.17 69.8507 120.81 68.9312C121.45 67.9503 122.06 66.7753 122.63 65.396L147.88 0.760742H154.979L177.93 58.0395C179.27 61.3805 180.39 63.9962 181.29 65.8864C182.25 67.7868 183.24 69.2581 184.26 70.3004C185.35 71.2812 186.57 71.9759 187.91 72.3642C189.32 72.7525 191.109 73.0488 193.29 73.243V77.2686H157V73.243C160.07 73.1202 162.28 72.7934 163.62 72.2621C164.97 71.741 165.64 70.6988 165.64 69.1253C165.64 68.216 165.42 67.0307 164.97 65.6003C164.52 64.1596 163.91 62.3919 163.14 60.2975L160.939 54.4123ZM135.979 48.527H158.82L147.78 18.8047H147.399L135.979 48.527ZM193.04 14.1047C192.08 12.3983 191.18 10.9986 190.35 9.88493C189.58 8.77115 188.78 7.92315 187.95 7.33058C187.12 6.67666 186.22 6.2577 185.26 6.05341C184.3 5.79797 183.21 5.66514 182 5.66514V1.74157H214.25V5.66514C211.56 5.66514 209.68 5.9308 208.59 6.45177C207.5 6.97287 206.96 7.75963 206.96 8.80182C206.96 9.45575 207.149 10.2425 207.53 11.1622C207.92 12.0713 208.52 13.3179 209.359 14.8811L223.08 41.661H223.47L235.56 21.0627C237.68 17.4049 239.149 14.687 239.979 12.9194C240.81 11.0905 241.229 9.64983 241.229 8.60775C241.229 7.49398 240.72 6.74812 239.689 6.34963C238.729 5.88989 236.91 5.66514 234.22 5.66514V1.74157H258.29V5.66514C256.89 5.66514 255.59 5.88989 254.49 6.34963C253.32 6.80948 252.109 7.72896 250.83 9.09817C249.609 10.406 248.2 12.2655 246.6 14.6871C245.07 17.0474 243.21 20.1534 241.04 24.0053L227.02 48.527V58.5299C227.02 61.7994 227.149 64.4151 227.399 66.3768C227.72 68.3386 228.24 69.8508 228.939 70.8929C229.71 71.8738 230.729 72.5277 232.01 72.8547C233.29 73.1816 234.96 73.3451 237 73.3451V77.2686H202.83V73.3451C204.81 73.3451 206.439 73.1816 207.72 72.8547C209.07 72.5277 210.12 71.8738 210.89 70.8929C211.66 69.9122 212.17 68.5021 212.43 66.6731C212.75 64.7829 212.91 62.2899 212.91 59.2247V50.1925L193.04 14.1047ZM283.79 61.4725C283.79 63.9655 283.99 65.9886 284.29 67.562C284.59 69.064 285.29 70.239 286.189 71.087C287.29 71.8738 288.689 72.4255 290.49 72.7525C292.29 73.0794 294.79 73.2838 297.89 73.3451V77.2686H259.59V73.3451C261.79 73.2838 263.49 73.0794 264.79 72.7525C266.189 72.4255 267.189 71.8738 267.89 71.087C268.59 70.3004 269.09 69.1968 269.29 67.7561C269.59 66.3155 269.689 64.456 269.689 62.1673V16.8429C269.689 14.5542 269.59 12.7253 269.29 11.3562C269.189 9.91548 268.689 8.80182 268.09 8.01507C267.49 7.16706 266.49 6.61529 265.29 6.34963C264.189 6.02272 262.59 5.79797 260.689 5.66514V1.74157H319.49L320.59 22.442H316.59C316.189 19.622 315.59 17.272 314.79 15.3716C314.09 13.4099 313.09 11.8466 311.79 10.6716C310.39 9.42507 308.689 8.54639 306.59 8.01507C304.49 7.49397 301.89 7.23853 298.79 7.23853H285.59C284.39 7.23853 283.79 7.79031 283.79 8.90397V37.247C287.689 37.247 290.89 37.0836 293.29 36.7566C295.79 36.4297 297.79 35.8064 299.29 34.897C300.79 33.9162 301.79 32.6083 302.49 30.9735C303.09 29.3388 303.59 27.1829 303.79 24.4958H307.39V55.199H303.79C303.39 52.4505 302.89 50.264 302.189 48.6292C301.49 46.923 300.39 45.6561 298.89 44.7977C297.49 43.8884 295.59 43.2651 293.189 42.9381C290.689 42.6112 287.59 42.4477 283.79 42.4477V61.4725ZM364.09 54.4123H336.89C333.89 61.3499 332.39 66.152 332.39 68.829C332.39 70.7907 333.09 72.0373 334.49 72.5583C335.99 73.0794 338.189 73.3451 341.09 73.3451V77.2686H314.79V73.3451C316.29 73.151 317.59 72.8853 318.689 72.5583C319.79 72.2314 320.79 71.7716 321.689 71.1893C322.59 70.5966 323.29 69.8507 323.99 68.9312C324.59 67.9503 325.189 66.7753 325.79 65.396L350.99 0.760742H358.189L381.09 58.0395C382.39 61.3805 383.59 63.9962 384.49 65.8864C385.39 67.7868 386.39 69.2581 387.39 70.3004C388.49 71.2812 389.689 71.9759 391.09 72.3642C392.49 72.7525 394.29 73.0488 396.49 73.243V77.2686H360.189V73.243C363.189 73.1202 365.39 72.7934 366.79 72.2621C368.09 71.741 368.79 70.6988 368.79 69.1253C368.79 68.216 368.59 67.0307 368.09 65.6003C367.689 64.1596 367.09 62.3919 366.29 60.2975L364.09 54.4123ZM339.09 48.527H361.99L350.99 18.8047H350.59L339.09 48.527ZM460.39 20.6744C460.39 26.0999 458.79 30.6466 455.689 34.3044C452.689 37.9725 447.79 40.4246 441.09 41.661L463.29 67.7561C464.89 69.5851 466.689 70.9951 468.79 71.976C470.89 72.8853 473.09 73.3451 475.189 73.3451V77.2686H452.49L428.689 47.4542C427.09 45.4925 425.689 44.1846 424.39 43.5307C423.29 42.8053 422.189 42.4477 421.189 42.4477V61.6768C421.189 64.0881 421.29 66.0908 421.689 67.654C421.99 69.1561 422.59 70.3412 423.59 71.1893C424.49 72.0373 425.89 72.6299 427.689 72.9568C429.59 73.2123 431.99 73.3451 435.09 73.3451V77.2686H396.99V73.3451C399.09 73.3451 400.79 73.2123 402.09 72.9568C403.39 72.6299 404.39 72.0679 405.189 71.2812C405.89 70.4332 406.39 69.2887 406.689 67.8481C406.89 66.3463 407.09 64.456 407.09 62.1673V16.8429C407.09 14.5542 406.99 12.7253 406.79 11.3562C406.59 9.91548 406.189 8.80182 405.49 8.01507C404.89 7.16706 403.99 6.61529 402.79 6.34963C401.59 6.02272 399.99 5.79797 397.99 5.66514V1.74157H431.29C440.49 1.74157 447.689 3.40701 452.79 6.74812C457.79 10.079 460.39 14.7177 460.39 20.6744ZM421.189 36.5625H427.39C433.39 36.5625 437.89 35.3875 440.89 33.0272C443.89 30.6159 445.39 26.6516 445.39 21.1649C445.39 16.9757 444.09 13.6142 441.59 11.0599C439.09 8.50547 435.689 7.23853 431.29 7.23853H422.89C421.79 7.23853 421.189 7.79031 421.189 8.90397V36.5625ZM499.49 35.4795C503.59 35.4795 506.89 35.3568 509.39 35.0912C511.79 34.8255 513.79 34.3044 515.09 33.5178C516.49 32.6696 517.49 31.464 518.09 29.8905C518.689 28.3273 519.09 26.202 519.39 23.5149H522.99V52.2564H519.39C518.99 49.6407 518.49 47.5462 517.89 45.9829C517.29 44.4094 516.189 43.2343 514.79 42.4477C513.39 41.5996 511.49 41.0786 509.09 40.8742C506.689 40.6188 503.49 40.486 499.49 40.486V60.696C499.49 62.7803 499.689 64.548 500.189 65.9886C500.79 67.4292 501.689 68.6042 502.99 69.5238C504.29 70.3718 505.99 70.9951 508.09 71.3833C510.189 71.7104 512.79 71.8738 515.89 71.8738C519.49 71.8738 522.59 71.6081 525.09 71.087C527.689 70.5658 529.79 69.6464 531.39 68.3386C533.09 67.0308 534.39 65.304 535.49 63.1482C536.49 60.9207 537.39 58.1416 538.09 54.8107H541.89L540.39 77.2686H475.29V73.3451C477.39 73.2838 479.09 73.0794 480.49 72.7525C481.79 72.4255 482.79 71.8738 483.49 71.087C484.189 70.3004 484.689 69.1968 484.99 67.7561C485.189 66.3155 485.39 64.456 485.39 62.1673V16.8429C485.39 14.5542 485.189 12.7253 484.99 11.3562C484.79 9.91548 484.39 8.80182 483.689 8.01507C483.09 7.16706 482.189 6.61529 480.89 6.34963C479.79 6.02272 478.189 5.79797 476.29 5.66514V1.74157H536.99L537.689 20.9707H533.49C533.189 18.2223 532.59 15.9642 531.689 14.1966C530.89 12.3677 529.689 10.927 528.29 9.88493C526.79 8.77115 524.89 8.01507 522.49 7.6268C520.189 7.16707 517.39 6.94231 513.99 6.94231H503.09C501.39 6.94231 500.39 7.16707 499.99 7.6268C499.689 8.01507 499.49 8.99602 499.49 10.5694V35.4795ZM611.89 20.6744C611.89 26.0999 610.39 30.6466 607.29 34.3044C604.29 37.9725 599.39 40.4246 592.59 41.661L614.89 67.7561C616.49 69.5851 618.29 70.9951 620.39 71.976C622.49 72.8853 624.59 73.3451 626.79 73.3451V77.2686H604.09L580.29 47.4542C578.689 45.4925 577.29 44.1846 575.99 43.5307C574.89 42.8053 573.79 42.4477 572.79 42.4477V61.6768C572.79 64.0881 572.89 66.0908 573.29 67.654C573.59 69.1561 574.189 70.3412 575.189 71.1893C576.09 72.0373 577.49 72.6299 579.29 72.9568C581.189 73.2123 583.59 73.3451 586.689 73.3451V77.2686H548.59V73.3451C550.689 73.3451 552.39 73.2123 553.689 72.9568C554.99 72.6299 555.99 72.0679 556.689 71.2812C557.49 70.4332 557.99 69.2887 558.29 67.8481C558.49 66.3463 558.689 64.456 558.689 62.1673V16.8429C558.689 14.5542 558.59 12.7253 558.39 11.3562C558.189 9.91548 557.79 8.80182 557.09 8.01507C556.49 7.16706 555.59 6.61529 554.29 6.34963C553.189 6.02272 551.59 5.79797 549.59 5.66514V1.74157H582.89C592.09 1.74157 599.29 3.40701 604.39 6.74812C609.39 10.079 611.89 14.7177 611.89 20.6744ZM572.79 36.5625H578.99C584.99 36.5625 589.49 35.3875 592.49 33.0272C595.49 30.6159 596.99 26.6516 596.99 21.1649C596.99 16.9757 595.689 13.6142 593.189 11.0599C590.689 8.50547 587.29 7.23853 582.89 7.23853H574.49C573.39 7.23853 572.79 7.79031 572.79 8.90397V36.5625Z" fill="#4C7AA7"/>
<path d="M18.0098 137.387H23.2002V139.502H18.0098V137.387ZM12.9404 130.092H14.8896V135.364C14.8896 141.158 12.5205 146.767 8.56055 149.25L7 147.319C10.7197 145.081 12.9404 140.115 12.9404 135.364V130.092ZM13.4199 130.092H15.3398V135.272C15.3398 139.717 17.3799 144.437 20.9502 146.644L19.5098 148.637C15.6103 146.185 13.4199 140.667 13.4199 135.272V130.092ZM27.9697 127.487H30.3701V155.196H27.9697V127.487ZM22.4805 128.069H24.8203V153.817H22.4805V128.069ZM41.5 128.927H43.5703V131.747C43.5703 137.081 40.6299 141.495 36.0996 143.303L34.7803 141.25C38.8604 139.717 41.5 135.977 41.5 131.747V128.927ZM41.9502 128.927H43.9902V131.931C43.9902 135.671 46.6904 139.135 50.5898 140.514L49.2705 142.506C44.9199 140.851 41.9502 136.744 41.9502 131.931V128.927ZM53.4697 127.487H55.96V144.284H53.4697V127.487ZM55.2705 134.629H59.9805V136.774H55.2705V134.629ZM47.3203 145.05C52.8701 145.05 56.2305 146.92 56.2305 150.108C56.2305 153.296 52.8701 155.135 47.3203 155.135C41.7705 155.135 38.4102 153.296 38.4102 150.108C38.4102 146.92 41.7705 145.05 47.3203 145.05ZM47.3203 147.074C43.2998 147.074 40.8398 148.177 40.8398 150.108C40.8398 152.039 43.2998 153.143 47.3203 153.143C51.3398 153.143 53.7998 152.039 53.7998 150.108C53.7998 148.177 51.3398 147.074 47.3203 147.074ZM71.3105 129.479C75.54 129.479 78.5703 132.146 78.5703 136.008C78.5703 139.901 75.54 142.568 71.3105 142.568C67.0801 142.568 64.0205 139.901 64.0205 136.008C64.0205 132.146 67.0801 129.479 71.3105 129.479ZM71.3105 131.686C68.4902 131.686 66.4502 133.433 66.4502 136.008C66.4502 138.583 68.4902 140.361 71.3105 140.361C74.0996 140.361 76.1396 138.583 76.1396 136.008C76.1396 133.433 74.0996 131.686 71.3105 131.686ZM82.1104 127.456H84.5996V155.227H82.1104V127.456ZM63 149.158L62.6396 147.043C67.5898 147.043 74.4297 147.012 80.3398 146.062L80.5498 147.932C74.46 149.127 67.8301 149.158 63 149.158ZM97.9102 149.556H122.48V151.671H97.9102V149.556ZM108.89 142.384H111.38V150.139H108.89V142.384ZM100.76 129.786H119.48V142.844H100.76V129.786ZM117.08 131.839H103.19V140.79H117.08V131.839ZM125.51 141.464H150.021V143.548H125.51V141.464ZM128.6 136.345H147.2V138.46H128.6V136.345ZM128.6 128.682H146.96V130.736H131.09V137.05H128.6V128.682ZM128.63 152.468H147.44V154.583H128.63V152.468ZM128.63 146.461H131.12V153.02H128.63V146.461ZM181.061 138.522H186.07V140.667H181.061V138.522ZM179.23 127.456H181.75V155.196H179.23V127.456ZM161.95 130.184H164.44V147.349H161.95V130.184ZM161.95 146.031H164.11C168.13 146.031 172.24 145.755 176.71 144.805L177.01 146.92C172.39 147.901 168.22 148.177 164.11 148.177H161.95V146.031ZM191.14 130.429H208.6V132.483H191.14V130.429ZM188.5 149.035H213.01V151.15H188.5V149.035ZM207.28 130.429H209.71V133.188C209.71 136.744 209.71 140.698 208.69 146.675L206.2 146.43C207.28 140.759 207.28 136.621 207.28 133.188V130.429ZM217.39 130.46H219.85V146.706H217.39V130.46ZM217.39 145.97H219.13C222.28 145.97 225.22 145.817 228.64 145.112L228.97 147.288C225.43 148.024 222.4 148.177 219.13 148.177H217.39V145.97ZM236.74 127.487H239.14V155.196H236.74V127.487ZM224.92 136.774H231.7V138.889H224.92V136.774ZM231.01 128.13H233.35V153.786H231.01V128.13ZM243.4 144.407C243.4 142.721 243.55 141.086 243.87 139.482C244.19 137.888 244.68 136.366 245.33 134.925C245.99 133.474 246.811 132.146 247.811 130.92H250.14C248.72 132.82 247.66 134.925 246.94 137.244C246.23 139.554 245.87 141.934 245.87 144.376C245.87 145.98 246.03 147.554 246.34 149.107C246.66 150.66 247.14 152.152 247.76 153.582C248.4 155.023 249.18 156.382 250.11 157.659H247.811C246.811 156.453 245.99 155.145 245.33 153.735C244.68 152.325 244.19 150.833 243.87 149.26C243.55 147.686 243.4 146.062 243.4 144.407ZM278.28 130.92L272.58 152.806H270.08L265.78 138.082C265.68 137.663 265.58 137.244 265.48 136.825C265.38 136.396 265.28 135.988 265.18 135.61C265.08 135.221 264.98 134.884 264.88 134.588C264.88 134.292 264.78 134.067 264.78 133.914C264.78 134.067 264.68 134.292 264.68 134.578C264.58 134.864 264.58 135.201 264.48 135.579C264.38 135.957 264.28 136.366 264.18 136.795C264.08 137.224 263.88 137.653 263.78 138.092L259.68 152.806H257.18L251.48 130.92H254.08L257.48 144.652C257.68 145.112 257.78 145.561 257.88 146.011C257.98 146.45 258.08 146.879 258.08 147.298C258.18 147.717 258.28 148.126 258.38 148.524C258.38 148.923 258.48 149.311 258.58 149.689C258.58 149.301 258.68 148.902 258.78 148.484C258.78 148.054 258.88 147.615 258.98 147.176C259.08 146.736 259.18 146.297 259.28 145.847C259.38 145.398 259.58 144.948 259.68 144.499L263.48 130.92H266.08L270.08 144.601C270.18 145.071 270.38 145.541 270.48 145.99C270.58 146.45 270.68 146.9 270.78 147.339C270.88 147.768 270.98 148.187 270.98 148.586C271.08 148.974 271.18 149.342 271.18 149.689C271.28 149.199 271.38 148.688 271.48 148.146C271.58 147.615 271.68 147.053 271.78 146.461C271.98 145.868 272.08 145.265 272.28 144.632L275.68 130.92H278.28ZM295.08 152.806L292.48 145.858H283.88L281.28 152.806H278.78L287.18 130.838H289.38L297.68 152.806H295.08ZM291.78 143.6L289.28 136.703C289.18 136.519 289.08 136.223 288.98 135.814C288.78 135.405 288.68 134.986 288.58 134.547C288.38 134.108 288.28 133.75 288.18 133.484C288.08 133.893 287.98 134.302 287.88 134.711C287.78 135.109 287.68 135.487 287.58 135.834C287.48 136.172 287.38 136.458 287.28 136.703L284.78 143.6H291.78ZM306.18 141.893L311.88 130.92H314.48L307.38 144.315V152.806H304.88V144.437L297.78 130.92H300.48L306.18 141.893ZM319.98 152.806H317.48V130.92H329.38V133.168H319.98V141.188H328.78V143.426H319.98V152.806ZM346.38 152.806L343.78 145.858H335.18L332.58 152.806H329.98L338.38 130.838H340.68L348.98 152.806H346.38ZM342.98 143.6L340.48 136.703C340.48 136.519 340.38 136.223 340.18 135.814C340.08 135.405 339.98 134.986 339.78 134.547C339.68 134.108 339.58 133.75 339.48 133.484C339.38 133.893 339.28 134.302 339.18 134.711C339.08 135.109 338.98 135.487 338.88 135.834C338.68 136.172 338.68 136.458 338.58 136.703L335.98 143.6H342.98ZM357.68 130.92C359.48 130.92 360.98 131.145 362.08 131.594C363.28 132.034 364.08 132.708 364.68 133.617C365.18 134.527 365.48 135.681 365.48 137.091C365.48 138.246 365.28 139.216 364.88 139.993C364.48 140.759 363.98 141.382 363.28 141.863C362.58 142.343 361.88 142.711 361.18 142.976L367.08 152.806H364.08L358.88 143.671H354.48V152.806H351.98V130.92H357.68ZM357.58 133.127H354.48V141.525H357.88C359.58 141.525 360.88 141.158 361.68 140.432C362.48 139.697 362.88 138.624 362.88 137.214C362.88 135.722 362.48 134.67 361.58 134.057C360.78 133.433 359.38 133.127 357.58 133.127ZM382.38 152.806H370.48V130.92H382.38V133.168H372.98V140.248H381.88V142.466H372.98V150.558H382.38V152.806ZM392.88 130.92C394.68 130.92 396.08 131.145 397.28 131.594C398.38 132.034 399.28 132.708 399.88 133.617C400.38 134.527 400.68 135.681 400.68 137.091C400.68 138.246 400.48 139.216 400.08 139.993C399.68 140.759 399.08 141.382 398.48 141.863C397.78 142.343 397.08 142.711 396.38 142.976L402.18 152.806H399.28L394.08 143.671H389.58V152.806H387.08V130.92H392.88ZM392.78 133.127H389.58V141.525H392.98C394.78 141.525 396.08 141.158 396.88 140.432C397.68 139.697 398.08 138.624 398.08 137.214C398.08 135.722 397.68 134.67 396.78 134.057C395.88 133.433 394.58 133.127 392.78 133.127ZM410.38 144.376C410.38 146.042 410.18 147.676 409.88 149.26C409.58 150.833 409.08 152.336 408.38 153.746C407.78 155.166 406.98 156.463 405.98 157.659H403.68C404.58 156.392 405.38 155.033 405.98 153.582C406.58 152.141 407.08 150.639 407.38 149.097C407.78 147.533 407.88 145.96 407.88 144.366C407.88 142.741 407.78 141.137 407.38 139.564C407.08 137.98 406.58 136.468 405.98 135.007C405.38 133.556 404.58 132.187 403.58 130.92H405.98C406.98 132.156 407.78 133.484 408.38 134.935C409.08 136.376 409.58 137.888 409.88 139.482C410.18 141.076 410.38 142.7 410.38 144.376ZM413.08 139.043H437.58V141.127H413.08V139.043ZM416.28 134.751H434.68V136.805H416.28V134.751ZM416.28 128.376H434.38V130.46H418.78V136.406H416.28V128.376ZM415.98 143.518H434.38V150.047H418.48V153.541H416.08V148.146H431.98V145.51H415.98V143.518ZM416.08 152.867H435.28V154.89H416.08V152.867ZM452.88 127.947C458.88 127.947 462.48 129.663 462.48 132.759C462.48 135.855 458.88 137.571 452.88 137.571C446.88 137.571 443.38 135.855 443.38 132.759C443.38 129.663 446.88 127.947 452.88 127.947ZM452.88 129.878C448.48 129.878 445.88 130.92 445.88 132.759C445.88 134.598 448.48 135.64 452.88 135.64C457.28 135.64 459.88 134.598 459.88 132.759C459.88 130.92 457.28 129.878 452.88 129.878ZM440.58 139.41H465.18V141.464H440.58V139.41ZM443.58 143.824H461.98V150.077H446.08V153.449H443.68V148.238H459.58V145.786H443.58V143.824ZM443.68 152.897H462.78V154.89H443.68V152.897ZM484.88 128.774C488.98 128.774 491.78 131.073 491.78 134.476C491.78 137.847 488.98 140.207 484.88 140.207C480.88 140.207 477.98 137.847 477.98 134.476C477.98 131.073 480.88 128.774 484.88 128.774ZM484.88 130.889C482.28 130.889 480.38 132.36 480.38 134.476C480.38 136.621 482.28 138.062 484.88 138.062C487.58 138.062 489.38 136.621 489.38 134.476C489.38 132.36 487.58 130.889 484.88 130.889ZM483.78 143.273H486.28V154.338H483.78V143.273ZM495.78 127.487H498.28V155.227H495.78V127.487ZM476.28 144.652L475.98 142.506C480.98 142.506 487.88 142.445 493.88 141.525L494.08 143.426C487.88 144.56 481.28 144.652 476.28 144.652ZM522.18 127.517H524.68V148.3H522.18V127.517ZM523.88 136.59H528.68V138.736H523.88V136.59ZM503.68 130.859H519.68V132.912H503.68V130.859ZM511.68 134.445C515.58 134.445 518.18 136.499 518.18 139.625C518.18 142.721 515.58 144.775 511.68 144.775C507.88 144.775 505.18 142.721 505.18 139.625C505.18 136.499 507.88 134.445 511.68 134.445ZM511.68 136.437C509.28 136.437 507.58 137.694 507.58 139.625C507.58 141.525 509.28 142.782 511.68 142.782C514.18 142.782 515.78 141.525 515.78 139.625C515.78 137.694 514.18 136.437 511.68 136.437ZM510.48 127.487H512.98V131.931H510.48V127.487ZM507.78 152.499H525.88V154.583H507.78V152.499ZM507.78 146.644H510.28V153.388H507.78V146.644ZM552.58 136.866H560.08V138.951H552.58V136.866ZM545.98 129.878H548.08V134.813C548.08 141.035 544.88 146.982 540.58 149.342L538.98 147.319C542.98 145.296 545.98 139.962 545.98 134.813V129.878ZM546.48 129.878H548.48V134.813C548.48 139.87 551.58 144.897 555.48 146.798L554.08 148.851C549.68 146.583 546.48 140.882 546.48 134.813V129.878ZM558.88 127.456H561.38V155.227H558.88V127.456ZM586.28 127.456H588.78V155.227H586.28V127.456ZM568.18 129.816H570.58V137.142H578.48V129.816H580.98V148.545H568.18V129.816ZM570.58 139.165V146.461H578.48V139.165H570.58ZM605.08 129.387H607.28V131.502C607.28 137.541 601.78 142.231 596.38 143.487L595.18 141.372C599.98 140.453 605.08 136.223 605.08 131.502V129.387ZM605.58 129.387H607.68V131.502C607.68 136.253 612.88 140.453 617.58 141.372L616.48 143.487C611.08 142.231 605.58 137.571 605.58 131.502V129.387ZM594.28 149.372H618.78V151.457H594.28V149.372Z" fill="#4C7AA7"/>
<path d="M62.5801 429.227H64.8906V430.954C64.8906 437.544 62.1904 444.195 57.4307 447.107L55.6299 444.788C60.0605 442.142 62.5801 436.359 62.5801 430.954V429.227ZM63.1201 429.227H65.4307V430.954C65.4307 436.216 68.0498 441.661 72.4102 444.083L70.7207 446.372C65.9307 443.644 63.1201 437.36 63.1201 430.954V429.227ZM56.46 426.908H71.5498V429.411H56.46V426.908ZM62.5801 421.911H65.46V428.788H62.5801V421.911ZM80.8301 420.726H83.6807V453.984H80.8301V420.726ZM75.6904 434.121H81.9502V436.696H75.6904V434.121ZM73.7402 421.431H76.5498V452.328H73.7402V421.431ZM90.9502 436.512H93.5801C100.601 436.512 104.45 436.359 109.021 435.592L109.34 438.014C104.63 438.862 100.67 438.974 93.5801 438.974H90.9502V436.512ZM90.9502 423.158H106.431V425.62H93.9004V437.758H90.9502V423.158ZM92.9307 429.738H105.53V432.169H92.9307V429.738ZM112.73 420.767H115.75V441.324H112.73V420.767ZM104.99 441.804C111.76 441.804 115.9 444.012 115.9 447.843C115.9 451.705 111.76 453.912 104.99 453.912C98.1807 453.912 94.04 451.705 94.04 447.843C94.04 444.012 98.1807 441.804 104.99 441.804ZM104.99 444.236C100.021 444.236 97.0303 445.554 97.0303 447.843C97.0303 450.193 100.021 451.521 104.99 451.521C109.92 451.521 112.91 450.193 112.91 447.843C112.91 445.554 109.92 444.236 104.99 444.236ZM123.63 424.374H138.36V426.836H123.63V424.374ZM128.71 433.866H131.66V445.115H128.71V433.866ZM137.13 424.374H140.05V426.141C140.05 428.859 140.05 433.201 139.11 439.383L136.16 439.087C137.13 433.089 137.13 428.818 137.13 426.141V424.374ZM144.15 420.726H147.101V453.984H144.15V420.726ZM146.311 434.632H152.32V437.207H146.311V434.632ZM122.19 446.739L121.83 444.165C127.74 444.165 135.58 444.052 142.17 443.204L142.32 445.452C135.58 446.556 127.95 446.699 122.19 446.739ZM188.311 420.726H191.3V437.942H188.311V420.726ZM170.28 439.638H191.34V447.618H173.271V452.175H170.351V445.34H188.391V442.029H170.28V439.638ZM170.351 451.184H192.42V453.616H170.351V451.184ZM173.12 421.686H175.61V424.22C175.61 430.371 171.86 435.592 166.351 437.646L164.88 435.224C169.771 433.457 173.12 429.043 173.12 424.22V421.686ZM173.66 421.686H176.11V424.22C176.11 428.818 179.53 432.977 184.351 434.601L182.88 436.992C177.41 435.071 173.66 430.187 173.66 424.22V421.686ZM206.351 423.597H208.79V429.554C208.79 437.207 204.76 444.308 199.431 447.067L197.601 444.563C202.42 442.213 206.351 435.848 206.351 429.554V423.597ZM206.851 423.597H209.3V429.554C209.3 435.623 213.19 441.733 218.01 444.012L216.21 446.443C210.92 443.797 206.851 436.951 206.851 429.554V423.597ZM221.391 420.695H224.38V454.014H221.391V420.695ZM253.141 420.726H256.13V445.043H253.141V420.726ZM255.2 430.811H260.94V433.344H255.2V430.811ZM244.25 423.301H247.42C247.42 431.914 241.521 438.198 232.19 441.253L230.9 438.749C239.101 436.175 244.25 431.025 244.25 424.629V423.301ZM232.23 423.301H245.76V425.804H232.23V423.301ZM235.83 450.745H257.57V453.248H235.83V450.745ZM235.83 442.581H238.82V451.736H235.83V442.581ZM286.44 423.015H288.94V425.549C288.94 432.793 282.44 438.422 275.84 439.935L274.54 437.391C280.24 436.287 286.44 431.209 286.44 425.549V423.015ZM286.94 423.015H289.54V425.549C289.54 431.25 295.641 436.287 301.34 437.391L300.04 439.935C293.54 438.422 286.94 432.834 286.94 425.549V423.015ZM273.34 446.995H302.84V449.498H273.34V446.995ZM317.84 424.67H320.641C320.641 433.273 318.141 441.477 308.34 447.107L306.641 444.9C315.34 440.037 317.84 433.018 317.84 425.14V424.67ZM308.24 424.67H318.94V427.163H308.24V424.67ZM317.54 432.353V434.632L307.04 435.735L306.54 433.089L317.54 432.353ZM318.141 433.866H325.641V436.328H318.141V433.866ZM331.24 420.726H334.141V453.984H331.24V420.726ZM324.54 421.574H327.34V452.287H324.54V421.574ZM352.74 436.359H355.74V441.478H352.74V436.359ZM339.54 434.601H368.94V437.064H339.54V434.601ZM343.141 440.333H365.24V447.986H346.141V451.889H343.24V445.779H362.24V442.652H343.141V440.333ZM343.24 451.256H366.24V453.616H343.24V451.256ZM352.54 422.79H355.141V423.822C355.141 428.931 349.04 432.282 342.141 432.977L341.141 430.627C347.141 430.105 352.54 427.388 352.54 423.822V422.79ZM353.44 422.79H356.04V423.822C356.04 427.388 361.44 430.105 367.44 430.627L366.44 432.977C359.54 432.282 353.44 428.931 353.44 423.822V422.79ZM342.24 421.829H366.34V424.302H342.24V421.829ZM396.34 420.767H399.44V441.181H396.34V420.767ZM374.34 436.655H377.04C382.94 436.655 387.24 436.471 392.44 435.592L392.84 438.096C387.44 439.015 383.04 439.158 377.04 439.158H374.34V436.655ZM374.34 422.831H389.04V432.026H377.24V438.055H374.34V429.636H386.141V425.324H374.34V422.831ZM388.641 441.917C395.44 441.917 399.641 444.083 399.641 447.914C399.641 451.736 395.44 453.943 388.641 453.943C381.84 453.943 377.74 451.736 377.74 447.914C377.74 444.083 381.84 441.917 388.641 441.917ZM388.641 444.349C383.74 444.349 380.74 445.636 380.74 447.914C380.74 450.193 383.74 451.521 388.641 451.521C393.641 451.521 396.641 450.193 396.641 447.914C396.641 445.636 393.641 444.349 388.641 444.349ZM438.84 420.726H441.84V453.984H438.84V420.726ZM429.34 424.302H432.24C432.24 433.937 428.04 442.356 417.141 447.802L415.54 445.34C424.94 440.701 429.34 433.641 429.34 424.813V424.302ZM417.04 424.302H430.641V426.795H417.04V424.302ZM452.34 429.963H474.34V432.466H452.34V429.963ZM452.34 421.39H455.24V431.066H452.34V421.39ZM448.34 436.328H477.74V438.79H448.34V436.328ZM462.94 441.774C469.94 441.774 474.141 443.94 474.141 447.843C474.141 451.664 469.94 453.871 462.94 453.871C456.04 453.871 451.84 451.664 451.84 447.843C451.84 443.94 456.04 441.774 462.94 441.774ZM462.94 444.165C457.84 444.165 454.84 445.483 454.84 447.843C454.84 450.121 457.84 451.439 462.94 451.439C468.04 451.439 471.04 450.121 471.04 447.843C471.04 445.483 468.04 444.165 462.94 444.165ZM496.141 421.278C503.24 421.278 507.54 423.342 507.54 427.061C507.54 430.77 503.24 432.834 496.141 432.834C488.94 432.834 484.641 430.77 484.641 427.061C484.641 423.342 488.94 421.278 496.141 421.278ZM496.141 423.597C490.74 423.597 487.74 424.854 487.74 427.061C487.74 429.268 490.74 430.514 496.141 430.514C501.44 430.514 504.44 429.268 504.44 427.061C504.44 424.854 501.44 423.597 496.141 423.597ZM481.34 435.041H510.84V437.503H481.34V435.041ZM484.94 440.333H507.04V447.843H487.94V451.889H485.04V445.636H504.141V442.693H484.94V440.333ZM485.04 451.225H508.04V453.616H485.04V451.225ZM523.84 438.351H553.24V440.813H523.84V438.351ZM537.04 434.05H540.04V439.383H537.04V434.05ZM527.74 432.68H549.84V435.071H527.74V432.68ZM527.74 421.686H549.641V424.077H530.74V433.968H527.74V421.686ZM529.84 427.132H548.84V429.482H529.84V427.132ZM538.54 443.276C545.641 443.276 549.74 445.115 549.74 448.609C549.74 452.073 545.641 453.912 538.54 453.912C531.44 453.912 527.34 452.073 527.34 448.609C527.34 445.115 531.44 443.276 538.54 443.276ZM538.54 445.595C533.34 445.595 530.44 446.658 530.44 448.609C530.44 450.602 533.34 451.623 538.54 451.623C543.74 451.623 546.641 450.602 546.641 448.609C546.641 446.658 543.74 445.595 538.54 445.595ZM556.94 426.397H573.04V428.9H556.94V426.397ZM565.04 431.107C569.04 431.107 572.04 434.233 572.04 438.719C572.04 443.163 569.04 446.29 565.04 446.29C560.94 446.29 558.04 443.163 558.04 438.719C558.04 434.233 560.94 431.107 565.04 431.107ZM565.04 433.712C562.54 433.712 560.74 435.776 560.74 438.719C560.74 441.661 562.54 443.715 565.04 443.715C567.54 443.715 569.34 441.661 569.34 438.719C569.34 435.776 567.54 433.712 565.04 433.712ZM581.641 420.726H584.54V453.984H581.641V420.726ZM576.44 434.703H582.641V437.248H576.44V434.703ZM574.74 421.462H577.54V452.359H574.74V421.462ZM563.54 421.686H566.54V427.939H563.54V421.686ZM46.4404 469.769H49.4307V486.986H46.4404V469.769ZM28.4004 488.682H49.46V496.662H31.3906V501.219H28.4805V494.383H46.5098V491.073H28.4004V488.682ZM28.4805 500.227H50.54V502.659H28.4805V500.227ZM31.25 470.73H33.7305V473.264C33.7305 479.415 29.9902 484.636 24.4805 486.689L23 484.268C27.9004 482.5 31.25 478.086 31.25 473.264V470.73ZM31.79 470.73H34.2402V473.264C34.2402 477.862 37.6602 482.02 42.4805 483.645L41 486.036C35.5303 484.115 31.79 479.231 31.79 473.264V470.73ZM64.4707 472.64H66.9199V478.597C66.9199 486.25 62.8906 493.351 57.5605 496.11L55.7305 493.607C60.5498 491.257 64.4707 484.891 64.4707 478.597V472.64ZM64.9805 472.64H67.4307V478.597C67.4307 484.666 71.3105 490.776 76.1406 493.055L74.3398 495.487C69.0498 492.84 64.9805 485.995 64.9805 478.597V472.64ZM79.5205 469.739H82.5098V503.058H79.5205V469.739ZM111.271 469.769H114.26V494.087H111.271V469.769ZM113.32 479.854H119.08V482.388H113.32V479.854ZM102.38 472.344H105.55C105.55 480.958 99.6406 487.241 90.3203 490.296L89.0205 487.793C97.2305 485.218 102.38 480.069 102.38 473.672V472.344ZM90.3506 472.344H103.891V474.847H90.3506V472.344ZM93.9502 499.788H115.7V502.291H93.9502V499.788ZM93.9502 491.624H96.9404V500.779H93.9502V491.624ZM136.83 471.874C143.601 471.874 148.641 475.553 148.641 481.07C148.641 486.618 143.601 490.265 136.83 490.265C130.061 490.265 124.98 486.618 124.98 481.07C124.98 475.553 130.061 471.874 136.83 471.874ZM136.83 474.367C131.681 474.367 127.86 477.054 127.86 481.07C127.86 485.034 131.681 487.762 136.83 487.762C141.98 487.762 145.79 485.034 145.79 481.07C145.79 477.054 141.98 474.367 136.83 474.367ZM122.141 496.069H151.62V498.644H122.141V496.069ZM155.26 496.406H184.74V498.94H155.26V496.406ZM168.431 489.264H171.42V497.469H168.431V489.264ZM158.82 472.242H181.101V482.316H161.88V488.978H158.931V479.854H178.15V474.704H158.82V472.242ZM158.931 487.691H181.86V490.184H158.931V487.691ZM221.38 469.81H224.4V494.383H221.38V469.81ZM203.49 499.788H225.37V502.291H203.49V499.788ZM203.49 492.064H206.44V501.116H203.49V492.064ZM206.55 476.135H208.99V477.535C208.99 483.491 205.29 488.426 199.851 490.337L198.37 487.946C203.2 486.322 206.55 482.132 206.55 477.535V476.135ZM207.05 476.135H209.5V477.535C209.5 481.877 212.88 485.811 217.74 487.354L216.3 489.745C210.79 487.946 207.05 483.236 207.05 477.535V476.135ZM199.13 474.224H216.84V476.687H199.13V474.224ZM206.55 469.923H209.5V475.399H206.55V469.923ZM234.51 471.946H254.851V474.408H234.51V471.946ZM230.84 486.219H260.24V488.713H230.84V486.219ZM243.98 487.875H246.971V503.058H243.98V487.875ZM253.45 471.946H256.37V474.817C256.37 478.27 256.37 482.173 255.141 487.793L252.19 487.394C253.45 482.02 253.45 478.158 253.45 474.817V471.946ZM272.141 486.546H275.141V494.496H272.141V486.546ZM273.641 471.905C278.641 471.905 282.24 475.103 282.24 479.742C282.24 484.38 278.641 487.578 273.641 487.578C268.641 487.578 265.04 484.38 265.04 479.742C265.04 475.103 268.641 471.905 273.641 471.905ZM273.641 474.521C270.34 474.521 267.94 476.656 267.94 479.742C267.94 482.827 270.34 484.963 273.641 484.963C276.94 484.963 279.34 482.827 279.34 479.742C279.34 476.656 276.94 474.521 273.641 474.521ZM285.94 469.769H288.94V503.027H285.94V469.769ZM288.04 483.461H294.141V486.036H288.04V483.461ZM264.04 495.854L263.54 493.31C269.44 493.28 277.24 493.239 283.94 492.319L284.141 494.598C277.24 495.783 269.641 495.854 264.04 495.854ZM321.04 477.167H330.94V479.701H321.04V477.167ZM321.04 487.691H330.94V490.225H321.04V487.691ZM315.141 472.314C319.84 472.314 323.24 476.84 323.24 483.9C323.24 491.001 319.84 495.517 315.141 495.517C310.34 495.517 307.04 491.001 307.04 483.9C307.04 476.84 310.34 472.314 315.141 472.314ZM315.141 475.072C311.94 475.072 309.84 478.526 309.84 483.9C309.84 489.305 311.94 492.84 315.141 492.84C318.24 492.84 320.44 489.305 320.44 483.9C320.44 478.526 318.24 475.072 315.141 475.072ZM330.24 469.739H333.24V503.058H330.24V469.739ZM364.141 469.769H366.94V490.817H364.141V469.769ZM358.84 478.781H364.94V481.325H358.84V478.781ZM357.141 470.434H359.94V489.632H357.141V470.434ZM339.34 473.744H355.84V476.176H339.34V473.744ZM347.641 477.862C351.74 477.862 354.54 480.15 354.54 483.563C354.54 487.027 351.74 489.264 347.641 489.264C343.54 489.264 340.74 487.027 340.74 483.563C340.74 480.15 343.54 477.862 347.641 477.862ZM347.641 480.15C345.04 480.15 343.34 481.509 343.34 483.563C343.34 485.668 345.04 486.986 347.641 486.986C350.141 486.986 351.94 485.668 351.94 483.563C351.94 481.509 350.141 480.15 347.641 480.15ZM346.141 470.035H349.04V475.103H346.141V470.035ZM356.24 491.4C363.04 491.4 367.141 493.464 367.141 497.172C367.141 500.851 363.04 502.956 356.24 502.956C349.44 502.956 345.44 500.851 345.44 497.172C345.44 493.464 349.44 491.4 356.24 491.4ZM356.24 493.76C351.24 493.76 348.34 494.966 348.34 497.172C348.34 499.379 351.24 500.636 356.24 500.636C361.24 500.636 364.141 499.379 364.141 497.172C364.141 494.966 361.24 493.76 356.24 493.76ZM387.34 470.321C394.54 470.321 398.84 472.385 398.84 476.104C398.84 479.813 394.54 481.877 387.34 481.877C380.141 481.877 375.94 479.813 375.94 476.104C375.94 472.385 380.141 470.321 387.34 470.321ZM387.34 472.64C382.04 472.64 378.94 473.897 378.94 476.104C378.94 478.311 382.04 479.558 387.34 479.558C392.641 479.558 395.74 478.311 395.74 476.104C395.74 473.897 392.641 472.64 387.34 472.64ZM372.641 484.084H402.04V486.546H372.641V484.084ZM376.24 489.377H398.34V496.886H379.24V500.933H376.24V494.679H395.34V491.737H376.24V489.377ZM376.24 500.268H399.24V502.659H376.24V500.268ZM427.74 479.006H434.94V481.468H427.74V479.006ZM427.44 487.354H434.94V489.816H427.44V487.354ZM439.94 469.769H442.74V503.027H439.94V469.769ZM433.34 470.617H436.24V501.331H433.34V470.617ZM426.141 473.969H429.04C429.04 482.684 425.54 490.521 416.84 495.854L415.141 493.678C422.74 488.978 426.141 482.357 426.141 474.521V473.969ZM416.54 473.969H427.34V476.472H416.54V473.969ZM449.44 472.794H468.44V475.072H449.44V472.794ZM458.94 476.36C463.641 476.36 466.74 478.27 466.74 481.284C466.74 484.339 463.641 486.25 458.94 486.25C454.34 486.25 451.24 484.339 451.24 481.284C451.24 478.27 454.34 476.36 458.94 476.36ZM458.94 478.495C456.04 478.495 454.04 479.558 454.04 481.284C454.04 482.981 456.04 484.115 458.94 484.115C461.94 484.115 463.84 482.981 463.84 481.284C463.84 479.558 461.94 478.495 458.94 478.495ZM457.44 469.555H460.44V473.999H457.44V469.555ZM457.44 485.034H460.44V489.561H457.44V485.034ZM471.84 469.81H474.84V492.064H471.84V469.81ZM453.04 493.607H474.84V503.027H471.84V496.038H453.04V493.607ZM448.74 491.032L448.44 488.569C454.34 488.569 462.44 488.529 469.24 487.578L469.44 489.714C462.44 490.919 454.641 491.032 448.74 491.032ZM481.34 475.44H497.44V477.943H481.34V475.44ZM489.34 480.15C493.44 480.15 496.34 483.277 496.34 487.762C496.34 492.207 493.44 495.333 489.34 495.333C485.34 495.333 482.34 492.207 482.34 487.762C482.34 483.277 485.34 480.15 489.34 480.15ZM489.34 482.756C486.84 482.756 485.04 484.82 485.04 487.762C485.04 490.705 486.84 492.759 489.34 492.759C491.84 492.759 493.74 490.705 493.74 487.762C493.74 484.82 491.84 482.756 489.34 482.756ZM506.04 469.769H508.94V503.027H506.04V469.769ZM500.84 483.747H507.04V486.291H500.84V483.747ZM499.04 470.505H501.84V501.402H499.04V470.505ZM487.94 470.73H490.84V476.983H487.94V470.73ZM514.44 496.253H543.94V498.797H514.44V496.253ZM527.641 488.314H530.641V496.989H527.641V488.314ZM517.94 472.13H520.94V478.046H537.44V472.13H540.44V489.121H517.94V472.13ZM520.94 480.518V486.618H537.44V480.518H520.94ZM560.44 481.652H566.641V484.196H560.44V481.652ZM554.34 472.896H556.641V479.231C556.641 486.179 553.84 492.912 549.04 495.885L547.24 493.576C551.641 490.889 554.34 484.932 554.34 479.231V472.896ZM554.94 472.896H557.24V479.118C557.24 484.452 559.641 490.112 563.94 492.759L562.24 495.149C557.54 492.207 554.94 485.586 554.94 479.118V472.896ZM572.34 469.769H575.24V503.027H572.34V469.769ZM565.74 470.474H568.54V501.372H565.74V470.474ZM587.94 486.873H590.84V496.846H587.94V486.873ZM599.94 486.873H602.94V496.846H599.94V486.873ZM580.74 496.253H610.24V498.797H580.74V496.253ZM595.44 471.874C602.24 471.874 607.24 475.215 607.24 480.436C607.24 485.627 602.24 488.978 595.44 488.978C588.54 488.978 583.54 485.627 583.54 480.436C583.54 475.215 588.54 471.874 595.44 471.874ZM595.44 474.296C590.141 474.296 586.44 476.727 586.44 480.436C586.44 484.115 590.141 486.546 595.44 486.546C600.641 486.546 604.34 484.115 604.34 480.436C604.34 476.727 600.641 474.296 595.44 474.296ZM614.641 498.286C614.641 497.448 614.84 496.856 615.24 496.508C615.641 496.151 616.141 495.967 616.74 495.967C617.34 495.967 617.84 496.151 618.24 496.508C618.641 496.856 618.84 497.448 618.84 498.286C618.84 499.114 618.641 499.717 618.24 500.105C617.84 500.473 617.34 500.657 616.74 500.657C616.141 500.657 615.641 500.473 615.24 500.105C614.84 499.717 614.641 499.114 614.641 498.286Z" fill="#4C7AA7"/>
<path d="M271.332 630.345L312.999 651.631L354.665 630.345M271.332 600.544L312.999 621.83L354.665 600.544" stroke="#3B628E" stroke-width="4" stroke-linecap="round" stroke-linejoin="round"/>
</svg>
