<svg width="48" height="48" viewBox="0 0 48 48" fill="none" xmlns="http://www.w3.org/2000/svg">
<g clip-path="url(#clip0_358_1448)">
<path d="M24 19.6367V28.9313H36.9163C36.3492 31.9204 34.6471 34.4514 32.0944 36.1532L39.8835 42.1968C44.4217 38.0079 47.0399 31.8551 47.0399 24.546C47.0399 22.8443 46.8872 21.2077 46.6035 19.637L24 19.6367Z" fill="#4285F4"/>
<path d="M10.5492 28.5684L8.7925 29.9131L2.57422 34.7567C6.5233 42.5893 14.6172 48.0003 23.999 48.0003C30.4788 48.0003 35.9115 45.8621 39.8825 42.1968L32.0934 36.1531C29.9552 37.5931 27.2279 38.4659 23.999 38.4659C17.759 38.4659 12.4574 34.255 10.559 28.5822L10.5492 28.5684Z" fill="#34A853"/>
<path d="M2.57436 13.2432C0.938084 16.4721 0 20.1158 0 23.9994C0 27.8829 0.938084 31.5266 2.57436 34.7556C2.57436 34.7773 10.5599 28.5592 10.5599 28.5592C10.08 27.1192 9.79624 25.5921 9.79624 23.9991C9.79624 22.4062 10.08 20.879 10.5599 19.439L2.57436 13.2432Z" fill="#FBBC05"/>
<path d="M23.9995 9.55636C27.5341 9.55636 30.6758 10.7781 33.1849 13.1345L40.0576 6.2619C35.8903 2.37833 30.4796 0 23.9995 0C14.6177 0 6.5233 5.38908 2.57422 13.2437L10.5596 19.44C12.4576 13.7672 17.7595 9.55636 23.9995 9.55636Z" fill="#EA4335"/>
</g>
<defs>
<clipPath id="clip0_358_1448">
<rect width="48" height="48" fill="white"/>
</clipPath>
</defs>
</svg>
