<svg width="70" height="70" viewBox="0 0 70 70" fill="none" xmlns="http://www.w3.org/2000/svg">
<rect x="0.75" y="0.75" width="68.5" height="68.5" rx="34.25" fill="white" stroke="#4C7AA7" stroke-width="1.5"/>
<path fill-rule="evenodd" clip-rule="evenodd" d="M59 49V27C59 25.3087 58.4052 23.8942 57.2158 22.7565C56.0996 21.5855 54.6944 21 53 21H46.0703L42.6641 15.8906C42.6186 15.8224 42.5692 15.7572 42.5156 15.695C42.4622 15.6329 42.4055 15.5743 42.3447 15.5192C42.284 15.4641 42.2193 15.4128 42.1523 15.3656C42.0853 15.3183 42.0157 15.2754 41.9434 15.2367C41.8711 15.198 41.7972 15.1638 41.7207 15.1343C41.6442 15.1048 41.5659 15.08 41.4863 15.0601C41.4068 15.0401 41.3265 15.0251 41.2451 15.0151C41.1637 15.005 41.082 15 41 15H29C28.918 15 28.8363 15.005 28.7549 15.0151C28.6735 15.0251 28.5932 15.0401 28.5137 15.0601C28.4341 15.08 28.3558 15.1048 28.2793 15.1343C28.2028 15.1638 28.1289 15.198 28.0566 15.2367C27.9843 15.2754 27.9147 15.3183 27.8477 15.3656C27.7807 15.4128 27.716 15.4641 27.6553 15.5192C27.5945 15.5743 27.5378 15.6329 27.4844 15.695C27.4308 15.7572 27.3814 15.8224 27.3359 15.8906L23.9297 21H17C15.3056 21 13.9004 21.5855 12.7842 22.7565C11.5948 23.8942 11 25.3087 11 27V49C11 50.6913 11.5948 52.1058 12.7842 53.2435C13.9004 54.4145 15.3056 55 17 55H53C54.6944 55 56.0996 54.4145 57.2158 53.2435C58.4052 52.1058 59 50.6913 59 49ZM54.4316 25.6288C54.8105 25.9841 55 26.4411 55 27V49C55 49.5589 54.8105 50.0159 54.4316 50.3712C54.3994 50.4015 54.3682 50.4328 54.3379 50.4652C54.005 50.8217 53.5591 51 53 51H17C16.4409 51 15.9949 50.8217 15.6621 50.4652C15.6319 50.4328 15.6007 50.4015 15.5684 50.3712C15.1895 50.0159 15 49.5589 15 49V27C15 26.4411 15.1895 25.9841 15.5684 25.6288C15.6007 25.5985 15.6319 25.5672 15.6621 25.5348C15.9949 25.1783 16.4409 25 17 25H25C25.082 25 25.1637 24.995 25.2451 24.9849C25.3265 24.9749 25.4068 24.9599 25.4863 24.9399C25.5659 24.92 25.6442 24.8952 25.7207 24.8657C25.7972 24.8362 25.8711 24.802 25.9434 24.7633C26.0157 24.7246 26.0853 24.6817 26.1523 24.6344C26.2193 24.5872 26.284 24.5359 26.3447 24.4808C26.4055 24.4257 26.4622 24.3671 26.5156 24.305C26.5692 24.2428 26.6186 24.1776 26.6641 24.1094L30.0703 19H39.9297L43.3359 24.1094C43.3814 24.1776 43.4308 24.2428 43.4844 24.305C43.5378 24.3671 43.5945 24.4257 43.6553 24.4808C43.716 24.5359 43.7807 24.5872 43.8477 24.6344C43.9147 24.6817 43.9843 24.7246 44.0566 24.7633C44.1289 24.802 44.2028 24.8362 44.2793 24.8657C44.3558 24.8952 44.4341 24.92 44.5137 24.9399C44.5932 24.9599 44.6735 24.9749 44.7549 24.9849C44.8363 24.995 44.918 25 45 25H53C53.5591 25 54.005 25.1783 54.3379 25.5348C54.3682 25.5672 54.3994 25.5985 54.4316 25.6288Z" fill="#4C7AA7"/>
<path fill-rule="evenodd" clip-rule="evenodd" d="M59 49V27C59 25.3087 58.4052 23.8942 57.2158 22.7565C56.0996 21.5855 54.6944 21 53 21H46.0703L42.6641 15.8906C42.6186 15.8224 42.5692 15.7572 42.5156 15.695C42.4622 15.6329 42.4055 15.5743 42.3447 15.5192C42.284 15.4641 42.2193 15.4128 42.1523 15.3656C42.0853 15.3183 42.0157 15.2754 41.9434 15.2367C41.8711 15.198 41.7972 15.1638 41.7207 15.1343C41.6442 15.1048 41.5659 15.08 41.4863 15.0601C41.4068 15.0401 41.3265 15.0251 41.2451 15.0151C41.1637 15.005 41.082 15 41 15H29C28.918 15 28.8363 15.005 28.7549 15.0151C28.6735 15.0251 28.5932 15.0401 28.5137 15.0601C28.4341 15.08 28.3558 15.1048 28.2793 15.1343C28.2028 15.1638 28.1289 15.198 28.0566 15.2367C27.9843 15.2754 27.9147 15.3183 27.8477 15.3656C27.7807 15.4128 27.716 15.4641 27.6553 15.5192C27.5945 15.5743 27.5378 15.6329 27.4844 15.695C27.4308 15.7572 27.3814 15.8224 27.3359 15.8906L23.9297 21H17C15.3056 21 13.9004 21.5855 12.7842 22.7565C11.5948 23.8942 11 25.3087 11 27V49C11 50.6913 11.5948 52.1058 12.7842 53.2435C13.9004 54.4145 15.3056 55 17 55H53C54.6944 55 56.0996 54.4145 57.2158 53.2435C58.4052 52.1058 59 50.6913 59 49ZM54.4316 25.6288C54.8105 25.9841 55 26.4411 55 27V49C55 49.5589 54.8105 50.0159 54.4316 50.3712C54.3994 50.4015 54.3682 50.4328 54.3379 50.4652C54.005 50.8217 53.5591 51 53 51H17C16.4409 51 15.9949 50.8217 15.6621 50.4652C15.6319 50.4328 15.6007 50.4015 15.5684 50.3712C15.1895 50.0159 15 49.5589 15 49V27C15 26.4411 15.1895 25.9841 15.5684 25.6288C15.6007 25.5985 15.6319 25.5672 15.6621 25.5348C15.9949 25.1783 16.4409 25 17 25H25C25.082 25 25.1637 24.995 25.2451 24.9849C25.3265 24.9749 25.4068 24.9599 25.4863 24.9399C25.5659 24.92 25.6442 24.8952 25.7207 24.8657C25.7972 24.8362 25.8711 24.802 25.9434 24.7633C26.0157 24.7246 26.0853 24.6817 26.1523 24.6344C26.2193 24.5872 26.284 24.5359 26.3447 24.4808C26.4055 24.4257 26.4622 24.3671 26.5156 24.305C26.5692 24.2428 26.6186 24.1776 26.6641 24.1094L30.0703 19H39.9297L43.3359 24.1094C43.3814 24.1776 43.4308 24.2428 43.4844 24.305C43.5378 24.3671 43.5945 24.4257 43.6553 24.4808C43.716 24.5359 43.7807 24.5872 43.8477 24.6344C43.9147 24.6817 43.9843 24.7246 44.0566 24.7633C44.1289 24.802 44.2028 24.8362 44.2793 24.8657C44.3558 24.8952 44.4341 24.92 44.5137 24.9399C44.5932 24.9599 44.6735 24.9749 44.7549 24.9849C44.8363 24.995 44.918 25 45 25H53C53.5591 25 54.005 25.1783 54.3379 25.5348C54.3682 25.5672 54.3994 25.5985 54.4316 25.6288Z" fill="#4C7AA7"/>
<path fill-rule="evenodd" clip-rule="evenodd" d="M27.9365 29.9271C25.9786 31.8817 25 34.2393 25 37C25 39.7607 25.9786 42.1183 27.9365 44.0729C29.8912 46.0243 32.2459 47 35 47C37.7541 47 40.1087 46.0243 42.0635 44.0729C44.0213 42.1183 45 39.7607 45 37C45 34.2393 44.0213 31.8817 42.0635 29.9271C40.1087 27.9757 37.7541 27 35 27C32.2459 27 29.8912 27.9757 27.9365 29.9271ZM30.7627 41.2421C29.5874 40.0688 29 38.6548 29 37C29 35.3452 29.5874 33.9312 30.7627 32.7579C31.9366 31.586 33.3492 31 35 31C36.6508 31 38.0634 31.586 39.2373 32.7579C40.4126 33.9312 41 35.3452 41 37C41 38.6548 40.4126 40.0688 39.2373 41.2421C38.0634 42.414 36.6508 43 35 43C33.3492 43 31.9366 42.414 30.7627 41.2421Z" fill="#4C7AA7"/>
</svg>
