<svg width="30" height="30" viewBox="0 0 30 30" fill="none" xmlns="http://www.w3.org/2000/svg">
<mask id="mask0_365_765" style="mask-type:alpha" maskUnits="userSpaceOnUse" x="0" y="0" width="30" height="30">
<path d="M30 0H0V30H30V0Z" fill="#2B4461"/>
</mask>
<g mask="url(#mask0_365_765)">
<path fill-rule="evenodd" clip-rule="evenodd" d="M19.7832 2.33875L2.9834 19.2089C2.86188 19.3309 2.75743 19.4663 2.6709 19.6153C2.58437 19.7641 2.51851 19.9216 2.47266 20.0876L0.572269 26.9675C0.524462 27.1406 0.500323 27.3169 0.500003 27.4965C0.49969 27.6761 0.523116 27.8525 0.570316 28.0257C0.604829 28.1524 0.651384 28.2745 0.709964 28.3921C0.768537 28.5096 0.837599 28.6203 0.917972 28.7242C0.998352 28.828 1.08841 28.923 1.1875 29.0092C1.2866 29.0954 1.39284 29.171 1.50684 29.2362C1.62084 29.3014 1.74071 29.3548 1.86524 29.3966C1.98976 29.4382 2.1168 29.4673 2.24707 29.4839C2.37734 29.5005 2.50767 29.5043 2.63867 29.4951C2.76968 29.486 2.89869 29.4642 3.02539 29.4297L9.92578 27.5498C10.0945 27.5038 10.2551 27.4369 10.4063 27.3491C10.5574 27.2611 10.694 27.1552 10.8174 27.0314L27.5625 10.2162C28.0437 9.79191 28.4609 9.20114 28.8135 8.44394C29.1378 7.74695 29.2998 7.01565 29.2998 6.25C29.2998 5.48435 29.1379 4.75292 28.8135 4.05566C28.4673 3.31239 28.0591 2.72948 27.5889 2.30695C27.1346 1.83543 26.5659 1.44629 25.8828 1.13959C25.2095 0.853161 24.5151 0.709961 23.7998 0.709961C23.0181 0.709961 22.2789 0.858558 21.5811 1.15573C21.0247 1.40576 20.4724 1.75661 19.9258 2.20831C19.876 2.24948 19.8288 2.29296 19.7832 2.33875ZM6.18848 21.6591L5.36328 24.6472L8.35938 23.8307L24.7832 7.33875C24.8288 7.29296 24.876 7.24947 24.9258 7.20831C24.9801 7.16345 25.0671 7.01278 25.1865 6.75626C25.2619 6.59429 25.2998 6.42553 25.2998 6.25C25.2998 6.07447 25.2618 5.90585 25.1865 5.74414C25.067 5.48735 24.9801 5.33655 24.9258 5.29169C24.8523 5.23095 24.7839 5.16528 24.7197 5.0947C24.6249 4.99021 24.4902 4.89877 24.3164 4.82037C24.1434 4.74677 23.9714 4.70996 23.7998 4.70996C23.5618 4.70996 23.3681 4.74138 23.2197 4.80423C23.0113 4.89789 22.7867 5.04162 22.5439 5.23538L6.18848 21.6591Z" fill="#2B4461"/>
</g>
</svg>
