<svg width="35" height="35" viewBox="0 0 35 35" fill="none" xmlns="http://www.w3.org/2000/svg">
<path d="M13.1077 31.1745L12.5438 26.6409C12.2369 26.5226 11.9478 26.3808 11.6764 26.2153C11.4049 26.0499 11.1394 25.8727 10.8798 25.6836L6.66415 27.4519L2.77239 20.7204L6.42197 17.9601C6.39846 17.7948 6.38675 17.6354 6.38685 17.4819L6.38742 16.5257C6.38752 16.3722 6.39942 16.2128 6.42313 16.0476L2.77688 13.2829L6.67679 6.55607L10.8903 8.32945C11.1501 8.14072 11.4218 7.9638 11.7052 7.79869C11.9886 7.63358 12.2721 7.49209 12.5555 7.3742L13.1249 2.84121L20.9165 2.84593L21.4805 7.3796C21.7873 7.49784 22.0765 7.63968 22.3479 7.80513C22.6193 7.97057 22.8849 8.14781 23.1445 8.33686L27.3601 6.56857L31.2519 13.3001L27.6023 16.0604C27.6258 16.2257 27.6375 16.3851 27.6374 16.5385L27.6368 17.4948C27.6368 17.6483 27.613 17.8076 27.5657 17.9729L31.212 20.7376L27.3121 27.4644L23.134 25.691C22.8741 25.8798 22.6025 26.0567 22.3191 26.2218C22.0356 26.3869 21.7522 26.5284 21.4688 26.6463L20.8994 31.1793L13.1077 31.1745ZM17.08 21.9686C18.4494 21.9694 19.6185 21.4861 20.5871 20.5186C21.5557 19.5512 22.0405 18.3827 22.0413 17.0133C22.0421 15.6438 21.5588 14.4748 20.5913 13.5061C19.6239 12.5375 18.4554 12.0528 17.086 12.0519C15.6929 12.0511 14.518 12.5344 13.5611 13.5019C12.6043 14.4694 12.1255 15.6378 12.1246 17.0073C12.1238 18.3767 12.6012 19.5458 13.5569 20.5144C14.5126 21.483 15.6869 21.9678 17.08 21.9686Z" fill="#1B2636"/>
</svg>
